<ttFont>
          <CharString index="0">
            -48 -21 60 37 hvcurveto
            -5 119 -3 115 71 vvcurveto
            71 1 34 3 36 vhcurveto
            -8 4 -6 -4 -8 5 rrcurveto
            -3 -5 -6 -1 -9 -13 -12 3 -13 -9 -7 -4 -11 hhcurveto
            -11 -12 3 1 -11 hvcurveto
            -2 vlineto
            -3 1 0 -3 -8 -2 -9 -9 vvcurveto
            -12 vlineto
            -77 3 -30 -40 vvcurveto
            -36 -1 -35 -3 -35 vhcurveto
            1 -7 0 -6 -7 vvcurveto
            -20 vlineto
            -39 -2 -37 -37 vvcurveto
            -219 114 -17 109 35 30 5 9 32 vhcurveto
            22 14 40 15 22 vvcurveto
            1 -1 0 -1 -1 -2 -1 -1 -1 vhcurveto
            -1 -1 0 1 hvcurveto
            11 7 -4 12 11 5 2 1 rcurveline
            32 72 -8 80 11 80 rrcurveto
            -2 1 -1 4 7 42 5 -13 10 40 1 44 51 vvcurveto
            51 -1 55 -3 64 vhcurveto
            -3 -1 rlineto
            -5 3 8 -7 hhcurveto
            8 -197 rmoveto
            -1 -113 -1 -116 -15 -113 -5 -32 -18 -29 -19 -25 1 -1 rcurveline
            -3 -8 -9 -13 -11 -3 rrcurveto
            2 vlineto
            -8 -5 -9 -5 -9 -3 -28 -10 rcurveline
            -51 -2 rlineto
            -3 -2 -4 -2 -6 hhcurveto
            -14 hlineto
            -29 -27 5 10 -26 89 callsubr
            -39 -27 49 5 -2 hvcurveto
            114 callsubr
            hvcurveto
            -19 33 -15 53 -11 73 rrcurveto
            17 vlineto
            3 104 callgsubr
            -1 22 rlineto
            7 1 8 7 16 -4 7 11 31 9 6 33 43 -5 24 9 vvcurveto
            -2 35 rlineto
            1 5 3 14 23 43 -3 28 29 vvcurveto
            11 vlineto
            5 8 -3 7 hhcurveto
            3 4 1 2 3 hvcurveto
            1 -5 12 1 4 -3 rrcurveto
            182 callsubr
            226 callsubr
            4 8 2 3 13 hvcurveto
            4 hlineto
            return
          </CharString>
          <CharString index="1">
            -12 -8 1 3 -5 hvcurveto
            -1 -5 -1 -2 -1 -1 rrcurveto
            -4 220 callgsubr
            1 -1 0 -1 94 callgsubr
            -40 callsubr
            -7 -26 -4 -12 -2 -7 -2 -4 rlineto
            -8 -24 -67 -3 -5 vhcurveto
            -13 -39 -10 -37 -15 -39 -15 -37 -6 -39 -19 -35 2 -1 rcurveline
            -2 -2 -18 -53 -5 -15 rrcurveto
            -29 callsubr
            vlineto
            -7 -4 -7 -3 -3 49 callgsubr
            -2 -6 -11 -8 -2 -27 -7 -15 rlinecurve
            -7 -15 -4 -13 -5 -15 -16 -44 rcurveline
            -3 -9 -24 -59 -18 vvcurveto
            -3 1 -1 1 vhcurveto
            3 1 -2 1 3 vhcurveto
            return
          </CharString>
          <CharString index="2">
            40 -13 -73 31 -69 hhcurveto
            -73 -63 -22 -19 -19 hvcurveto
            -41 -40 -14 -69 -77 vvcurveto
            -71 vlineto
            -125 66 -103 139 65 68 28 31 29 vhcurveto
            16 19 3 35 35 23 -1 24 20 vvcurveto
            233 callgsubr
            -6 hhcurveto
            -13 -54 -1 5 -35 hvcurveto
            -43 -3 -16 -38 -45 hhcurveto
            -68 15 85 52 -16 hvcurveto
            -7 13 13 -2 12 11 11 2 9 7 8 -4 7 hhcurveto
            -87 34 rmoveto
            -6 -3 -4 -3 -3 -26 callgsubr
            hhcurveto
            hintmask 1110010010101100
            -5 -19 -3 -17 -15 vvcurveto
            -61 32 -67 59 51 15 61 38 16 vhcurveto
            -1 7 -45 callgsubr
            36 hlineto
            11 10 -1 -1 13 hvcurveto
            -55 -12 -45 -23 -35 vhcurveto
            -40 -32 -15 -3 -77 hhcurveto
            -23 -22 0 3 -27 hvcurveto
            -77 8 -61 125 146 vvcurveto
            181 120 18 74 47 41 -4 -11 20 vhcurveto
            50 -25 25 -53 -79 vvcurveto
            -19 -1 -19 -7 -19 vhcurveto
            -1 -2 -5 0 -8 hhcurveto
            -65 4 -42 0 -19 3 rrcurveto
            hintmask 1100110100110100
            3 -19 -16 6 -19 -11 -8 -3 -8 hhcurveto
            -4 -4 237 callsubr
            133 42 rmoveto
            -3 3 -1 -2 4 hhcurveto
            3 9 20 7 27 -19 20 -15 17 hvcurveto
            79 callsubr
            hintmask 1110001010110100
            -11 -8 11 -12 -5 -5 -1 -5 -13 -6 9 -13 hhcurveto
            -15 -8 -8 -11 -8 hvcurveto
            -11 -16 -3 -5 -4 -5 -4 -4 rlinecurve
            1 -1 0 -3 -6 -9 -3 -10 -9 vvcurveto
            -11 8 -3 4 -5 vhcurveto
            7 1 5 4 9 hhcurveto
            hintmask 1110010100110100
            23 41 -13 32 hhcurveto
            16 10 170 callsubr
            -128 21 rmoveto
            11 -6 8 8 vvcurveto
            21 44 14 36 41 10 -23 -35 vhcurveto
            -7 -8 1 -5 hhcurveto
            -5 119 callgsubr
            -1 1 -4 1 -9 2 rrcurveto
            -2 vlineto
            -1 0 0 1 vhcurveto
            -77 callsubr
            1 -11 -23 0 -28 hhcurveto
            -13 -8 0 -71 callsubr
            endchar
          </CharString>
          <CharString index="3">
            12 15 -1 15 hhcurveto
            27 25 1 7 19 hvcurveto
            40 16 13 55 13 40 rrcurveto
            9 28 3 29 31 vvcurveto
            27 -1 26 -3 28 vhcurveto
            -106 -257 rmoveto
            -11 -41 -34 -5 -27 hhcurveto
            -41 -85 27 23 -15 hvcurveto
            -19 38 -16 -26 147 vvcurveto
            120 vlineto
            37 4 20 18 48 vhcurveto
            7 13 5 24 8 7 27 19 90 -7 63 5 rrcurveto
            1 7 3 1 7 hhcurveto
            16 14 -14 -5 19 hvcurveto
            11 -3 8 2 7 -3 rrcurveto
            40 -16 13 -66 -60 vvcurveto
            -239 0 -42 -89 -35 vhcurveto
            -12 279 rmoveto
            34 -5 -38 51 -31 hhcurveto
            -27 -22 -26 -13 -19 hvcurveto
            -6 vlineto
            -15 -8 -12 -3 -15 vhcurveto
            -9 4 -13 -12 vvcurveto
            return
          </CharString>
          <CharString index="4">
            hlineto
            5 3 15 5 hhcurveto
            6 5 27 24 21 28 28 21 rlinecurve
            -1 1 -51 callgsubr
            hhcurveto
            1 2 1 3 3 hvcurveto
            5 6 -7 6 rlineto
            2 callsubr
            2 vvcurveto
            1 11 -10 -3 return
          </CharString>
          <CharString index="5">
            8 -1 21 5 10 5 8 4 17 6 rlineto
            1 -1 1 3 hhcurveto
            1 hlineto
            4 9 3 3 9 7 rrcurveto
            1 vlineto
            10 23 rlineto
            1 1 1 1 vvcurveto
            1 0 0 1 vhcurveto
            2 hlineto
            10 48 rlineto
            3 1 3 1 7 vhcurveto
            4 vlineto
            1 4 2 5 1 7 rrcurveto
            -39 callgsubr
            3 vvcurveto
            239 callsubr
            0 5 -1 4 1 113 callsubr
            10 vlineto
            3 -1 2 3 vvcurveto
            -10 -18 rmoveto
            -1 hlineto
            -17 -1 -26 -7 -13 vhcurveto
            -1 -8 rlineto
            -3 -68 callgsubr
            -5 -22 -52 callsubr
            -7 -19 -33 callsubr
            -5 -4 1 -1 vvcurveto
            -1 100 callgsubr
            vhcurveto
            -7 -15 rlineto
            -3 3 -3 -3 hhcurveto
            25 callgsubr
            -2 hlineto
            -9 -11 rlineto
            -5 -5 -3 -2 -2 hhcurveto
            -5 -3 48 callsubr
            0 0 -71 callsubr
            -15 -4 rlineto
            -1 -3 -5 0 -3 hhcurveto
            -4 -1 rlineto
            -3 -7 0 1 -1 hvcurveto
            -20 6 rlineto
            8 -17 2 0 -1 hhcurveto
            1 vlineto
            -1 return
          </CharString>
          <CharString index="6">
            -3 -19 -19 -1 -19 hhcurveto
            -28 -29 1 3 -29 hvcurveto
            -6 -5 3 -43 7 -40 21 -35 rlinecurve
            22 -24 14 -41 34 -11 rrcurveto
            -11 44 34 -6 45 hhcurveto
            11 hlineto
            6 4 0 1 2 hvcurveto
            -1 1 2 0 3 8 11 3 8 hhcurveto
            4 hlineto
            14 10 14 8 13 6 21 9 rcurveline
            7 3 8 5 8 5 rrcurveto
            11 hlineto
            -7 -11 -12 -4 -7 -9 rrcurveto
            68 32 32 70 80 vvcurveto
            129 -66 30 -80 48 vhcurveto
            -37 21 -95 -19 72 vvcurveto
            23 9 21 28 4 vhcurveto
            -4 2 rlineto
            5 5 16 1 11 hhcurveto
            31 34 -21 -35 -5 -1 -3 -3 -3 hvcurveto
            -8 11 19 -1 20 hhcurveto
            39 36 -1 9 35 hvcurveto
            1 11 1 7 11 vvcurveto
            57 -21 53 -51 37 vhcurveto
            33 -167 rmoveto
            56 callgsubr
            -1 hlineto
            -7 -6 4 -7 -13 -17 -5 -15 hhcurveto
            -12 -10 1 2 -9 hvcurveto
            40 -11 -32 43 -51 hhcurveto
            -53 -14 -44 -36 -23 4 -29 25 -12 hvcurveto
            97 -41 rlineto
            76 -32 66 -25 -107 vvcurveto
            -33 -8 -32 -12 -27 vhcurveto
            -57 -43 -58 -50 -75 -16 -13 7 -12 hhcurveto
            -5 hlineto
            -5 -3 1 2 -2 hvcurveto
            -3 -3 -3 -1 -5 hhcurveto
            -45 -65 45 47 -16 hvcurveto
            -6 -9 49 21 -3 hvcurveto
            -1 1 3 0 4 hhcurveto
            9 hlineto
            25 24 6 27 hhcurveto
            13 10 -1 -3 8 hvcurveto
            -25 16 13 -31 48 hhcurveto
            48 40 41 40 9 -2 8 -4 8 hvcurveto
            -43 69 -84 2 -71 21 rrcurveto
            -7 3 -7 7 7 vvcurveto
            -37 31 -23 39 43 vvcurveto
            27 0 1 8 23 vhcurveto
            9 25 8 42 31 28 -2 6 rcurveline
            -7 -4 -11 -10 -4 vvcurveto
            8 27 37 21 5 vhcurveto
            -8 -11 -15 -3 -5 vvcurveto
            19 callgsubr
            5 9 17 15 hhcurveto
            20 20 51 13 41 hhcurveto
            11 hlineto
            2 4 37 callsubr
            hvcurveto
            69 -21 89 -35 13 -81 3 -19 -2 -12 1 -15 rrcurveto
            return
          </CharString>
          <CharString index="7">
            -1 9 -1 9 9 23 3 20 23 7 -1 5 7 vvcurveto
            2 4 115 3 rlineto
            -1 8 8 -1 7 hhcurveto
            68 3 40 2 17 3 rrcurveto
            5 vlineto
            7 1 8 1 7 vhcurveto
            -1 2 0 4 231 callsubr
            19 1 18 19 vvcurveto
            13 0 13 -3 12 vhcurveto
            4 4 2 3 2 vvcurveto
            3 -1 1 -3 1 vhcurveto
            -3 -23 -20 -1 -23 hhcurveto
            -2 5 vlineto
            7 202 callsubr
            7 7 -2 -3 5 hvcurveto
            -3 -2 rlineto
            -2 -33 -35 -1 -36 -27 -19 1 -37 hhcurveto
            -30 hlineto
            return
          </CharString>
          <CharString index="8">
            -7 -5 230 callgsubr
            -166 -5 27 5 -16 -8 rrcurveto
            -4 -36 -1 -39 -39 -68 -4 -65 -60 -76 8 -74 -80 vvcurveto
            -20 -1 -20 -1 -21 vhcurveto
            1 -1 0 -3 -4 vvcurveto
            -8 vlineto
            -12 -2 -12 -12 vvcurveto
            -7 1 -4 1 -7 vhcurveto
            -1 -1 0 -2 -2 vvcurveto
            -77 callsubr
            -5 14 -6 51 vhcurveto
            24 15 4 17 hhcurveto
            9 hlineto
            return
          </CharString>
          <CharString index="9">
            -97 callgsubr
            hintmask 0011101001000000
            53 callgsubr
            hintmask 1001101001000000
            -4 callgsubr
            hintmask 1001101000100000
            -97 callsubr
            vvcurveto
            hintmask 1001010010100000
            -87 callgsubr
            vvcurveto
            hintmask 1001100100100000
            -73 callsubr
            endchar
          </CharString>
          <CharString index="10">
            80 16 89 85 47 -4 45 43 vvcurveto
            15 1 12 1 12 vhcurveto
            -23 -182 rmoveto
            -165 -5 10 -124 -41 -19 -19 7 -19 hhcurveto
            -7 -7 -1 -2 -6 hvcurveto
            12 -1 11 11 vvcurveto
            11 2 8 5 5 vhcurveto
            -7 5 -1 -2 -1 13 -12 -4 -7 -8 -7 -11 rrcurveto
            -39 -27 -28 -23 -51 hhcurveto
            -56 -52 56 75 hvcurveto
            23 -2 41 56 return
          </CharString>
          <CharString index="11">
            -19 -20 4 -15 hhcurveto
            -9 -6 -1 -3 -3 hvcurveto
            -7 -2 -3 -4 rlineto
            -3 1 20 callgsubr
            vhcurveto
            -3 -19 0 -1 -3 -11 -2 -18 rcurveline
            1 -23 rlineto
            -10 0 -6 1 -1 vhcurveto
            -15 -64 callgsubr
            3 vlineto
            5 8 -51 callsubr
            return
          </CharString>
          <CharString index="12">
            rmoveto
            -11 -9 4 8 -8 hvcurveto
            -2 -1 -1 -2 -1 -3 5 -4 -4 -7 -19 6 -11 vvcurveto
            -7 14 0 1 -7 vhcurveto
            -17 -104 -17 -98 -21 -100 rrcurveto
            25 -4 -66 299 -5 -3 1 -2 -3 148 callsubr
            3 -39 callgsubr
            vvcurveto
            -1 -1 2 -1 4 vhcurveto
            -2 -13 -14 -1 -13 -23 -22 2 -25 -12 -11 -1 -5 -7 5 6 -4 hhcurveto
            -4 1 -10 -4 -3 hvcurveto
            3 -3 6 0 -5 vvcurveto
            15 -61 17 -65 17 -72 rrcurveto
            18 -74 37 -70 -83 vvcurveto
            -32 -21 -68 -53 vhcurveto
            -16 -14 3 -15 hhcurveto
            -7 -7 -1 -2 -7 hvcurveto
            3 -45 -5 -61 16 -34 rrcurveto
            -4 20 25 -2 24 hhcurveto
            155 46 51 100 40 hvcurveto
            11 27 12 24 9 28 8 28 9 29 13 27 27 57 8 61 13 57 15 64 10 70 11 56 -25 2 rcurveline
            -23 -184 rmoveto
            -51 -118 -13 -171 -91 -99 -19 -20 -5 -18 -24 -12 -25 -12 -26 -1 -25 -7 rrcurveto
            -5 -32 -32 -13 -36 hhcurveto
            -10 hlineto
            -7 19 -2 18 19 12 1 12 15 vvcurveto
            58 19 32 10 6 1 rrcurveto
            29 5 10 30 27 vvcurveto
            43 -19 50 -11 36 vhcurveto
            -11 36 -2 36 -11 27 -13 35 -25 118 -21 86 rrcurveto
            return
          </CharString>
          <CharString index="13">
            -14 -12 1 2 -11 hvcurveto
            -3 -1 -2 -2 -2 hhcurveto
            -6 hlineto
            -2 -23 callgsubr
            hvcurveto
            2 -105 rlineto
            -5 -47 0 -47 -51 -37 1 -33 -48 vvcurveto
            -32 -1 -35 -2 -38 vhcurveto
            -4 -14 -7 -13 -3 -22 -19 -3 rlinecurve
            -1 4 -7 -6 rlineto
            -5 -7 -6 -2 -6 hhcurveto
            return
          </CharString>
          <CharString index="14">
            11 11 166 callgsubr
            3 hlineto
            1 7 4 0 3 hhcurveto
            61 -1 12 callsubr
            5 -3 7 -1 3 -3 4 -1 rlinecurve
            -8 -6 -29 -31 -4 1 -35 -40 rlinecurve
            -10 -13 -10 -6 rlineto
            1 vlineto
            -15 -13 -12 -15 -9 0 -9 -16 rlinecurve
            -1 -2 rlineto
            1 vlineto
            -2 -2 -22 20 -3 4 -4 7 -8 5 rlinecurve
            -12 11 -39 callsubr
            -15 14 -52 callsubr
            -4 6 -35 40 0 -2 -32 32 rlinecurve
            -8 6 19 8 rlineto
            -2 42 vlineto
            5 6 0 1 9 hvcurveto
            14 -1 39 callsubr
            return
          </CharString>
          <CharString index="15">
            -94 callgsubr
            hhcurveto
            return
          </CharString>
          <CharString index="16">
            rlineto
            -1 1 0 0 1 return
          </CharString>
          <CharString index="17">
            21 19 6 3 23 hvcurveto
            0 4 -2 8 -3 vhcurveto
            5 35 37 17 31 hhcurveto
            11 6 1 2 1 hvcurveto
            5 5 rlineto
            3 4 3 4 7 hhcurveto
            22 10 49 27 11 hvcurveto
            12 53 0 64 68 52 5 56 56 vvcurveto
            25 -1 24 -2 23 vhcurveto
            -138 -133 rmoveto
            27 1 22 15 16 -1 9 4 vvcurveto
            16 vlineto
            25 6 29 31 vvcurveto
            32 -4 27 -3 23 vhcurveto
            -2 1 0 -1 1 1 1 3 3 8 44 -6 32 hhcurveto
            9 8 1 2 5 hvcurveto
            3 -88 5 -99 -104 vvcurveto
            -104 -3 -158 -30 -32 vhcurveto
            -4 -5 -9 -1 -7 -5 -29 -24 20 -8 -85 -21 rrcurveto
            -16 -78 -4 -4 -26 hhcurveto
            -35 0 23 24 19 1 17 3 19 hvcurveto
            41 19 82 -5 25 33 8 13 -6 21 16 13 rrcurveto
            -4 11 0 12 13 vvcurveto
            37 1 54 3 73 vhcurveto
            115 353 rmoveto
            -3 7 0 -4 7 vvcurveto
            3 3 12 -5 3 7 rrcurveto
            -3 5 -6 16 15 vvcurveto
            9 2 6 4 4 vhcurveto
            return
          </CharString>
          <CharString index="18">
            0 1 1 1 vhcurveto
            return
          </CharString>
          <CharString index="19">
            -91 callsubr
            hhcurveto
            return
          </CharString>
          <CharString index="20">
            hhcurveto
            -20 hlineto
            -63 -67 -21 -62 -24 hvcurveto
            -32 -47 7 -64 -5 -55 rrcurveto
            -39 -3 -38 -37 vvcurveto
            -13 vlineto
            11 -78 -13 -66 19 -78 rrcurveto
            -53 11 53 -56 56 hhcurveto
            return
          </CharString>
          <CharString index="21">
            1 -82 callgsubr
            1 return
          </CharString>
          <CharString index="22">
            -3 -24 -5 -28 -27 vvcurveto
            -48 21 -18 78 41 12 18 31 3 vhcurveto
            16 4 84 9 vvcurveto
            8 -1 7 -1 8 vhcurveto
            -137 -130 rmoveto
            return
          </CharString>
          <CharString index="23">
            8 10 47 5 21 hhcurveto
            11 19 -4 -3 hvcurveto
            -1 -3 rlineto
            13 14 -20 -8 15 hvcurveto
            8 8 1 13 4 11 rrcurveto
            return
          </CharString>
          <CharString index="24">
            rrcurveto
            -5 9 -3 9 9 vvcurveto
            27 22 23 27 3 vhcurveto
            8 7 -2 11 hhcurveto
            37 3 40 9 28 7 rrcurveto
            5 callsubr
            return
          </CharString>
          <CharString index="25">
            rmoveto
            -2 -28 -28 -1 -28 -56 -55 3 -60 hhcurveto
            -4 2 rlineto
            3 -7 callgsubr
            3 vhcurveto
            -3 10 -1 14 19 vvcurveto
            69 vlineto
            3 5 rlineto
            2 callsubr
            1 vvcurveto
            3 77 0 8 vhcurveto
            -2 hlineto
            14 12 -1 -2 9 hvcurveto
            return
          </CharString>
          <CharString index="26">
            1 0 1 1 hvcurveto
            return
          </CharString>
          <CharString index="27">
            4 2 vlineto
            13 0 8 -50 callgsubr
            1 1 3 vvcurveto
            12 vlineto
            16 1 9 11 vvcurveto
            2 16 rlineto
            -11 -51 rmoveto
            return
          </CharString>
          <CharString index="28">
            3 -85 callgsubr
            return
          </CharString>
          <CharString index="29">
            rmoveto
            -3 31 1 30 -3 27 rrcurveto
            -3 27 -10 23 25 vvcurveto
            6 vlineto
            3 -1 2 -2 1 vhcurveto
            -9 1 15 5 -7 hvcurveto
            return
          </CharString>
          <CharString index="30">
            -1 -82 callgsubr
            -1 vhcurveto
            return
          </CharString>
          <CharString index="31">
            249 rmoveto
            -1 35 34 -5 29 hhcurveto
            25 20 2 15 15 hvcurveto
            -68 callsubr
            return
          </CharString>
          <CharString index="32">
            1 1 -29 callgsubr
            hhcurveto
            return
          </CharString>
          <CharString index="33">
            -25 34 -9 -11 rlineto
            -3 -3 -1 -2 -2 hvcurveto
            -6 -6 return
          </CharString>
          <CharString index="34">
            39 -6 43 39 vvcurveto
            35 2 34 5 33 vhcurveto
            4 16 16 1 19 hhcurveto
            15 15 -1 -1 16 hvcurveto
            -62 vlineto
            -16 1 -23 -31 vvcurveto
            -24 vlineto
            return
          </CharString>
          <CharString index="35">
            6 26 77 79 vvcurveto
            32 -7 25 -23 11 vhcurveto
            13 -113 rmoveto
            -5 -51 -18 -44 -28 -27 rrcurveto
            return
          </CharString>
          <CharString index="36">
            -1 -1 hvcurveto
            return
          </CharString>
          <CharString index="37">
            -57 callgsubr
            -1 -1 -1 -8 return
          </CharString>
          <CharString index="38">
            rlineto
            -60 callgsubr
            return
          </CharString>
          <CharString index="39">
            -34 callsubr
            40 -13 -73 31 -69 hhcurveto
            -73 -63 -22 -19 -19 hvcurveto
            -41 -40 -14 -69 -77 vvcurveto
            -71 vlineto
            -125 66 -103 139 65 68 28 31 29 vhcurveto
            16 19 3 35 35 23 -1 24 20 vvcurveto
            233 callgsubr
            -6 hhcurveto
            -13 -54 -1 5 -35 hvcurveto
            -43 -3 -16 -38 -45 hhcurveto
            -68 15 85 52 -16 hvcurveto
            -7 13 13 -2 12 11 11 2 9 7 8 -4 7 hhcurveto
            -87 34 rmoveto
            -6 -3 -4 -3 -3 -26 callgsubr
            hhcurveto
            return
          </CharString>
          <CharString index="40">
            -1 -39 callgsubr
            -2 vhcurveto
            -2 return
          </CharString>
          <CharString index="41">
            -13 21 -41 40 -32 5 rrcurveto
            36 -230 rmoveto
            -42 -29 -46 -21 -63 hhcurveto
            -76 -95 17 72 -27 hvcurveto
            -7 19 -2 21 -3 27 rrcurveto
            -1 1 3 0 4 hhcurveto
            9 hlineto
            28 27 6 24 hhcurveto
            13 14 -1 -7 12 hvcurveto
            11 -7 2 -11 8 -9 rrcurveto
            -16 12 25 -13 27 hhcurveto
            29 38 30 53 67 -119 4 -65 27 hvcurveto
            -20 8 rlineto
            -44 15 -30 19 56 vvcurveto
            37 13 12 24 24 vhcurveto
            50 50 39 1 53 16 rrcurveto
            1 1 3 0 6 17 16 -10 23 hhcurveto
            15 hlineto
            return
          </CharString>
          <CharString index="42">
            229 callgsubr
            -8 -30 -1 189 callsubr
            -13 -30 -14 vvcurveto
            return
          </CharString>
          <CharString index="43">
            -3 0 1 -1 hvcurveto
            return
          </CharString>
          <CharString index="44">
            17 vvcurveto
            34 vlineto
            17 -1 16 -2 16 vhcurveto
            5 -11 -16 2 -20 hhcurveto
            -33 -34 -7 -4 -23 hvcurveto
            return
          </CharString>
          <CharString index="45">
            -68 callgsubr
            -1 return
          </CharString>
          <CharString index="46">
            -56 callsubr
            vvcurveto
            return
          </CharString>
          <CharString index="47">
            rlineto
            -58 callsubr
            return
          </CharString>
          <CharString index="48">
            5 0 3 1 1 vhcurveto
            return
          </CharString>
          <CharString index="49">
            1 1 1 1 1 return
          </CharString>
          <CharString index="50">
            vvcurveto
            -58 callgsubr
            return
          </CharString>
          <CharString index="51">
            1 1 0 1 3 return
          </CharString>
          <CharString index="52">
            -12 9 -1 27 21 vvcurveto
            28 6 33 3 32 vhcurveto
            3 76 0 75 7 60 rrcurveto
            -9 return
          </CharString>
          <CharString index="53">
            3 1 3 3 4 5 rlinecurve
            9 8 9 -7 rlineto
            return
          </CharString>
          <CharString index="54">
            772 rmoveto
            -13 13 -32 29 -1 205 callsubr
            -4 5 1 11 -10 -4 -1 2 rlineto
            -1 vlineto
            -3 4 rlineto
            -92 callsubr
            -4 3 14 callsubr
            -4 3 -103 callgsubr
            return
          </CharString>
          <CharString index="55">
            rlineto
            -2 hlineto
            return
          </CharString>
          <CharString index="56">
            36 callgsubr
            4 1 rlineto
            return
          </CharString>
          <CharString index="57">
            1 -89 callsubr
            return
          </CharString>
          <CharString index="58">
            12 17 9 20 23 vvcurveto
            7 17 11 19 7 19 31 48 rcurveline
            16 5 15 8 15 7 rrcurveto
            -1 1 2 0 5 hhcurveto
            9 7 2 5 5 hvcurveto
            32 -2 -29 -89 -38 -85 -39 -85 rlinecurve
            return
          </CharString>
          <CharString index="59">
            -1 0 1 -1 hvcurveto
            return
          </CharString>
          <CharString index="60">
            -91 callsubr
            vvcurveto
            return
          </CharString>
          <CharString index="61">
            rlinecurve
            -3 -2 -36 -4 rlineto
            -9 -6 1 4 -19 hvcurveto
            8 -45 12 59 -56 hhcurveto
            -24 -37 -7 -53 116 callgsubr
            hvcurveto
            return
          </CharString>
          <CharString index="62">
            -94 callgsubr
            vvcurveto
            -3 0 -2 return
          </CharString>
          <CharString index="63">
            1 -31 callgsubr
            return
          </CharString>
          <CharString index="64">
            rlineto
            -53 callgsubr
            return
          </CharString>
          <CharString index="65">
            -43 callsubr
            vvcurveto
            return
          </CharString>
          <CharString index="66">
            -1 0 -1 1 vhcurveto
            return
          </CharString>
          <CharString index="67">
            0 -3 -1 -1 vhcurveto
            return
          </CharString>
          <CharString index="68">
            rlineto
            -2 vlineto
            return
          </CharString>
          <CharString index="69">
            3 -57 callsubr
            return
          </CharString>
          <CharString index="70">
            -1 -48 callsubr
            return
          </CharString>
          <CharString index="71">
            -8 -129 -7 -132 -121 vvcurveto
            -36 vlineto
            -15 1 -14 4 vhcurveto
            return
          </CharString>
          <CharString index="72">
            rlineto
            -37 callgsubr
            return
          </CharString>
          <CharString index="73">
            3 9 1 13 17 vvcurveto
            35 -8 35 -5 31 vhcurveto
            -12 7 2 20 -7 15 rrcurveto
            return
          </CharString>
          <CharString index="74">
            rlineto
            -1 0 -71 callsubr
            return
          </CharString>
          <CharString index="75">
            -42 callsubr
            -1 return
          </CharString>
          <CharString index="76">
            hhcurveto
            -1 vlineto
            -25 callsubr
            return
          </CharString>
          <CharString index="77">
            0 -1 1 -1 vhcurveto
            return
          </CharString>
          <CharString index="78">
            -92 callsubr
            -2 return
          </CharString>
          <CharString index="79">
            -77 callgsubr
            -2 return
          </CharString>
          <CharString index="80">
            -96 callgsubr
            hhcurveto
            return
          </CharString>
          <CharString index="81">
            -3 1 -3 -3 vvcurveto
            -15 -5 -19 -1 -9 151 callsubr
            3 3 3 4 hhcurveto
            -1 0 0 1 vhcurveto
            1 -39 callgsubr
            hhcurveto
            -58 callgsubr
            3 -2 0 3 vvcurveto
            17 17 32 24 80 hhcurveto
            93 24 -134 -191 hvcurveto
            -18 vlineto
            -7 0 -4 -1 -7 vhcurveto
            endchar
          </CharString>
          <CharString index="82">
            1 1 1 3 hhcurveto
            return
          </CharString>
          <CharString index="83">
            -20 21 -20 hstemhm
            return
          </CharString>
          <CharString index="84">
            12 13 -1 -7 12 hvcurveto
            5 25 7 30 33 vvcurveto
            18 vlineto
            3 56 8 70 60 vvcurveto
            91 -7 131 -92 vhcurveto
            -13 -14 -2 -13 -11 -7 3 -7 hhcurveto
            -16 -12 -10 -7 -15 hvcurveto
            -13 -7 -15 -2 -11 -7 rrcurveto
            -4 -7 -3 -8 -9 hhcurveto
            3 vlineto
            3 9 0 26 7 15 rrcurveto
            return
          </CharString>
          <CharString index="85">
            3 -1 rlineto
            -7 hlineto
            -1 -3 1 -3 hhcurveto
            -31 -15 -12 -24 hvcurveto
            -7 vlineto
            -4 -1 -2 -3 vvcurveto
            -11 vlineto
            6 -17 -11 -27 39 -8 rrcurveto
            7 5 1 3 hhcurveto
            18 hlineto
            11 1 9 1 13 7 rrcurveto
            3 vlineto
            15 15 -1 27 21 vvcurveto
            9 -2 6 -5 5 vhcurveto
            -6 -3 rmoveto
            return
          </CharString>
          <CharString index="86">
            36 1 42 31 vvcurveto
            21 -1 12 -2 4 vhcurveto
            -121 1 -4 4 rlineto
            return
          </CharString>
          <CharString index="87">
            56 -1 21 -21 145 215 136 -25 25 return
          </CharString>
          <CharString index="88">
            -33 callsubr
            -4 return
          </CharString>
          <CharString index="89">
            4 -85 callgsubr
            return
          </CharString>
          <CharString index="90">
            204 callgsubr
            vvcurveto
            return
          </CharString>
          <CharString index="91">
            rmoveto
            64 callsubr
            -1 -33 -19 0 -5 -15 -22 6 -19 hhcurveto
            -7 -5 -1 -2 -4 hvcurveto
            1 -5 1 -6 -5 vvcurveto
            -49 vlineto
            return
          </CharString>
          <CharString index="92">
            1 1 vhcurveto
            -1 7 return
          </CharString>
          <CharString index="93">
            61 3 20 -20 136 -118 -21 398 162 -21 151 return
          </CharString>
          <CharString index="94">
            -1 26 callgsubr
            return
          </CharString>
          <CharString index="95">
            rlineto
            -61 callsubr
            return
          </CharString>
          <CharString index="96">
            -37 -31 17 -43 hhcurveto
            47 9 43 49 20 -1 20 23 19 1 17 17 41 -4 41 41 vvcurveto
            27 1 24 11 27 vhcurveto
            -7 4 -5 -3 -3 hvcurveto
            -1 1 0 2 1 60 callgsubr
            8 0 11 13 vhcurveto
            35 32 -4 36 hhcurveto
            return
          </CharString>
          <CharString index="97">
            vlineto
            -75 callsubr
            3 return
          </CharString>
          <CharString index="98">
            35 callsubr
            vvcurveto
            return
          </CharString>
          <CharString index="99">
            rlineto
            -1 1 0 2 return
          </CharString>
          <CharString index="100">
            173 504 rmoveto
            2 2 rlineto
            1 -1 0 -1 -4 -9 -3 -1 vhcurveto
            -3 -6 1 -8 -16 -47 -9 -23 -13 -9 1 -5 hhcurveto
            -7 -4 -2 -5 -2 hvcurveto
            3 -5 8 4 3 -5 rrcurveto
            -1 -7 -1 -5 -7 -23 6 -18 -23 vvcurveto
            -13 -1 return
          </CharString>
          <CharString index="101">
            4 0 5 return
          </CharString>
          <CharString index="102">
            27 20 -28 29 hhcurveto
            32 23 -47 -40 -19 -21 -4 -19 -44 -52 0 45 -16 hvcurveto
            11 -15 -28 14 -25 hhcurveto
            -21 -18 -12 -35 -39 26 -32 21 -11 hvcurveto
            43 -21 61 7 43 -24 rrcurveto
            24 -13 35 -44 -32 vvcurveto
            -47 -33 -52 -13 -21 vhcurveto
            return
          </CharString>
          <CharString index="103">
            -1 0 0 1 vhcurveto
            -1 return
          </CharString>
          <CharString index="104">
            3 27 callsubr
            return
          </CharString>
          <CharString index="105">
            -1 0 1 1 hvcurveto
            return
          </CharString>
          <CharString index="106">
            rmoveto
            -81 callgsubr
            return
          </CharString>
          <CharString index="107">
            -3 -62 callsubr
            return
          </CharString>
          <CharString index="108">
            vvcurveto
            -3 callgsubr
            return
          </CharString>
          <CharString index="109">
            10 callgsubr
            2 return
          </CharString>
          <CharString index="110">
            -2 1 -3 return
          </CharString>
          <CharString index="111">
            -43 -36 6 1 -41 hvcurveto
            -8 8 3 -8 vvcurveto
            15 -9 rmoveto
            -1 1 6 0 9 hhcurveto
            8 53 2 5 hvcurveto
            3 -1 0 3 vvcurveto
            4 hlineto
            11 12 -2 -3 4 hvcurveto
            -1 -1 0 -5 -9 vvcurveto
            -32 7 -33 3 -32 vhcurveto
            return
          </CharString>
          <CharString index="112">
            -3 17 0 17 -63 callsubr
            return
          </CharString>
          <CharString index="113">
            31 callsubr
            -1 return
          </CharString>
          <CharString index="114">
            -2 -5 154 callgsubr
            return
          </CharString>
          <CharString index="115">
            1 66 callsubr
            return
          </CharString>
          <CharString index="116">
            1 28 callsubr
            1 return
          </CharString>
          <CharString index="117">
            -6 -47 rlineto
            -1 103 callgsubr
            -4 -40 165 callsubr
            -4 vvcurveto
            1 -9 rlineto
            -1 hlineto
            1 -3 rlineto
            -1 hlineto
            -45 callsubr
            1 -2 vhcurveto
            6 -40 3 -3 -2 -3 1 -3 rlinecurve
            return
          </CharString>
          <CharString index="118">
            hlineto
            -61 callsubr
            return
          </CharString>
          <CharString index="119">
            rlineto
            2 vlineto
            return
          </CharString>
          <CharString index="120">
            -3 3 rlineto
            -3 hlineto
            -4 -14 -8 -9 hhcurveto
            -4 1 -7 -5 1 -1 -2 -4 -12 -2 rlineto
            198 -10 rmoveto
            return
          </CharString>
          <CharString index="121">
            rlineto
            2 hlineto
            return
          </CharString>
          <CharString index="122">
            -1 7 rlineto
            189 callgsubr
            -6 hhcurveto
            -3 -1 0 -71 callsubr
            -36 hlineto
            return
          </CharString>
          <CharString index="123">
            1 0 0 1 vvcurveto
            -1 hlineto
            return
          </CharString>
          <CharString index="124">
            rlineto
            -3 -55 callgsubr
            return
          </CharString>
          <CharString index="125">
            0 -4 -1 -1 vhcurveto
            return
          </CharString>
          <CharString index="126">
            rlineto
            3 0 -1 3 return
          </CharString>
          <CharString index="127">
            rmoveto
            -1 35 34 -5 29 hhcurveto
            25 20 2 15 15 hvcurveto
            return
          </CharString>
          <CharString index="128">
            -7 callgsubr
            -3 return
          </CharString>
          <CharString index="129">
            9 -3 rlineto
            -27 27 -10 3 9 hhcurveto
            4 -2 4 -7 9 9 rlineto
            4 1 2 13 13 hvcurveto
            endchar
          </CharString>
          <CharString index="130">
            hhcurveto
            17 -5 rlineto
            1 1 -51 callgsubr
            hhcurveto
            -1 vlineto
            118 callgsubr
            8 -1 rlineto
            1 vlineto
            2 -1 rlineto
            1 -19 callgsubr
            22 7 179 callsubr
            1 return
          </CharString>
          <CharString index="131">
            -12 callsubr
            -1 hlineto
            return
          </CharString>
          <CharString index="132">
            73 callgsubr
            1 -2 vhcurveto
            return
          </CharString>
          <CharString index="133">
            -1 0 -1 -1 vvcurveto
            return
          </CharString>
          <CharString index="134">
            -1 -2 2 hvcurveto
            return
          </CharString>
          <CharString index="135">
            1 rlineto
            -1 return
          </CharString>
          <CharString index="136">
            20 -7 128 -12 155 -15 139 -21 21 return
          </CharString>
          <CharString index="137">
            rlineto
            55 callsubr
            return
          </CharString>
          <CharString index="138">
            rlineto
            -13 callgsubr
            return
          </CharString>
          <CharString index="139">
            94 callsubr
            0 return
          </CharString>
          <CharString index="140">
            -1 -1 -2 0 -5 hhcurveto
            return
          </CharString>
          <CharString index="141">
            rlineto
            105 callgsubr
            return
          </CharString>
          <CharString index="142">
            3 -51 callgsubr
            return
          </CharString>
          <CharString index="143">
            -1 -7 hhcurveto
            return
          </CharString>
          <CharString index="144">
            -1 -1 5 return
          </CharString>
          <CharString index="145">
            -113 -9 -107 -4 -121 vhcurveto
            4 2 rlineto
            return
          </CharString>
          <CharString index="146">
            rlineto
            8 callgsubr
            return
          </CharString>
          <CharString index="147">
            16 -19 4 -21 -23 vvcurveto
            -214 -55 8 -92 -11 vhcurveto
            -35 -17 -1 -39 hhcurveto
            -101 13 23 79 -11 60 rrcurveto
            23 2 15 23 vvcurveto
            6 28 -9 26 26 23 rrcurveto
            return
          </CharString>
          <CharString index="148">
            hhcurveto
            9 callsubr
            return
          </CharString>
          <CharString index="149">
            -10 hlineto
            3 -1 1 5 -5 hhcurveto
            -1 hlineto
            -1 -11 -24 -10 1 vhcurveto
            -8 9 6 1 -7 vhcurveto
            1 -13 1 -12 -13 vvcurveto
            -35 vlineto
            -72 -6 -65 -69 vvcurveto
            return
          </CharString>
          <CharString index="150">
            -21 -7 -20 -25 58 callsubr
            return
          </CharString>
          <CharString index="151">
            1 -7 -5 1 -7 -25 -28 -8 -28 hhcurveto
            -15 -12 2 3 -13 hvcurveto
            -9 -7 -2 -6 -8 vvcurveto
            -5 1 -7 1 -7 vhcurveto
            -27 -5 -30 -1 -32 vhcurveto
            return
          </CharString>
          <CharString index="152">
            -1 -1 88 callsubr
            return
          </CharString>
          <CharString index="153">
            31 callsubr
            -2 return
          </CharString>
          <CharString index="154">
            -2 -19 callgsubr
            return
          </CharString>
          <CharString index="155">
            -77 callgsubr
            -1 return
          </CharString>
          <CharString index="156">
            -33 -37 -2 -3 -39 hvcurveto
            1 2 rlineto
            1 -82 callgsubr
            vhcurveto
            -3 hlineto
            -1 0 0 1 hvcurveto
            7 1 4 7 vvcurveto
            11 -1 25 -3 37 vhcurveto
            return
          </CharString>
          <CharString index="157">
            20 callsubr
            -34 callsubr
            return
          </CharString>
          <CharString index="158">
            hhcurveto
            2 vlineto
            33 33 1 33 hhcurveto
            34 2 hlineto
            162 callsubr
            1 -1 32 callgsubr
            1 2 40 1 rlineto
            15 11 return
          </CharString>
          <CharString index="159">
            22 -22 34 86 23 -23 153 -153 159 -16 124 -9 25 return
          </CharString>
          <CharString index="160">
            rcurveline
            -1 67 callsubr
            return
          </CharString>
          <CharString index="161">
            hvcurveto
            55 callgsubr
            rrcurveto
            56 callsubr
            return
          </CharString>
          <CharString index="162">
            1 -34 callgsubr
            return
          </CharString>
          <CharString index="163">
            -109 -16 -91 -104 -10 callgsubr
            return
          </CharString>
          <CharString index="164">
            32 -4 33 39 vhcurveto
            17 hlineto
            3 -2 callgsubr
            9 callgsubr
            1 hlineto
            13 -4 15 1 4 -11 rrcurveto
            return
          </CharString>
          <CharString index="165">
            -35 4 -33 -35 44 callgsubr
            return
          </CharString>
          <CharString index="166">
            vhcurveto
            -1 -55 callgsubr
            return
          </CharString>
          <CharString index="167">
            rlineto
            -1 0 0 1 -1 vhcurveto
            return
          </CharString>
          <CharString index="168">
            rlineto
            -17 callgsubr
            return
          </CharString>
          <CharString index="169">
            rlineto
            -46 callgsubr
            return
          </CharString>
          <CharString index="170">
            5 115 callsubr
            return
          </CharString>
          <CharString index="171">
            -23 callgsubr
            0 -5 hhcurveto
            return
          </CharString>
          <CharString index="172">
            -53 callgsubr
            hhcurveto
            return
          </CharString>
          <CharString index="173">
            1 0 2 3 vvcurveto
            return
          </CharString>
          <CharString index="174">
            -1 0 -1 -2 vvcurveto
            return
          </CharString>
          <CharString index="175">
            rmoveto
            -8 vlineto
            -5 -20 -3 -26 -1 -3 -5 -18 rcurveline
            65 callgsubr
            -1 -4 rlineto
            -3 -2 0 -3 vvcurveto
            return
          </CharString>
          <CharString index="176">
            rmoveto
            1 -14 rlineto
            -15 4 3 -7 3 hhcurveto
            1 0 0 1 hvcurveto
            10 -28 35 -113 -9 0 42 -42 rlinecurve
            return
          </CharString>
          <CharString index="177">
            -1 -2 -1 -4 -1 return
          </CharString>
          <CharString index="178">
            -3 -1 -1 -1 hhcurveto
            return
          </CharString>
          <CharString index="179">
            -7 -8 -1 -15 hhcurveto
            return
          </CharString>
          <CharString index="180">
            1 0 1 2 vvcurveto
            return
          </CharString>
          <CharString index="181">
            5 1 23 callgsubr
            return
          </CharString>
          <CharString index="182">
            7 7 -1 7 hhcurveto
            1 vlineto
            4 1 4 -2 -11 callgsubr
            1 rcurveline
            -5 11 callsubr
            return
          </CharString>
          <CharString index="183">
            11 vvcurveto
            -15 -7 -22 -3 -21 hhcurveto
            -19 hlineto
            -1 19 -3 20 23 vvcurveto
            14 2 15 4 16 vhcurveto
            -1 15 return
          </CharString>
          <CharString index="184">
            461 248 -226 -21 hstemhm
            hintmask 10000000
            return
          </CharString>
          <CharString index="185">
            140 -25 25 131 21 -21 124 return
          </CharString>
          <CharString index="186">
            115 callgsubr
            hhcurveto
            return
          </CharString>
          <CharString index="187">
            1 -81 callsubr
            return
          </CharString>
          <CharString index="188">
            2 -78 callgsubr
            return
          </CharString>
          <CharString index="189">
            rlineto
            -1 -1 0 -1 hvcurveto
            return
          </CharString>
          <CharString index="190">
            11 7 -1 11 hhcurveto
            6 vlineto
            23 -4 27 -1 27 vhcurveto
            return
          </CharString>
          <CharString index="191">
            -8 34 -15 -21 25 -21 27 -21 return
          </CharString>
          <CharString index="192">
            90 callsubr
            2 return
          </CharString>
          <CharString index="193">
            1 25 -25 161 -144 -21 return
          </CharString>
          <CharString index="194">
            31 callgsubr
            vhcurveto
            return
          </CharString>
          <CharString index="195">
            rlineto
            -3 2 0 1 -1 vhcurveto
            return
          </CharString>
          <CharString index="196">
            hvcurveto
            33 callsubr
            return
          </CharString>
          <CharString index="197">
            -27 callgsubr
            1 return
          </CharString>
          <CharString index="198">
            126 callsubr
            1 return
          </CharString>
          <CharString index="199">
            rlineto
            -1 0 0 -71 callsubr
            return
          </CharString>
          <CharString index="200">
            99 callsubr
            -1 return
          </CharString>
          <CharString index="201">
            -2 -5 rlineto
            -1 -1 return
          </CharString>
          <CharString index="202">
            3 1 1 3 vvcurveto
            return
          </CharString>
          <CharString index="203">
            vhcurveto
            4 7 -2 6 3 7 rrcurveto
            -4 31 25 -2 31 hhcurveto
            -11 vlineto
            -15 -1 -12 -13 vvcurveto
            return
          </CharString>
          <CharString index="204">
            1 -11 -10 1 -12 hhcurveto
            -32 -29 -4 -7 -26 hvcurveto
            return
          </CharString>
          <CharString index="205">
            0 112 callsubr
            1 return
          </CharString>
          <CharString index="206">
            1 -78 callgsubr
            return
          </CharString>
          <CharString index="207">
            rlineto
            -81 callsubr
            return
          </CharString>
          <CharString index="208">
            -21 205 callgsubr
            return
          </CharString>
          <CharString index="209">
            vhcurveto
            -2 vlineto
            1 1 return
          </CharString>
          <CharString index="210">
            -1 -1 vvcurveto
            -1 hlineto
            return
          </CharString>
          <CharString index="211">
            -1 0 -1 -3 vvcurveto
            return
          </CharString>
          <CharString index="212">
            rlineto
            -77 callsubr
            -25 callgsubr
            -1 -1 -71 callsubr
            -2 -1 rlineto
            return
          </CharString>
          <CharString index="213">
            174 -20 hstemhm
            return
          </CharString>
          <CharString index="214">
            -1 2 -44 1 rlineto
            156 callsubr
            -28 -2 rlineto
            -4 -13 1 -9 hhcurveto
            return
          </CharString>
          <CharString index="215">
            rmoveto
            -11 16 -23 12 -21 4 -37 1 rcurveline
            -47 1 -27 -18 -11 -49 rrcurveto
            -37 vlineto
            return
          </CharString>
          <CharString index="216">
            146 -39 39 -24 24 -24 135 2 37 return
          </CharString>
          <CharString index="217">
            vlineto
            -5 0 -3 1 -1 vhcurveto
            return
          </CharString>
          <CharString index="218">
            -92 callsubr
            1 return
          </CharString>
          <CharString index="219">
            -40 callgsubr
            1 1 return
          </CharString>
          <CharString index="220">
            vvcurveto
            -27 callgsubr
            return
          </CharString>
          <CharString index="221">
            2 hlineto
            1 1 0 1 1 return
          </CharString>
          <CharString index="222">
            3 0 1 1 hvcurveto
            return
          </CharString>
          <CharString index="223">
            hvcurveto
            -2 28 callsubr
            return
          </CharString>
          <CharString index="224">
            -29 callgsubr
            1 hvcurveto
            return
          </CharString>
          <CharString index="225">
            1 2 0 4 return
          </CharString>
          <CharString index="226">
            -59 callgsubr
            6 28 callsubr
            2 -45 callgsubr
            25 -1 rlineto
            return
          </CharString>
          <CharString index="227">
            vlineto
            1 -1 0 -3 -6 -7 -1 -7 -7 vvcurveto
            -10 vlineto
            -1 -1 0 -2 -3 return
          </CharString>
          <CharString index="228">
            36 8 138 -132 -21 25 -21 24 -21 132 22 -22 218 -9 return
          </CharString>
          <CharString index="229">
            1 150 callsubr
            return
          </CharString>
          <CharString index="230">
            5 0 3 -1 1 vhcurveto
            return
          </CharString>
          <CharString index="231">
            1 134 callgsubr
            return
          </CharString>
          <CharString index="232">
            -1 -1 -1 0 -1 hhcurveto
            return
          </CharString>
          <CharString index="233">
            1 hlineto
            1 -82 callgsubr
            return
          </CharString>
          <CharString index="234">
            -1 -39 callsubr
            return
          </CharString>
          <CharString index="235">
            5 -5 -7 7 hhcurveto
            8 3 29 9 hvcurveto
            25 -7 28 25 vvcurveto
            15 1 return
          </CharString>
          <CharString index="236">
            -15 -9 -16 -6 -16 hhcurveto
            -28 -59 18 46 hvcurveto
            7 2 6 8 15 -3 return
          </CharString>
          <CharString index="237">
            rmoveto
            144 callsubr
            return
          </CharString>
          <CharString index="238">
            129 -23 23 -23 172 -16 141 return
          </CharString>
          <CharString index="239">
            -1 1 0 1 vhcurveto
            return
          </CharString>
          <CharString index="240">
            -1 -23 callgsubr
            hhcurveto
            return
          </CharString>
          <CharString index="241">
            1 3 0 5 hhcurveto
            return
          </CharString>
          <CharString index="242">
            -1 -5 -3 vvcurveto
            return
          </CharString>
          <CharString index="243">
            41 callsubr
            5 0 8 11 9 1 11 hhcurveto
            hintmask 10010101
            return
          </CharString>
          <CharString index="244">
            2 1 0 1 hvcurveto
            7 -5 12 5 7 3 6 -2 7 1 rlinecurve
            return
          </CharString>
          <CharString index="245">
            5 28 callsubr
            return
          </CharString>
          <CharString index="246">
            65 0 21 -21 145 -11 78 256 20 56 25 106 23 return
          </CharString>
          <CharString index="247">
            -1 41 rlineto
            5 0 3 167 callsubr
            hlineto
            16 hlineto
            9 hlineto
            return
          </CharString>
          <CharString index="248">
            30 -9 23 -13 -21 23 3 callgsubr
            35 -21 333 167 return
          </CharString>
          <CharString index="249">
            174 callsubr
            -15 -3 return
          </CharString>
          <CharString index="250">
            0 1 1 hvcurveto
            -1 1 0 0 1 return
          </CharString>
          <CharString index="251">
            -1 -24 rlineto
            -6 18 callsubr
            return
          </CharString>
          <CharString index="252">
            81 callgsubr
            -1 return
          </CharString>
          <CharString index="253">
            -4 callsubr
            vlineto
            return
          </CharString>
          <CharString index="254">
            rlineto
            1 104 callsubr
            return
          </CharString>
          <CharString index="255">
            hhcurveto
            -46 callgsubr
            return
          </CharString>
          <CharString index="256">
            rlineto
            194 callsubr
            return
          </CharString>
          <CharString index="257">
            -81 callsubr
            2 vlineto
            return
          </CharString>
          <CharString index="258">
            vhcurveto
            -1 1 0 0 1 return
          </CharString>
          <CharString index="259">
            4 21 -10 -21 495 return
          </CharString>
          <CharString index="260">
            1 vlineto
            1 1 1 1 return
          </CharString>
          <CharString index="261">
            3 -39 callgsubr
            hhcurveto
            1 return
          </CharString>
          <CharString index="262">
            1 1 0 2 4 vvcurveto
            return
          </CharString>
          <CharString index="263">
            -5 -3 0 -71 callsubr
            return
          </CharString>
          <CharString index="264">
            1 -58 callsubr
            return
          </CharString>
          <CharString index="265">
            -1 -51 callgsubr
            5 vvcurveto
            return
          </CharString>
          <CharString index="266">
            -5 173 callgsubr
            vhcurveto
            return
          </CharString>
          <CharString index="267">
            183 callsubr
            -2 return
          </CharString>
          <CharString index="268">
            3 107 callgsubr
            return
          </CharString>
          <CharString index="269">
            1 1 0 -1 hvcurveto
            return
          </CharString>
          <CharString index="270">
            rlineto
            -1 -2 -1 -3 return
          </CharString>
          <CharString index="271">
            -3 rlineto
            -1 0 0 return
          </CharString>
          <CharString index="272">
            rlineto
            1 -1 0 -3 return
          </CharString>
          <CharString index="273">
            2 -39 callsubr
            return
          </CharString>
          <CharString index="274">
            1 2 vhcurveto
            1 return
          </CharString>
          <CharString index="275">
            -1 211 callsubr
            19 callsubr
            hhcurveto
            return
          </CharString>
          <CharString index="276">
            1 1 -7 hvcurveto
            return
          </CharString>
          <CharString index="277">
            1 3 5 hvcurveto
            return
          </CharString>
          <CharString index="278">
            rlineto
            5 1 3 return
          </CharString>
          <CharString index="279">
            -1 vlineto
            14 10 return
          </CharString>
          <CharString index="280">
            3 2 7 37 vvcurveto
            2 hlineto
            -3 21 0 25 19 vvcurveto
            return
          </CharString>
          <CharString index="281">
            25 callsubr
            133 callgsubr
            return
          </CharString>
          <CharString index="282">
            6 7 11 11 5 13 3 3 -3 0 3 3 rlinecurve
            return
          </CharString>
          <CharString index="283">
            hlineto
            72 74 2 68 hhcurveto
            48 24 30 59 10 47 rrcurveto
            return
          </CharString>
          <CharString index="284">
            rlineto
            -1 225 callsubr
            -2 return
          </CharString>
          <CharString index="285">
            rlineto
            -1 -55 callgsubr
            -2 return
          </CharString>
          <CharString index="286">
            rlineto
            9 callgsubr
            4 return
          </CharString>
          <CharString index="287">
            1 1 -91 callsubr
            return
          </CharString>
          <CharString index="288">
            114 callgsubr
            3 return
          </CharString>
          <CharString index="289">
            1 1 2 0 5 return
          </CharString>
          <CharString index="290">
            0 -7 callgsubr
            vhcurveto
            return
          </CharString>
          <CharString index="291">
            4 0 1 1 hvcurveto
            return
          </CharString>
          <CharString index="292">
            1 rlineto
            1 hlineto
            4 return
          </CharString>
          <CharString index="293">
            1 -3 1 -7 vhcurveto
            return
          </CharString>
          <CharString index="294">
            1 0 1 1 vhcurveto
            return
          </CharString>
          <CharString index="295">
            5 12 callsubr
            return
          </CharString>
          <CharString index="296">
            hhcurveto
            -3 vlineto
            1 return
          </CharString>
          <CharString index="297">
            1 -1 2 1 return
          </CharString>
          <CharString index="298">
            5 1 4 hhcurveto
            return
          </CharString>
          <CharString index="299">
            -12 -11 5 -8 hhcurveto
            -34 -3 30 -6 -99 -3 rrcurveto
            return
          </CharString>
          <CharString index="300">
            40 64 2 94 80 vvcurveto
            27 -1 24 -3 27 vhcurveto
            return
          </CharString>
          <CharString index="301">
            -1 226 callgsubr
            return
          </CharString>
          <CharString index="302">
            -1 1 0 2 5 vvcurveto
            return
          </CharString>
          <CharString index="303">
            6 0 4 -1 1 vhcurveto
            return
          </CharString>
          <CharString index="304">
            29 98 26 -26 151 return
          </CharString>
          <CharString index="305">
            -1 3 -3 -7 vhcurveto
            3 return
          </CharString>
          <CharString index="306">
            1 vlineto
            1 0 0 1 return
          </CharString>
          <CharString index="307">
            vlineto
            -1 0 -1 -1 vhcurveto
            return
          </CharString>
          <CharString index="308">
            -1 34 callsubr
            return
          </CharString>
          <CharString index="309">
            7 1 7 hhcurveto
            return
          </CharString>
          <CharString index="310">
            0 -1 -2 hvcurveto
            return
          </CharString>
          <CharString index="311">
            1 3 -1 5 return
          </CharString>
          <CharString index="312">
            -1 -32 40 rlinecurve
            return
          </CharString>
          <CharString index="313">
            -1 0 -3 -5 return
          </CharString>
          <CharString index="314">
            -13 -21 -20 -10 3 -9 -7 -8 -1 -8 hhcurveto
            return
          </CharString>
          <CharString index="315">
            rmoveto
            -21 103 -49 128 -105 22 rrcurveto
            -21 hlineto
            return
          </CharString>
          <CharString index="316">
            -58 callgsubr
            2 return
          </CharString>
          <CharString index="317">
            vlineto
            -46 callgsubr
            return
          </CharString>
          <CharString index="318">
            1 0 0 1 hhcurveto
            1 1 return
          </CharString>
          <CharString index="319">
            71 callsubr
            -20 18 return
          </CharString>
          <CharString index="320">
            0 2 hhcurveto
            1 -82 callgsubr
            return
          </CharString>
          <CharString index="321">
            -1 0 0 1 -1 vhcurveto
            -1 return
          </CharString>
          <CharString index="322">
            100 callsubr
            1 return
          </CharString>
          <CharString index="323">
            hlineto
            55 callsubr
            return
          </CharString>
          <CharString index="324">
            rlineto
            -1 67 callsubr
            return
          </CharString>
          <CharString index="325">
            rlineto
            -36 callgsubr
            return
          </CharString>
          <CharString index="326">
            -1 1 1 0 2 hhcurveto
            5 return
          </CharString>
          <CharString index="327">
            -1 1 4 0 7 return
          </CharString>
          <CharString index="328">
            -1 -1 vhcurveto
            -1 -3 return
          </CharString>
          <CharString index="329">
            -13 107 3 -20 hstemhm
            return
          </CharString>
          <CharString index="330">
            1 4 1 5 vhcurveto
            return
          </CharString>
          <CharString index="331">
            1 vvcurveto
            1 1 rlineto
            return
          </CharString>
          <CharString index="332">
            -1 -2 -1 -1 vhcurveto
            return
          </CharString>
          <CharString index="333">
            8 9 -3 9 hhcurveto
            return
          </CharString>
          <CharString index="334">
            -2 -2 rlineto
            -1 return
          </CharString>
          <CharString index="335">
            -7 -1 -6 -7 return
          </CharString>
          <CharString index="336">
            1 3 rlineto
            3 return
          </CharString>
          <CharString index="337">
            4 0 7 hhcurveto
            return
          </CharString>
          <CharString index="338">
            5 vvcurveto
            12 vlineto
            return
          </CharString>
          <CharString index="339">
            173 -20 hstemhm
            return
          </CharString>
          <CharString index="340">
            rlineto
            -1 -1 -1 0 -2 hhcurveto
            -3 -1 rlineto
            return
          </CharString>
          <CharString index="341">
            rlineto
            6 0 3 1 1 vhcurveto
            2 13 rlineto
            return
          </CharString>
          <CharString index="342">
            -6 0 -4 -1 return
          </CharString>
          <CharString index="343">
            hhcurveto
            -3 1 rlineto
            return
          </CharString>
          <CharString index="344">
            2 3 -3 hvcurveto
            return
          </CharString>
          <CharString index="345">
            -3 0 -3 -1 return
          </CharString>
          <CharString index="346">
            1 7 1 3 return
          </CharString>
          <CharString index="347">
            -7 vvcurveto
            -13 -1 return
          </CharString>
        <CharString name=".notdef">
          -182 endchar
        </CharString>
        <CharString name=".null">
          -420 endchar
        </CharString>
        <CharString name="A">
          14 16 -21 24 -21 710 -20 hstemhm
          hintmask 01100000
          421 35 rmoveto
          -13 31 -4 45 -7 33 rrcurveto
          3 1 1 3 vhcurveto
          -1 5 2 6 -7 3 -8 23 5 28 -11 21 -4 40 -12 43 -7 40 -15 40 -3 45 -12 41 rrcurveto
          3 1 1 1 -57 callsubr
          11 -12 7 13 vvcurveto
          -11 64 -15 59 -16 64 rrcurveto
          -16 -17 -4 -55 hhcurveto
          -17 hlineto
          -23 -16 -25 -53 -3 -29 3 -6 callsubr
          3 3 -15 -76 -18 -72 -19 -76 rrcurveto
          12 vlineto
          1 2 0 3 5 vvcurveto
          -29 -117 -19 -133 -23 -117 rrcurveto
          59 16 20 131 8 hhcurveto
          -9 -64 -16 -78 -11 -64 rrcurveto
          -1 -5 -6 -4 -4 vvcurveto
          82 callgsubr
          -4 -6 rlineto
          -3 -8 0 5 -3 vvcurveto
          -3 4 2 1 -3 vhcurveto
          32 4 36 -2 33 1 2 -2 rcurveline
          1 118 callsubr
          7 8 -3 7 hhcurveto
          5 5 2 3 3 hvcurveto
          31 136 rlineto
          6 3 6 3 9 8 9 -3 8 hhcurveto
          -56 callsubr
          2 0 1 3 vhcurveto
          -13 3 -13 -1 -13 4 15 7 17 -3 16 1 4 -4 rcurveline
          16 -40 19 -68 16 -43 13 -4 22 1 29 -1 rrcurveto
          hintmask 10100000
          -3 49 11 -1 5 hhcurveto
          1 2 2 4 1 hvcurveto
          -4 12 -4 10 -3 12 rrcurveto
          -19 -15 rmoveto
          hintmask 01100000
          -1 -19 -15 0 -13 hhcurveto
          -23 -13 230 callgsubr
          -3 -3 238 callsubr
          rrcurveto
          8 4 vlineto
          -21 32 -9 65 -16 37 2 4 rcurveline
          7 -8 2 -3 3 vhcurveto
          -28 -3 -35 6 -23 -13 5 -8 rcurveline
          -13 -32 -5 -66 -19 -30 -36 -8 -36 -5 -39 -7 -4 2 rcurveline
          13 63 29 76 3 66 -8 -3 3 -8 -5 -7 rrcurveto
          3 vlineto
          9 6 10 11 vvcurveto
          -2 callsubr
          -39 callgsubr
          3 vvcurveto
          7 13 3 23 4 19 rrcurveto
          3 13 18 58 7 vvcurveto
          1 -1 4 -1 7 vhcurveto
          11 15 0 22 3 19 rrcurveto
          -3 hlineto
          24 50 -1 58 19 56 9 28 7 22 4 32 rrcurveto
          1 43 24 0 8 hhcurveto
          -1 -1 -1 -2 -2 vhcurveto
          -1 1 3 -1 3 5 191 callsubr
          6 3 -4 -7 hvcurveto
          5 -37 -1 1 13 -72 18 -64 3 -43 rlinecurve
          2 7 33 callgsubr
          1 -3 67 callgsubr
          hvcurveto
          9 -6 9 11 vvcurveto
          162 callgsubr
          vhcurveto
          -1 5 -1 3 1 vvcurveto
          4 vlineto
          3 -28 20 -30 -31 vvcurveto
          -6 vlineto
          12 -36 4 -46 11 -39 rrcurveto
          -3 -4 0 -3 1 callsubr
          65 callsubr
          -3 5 1 5 -3 7 rrcurveto
          2 3 hlineto
          5 -4 5 -3 4 vhcurveto
          49 -17 -9 24 -1 hhcurveto
          2 -7 rlineto
          24 -100 11 -21 -20 vvcurveto
          -3 vlineto
          -29 38 -83 13 -82 vhcurveto
          5 -30 rlineto
          -186 459 rmoveto
          11 -2 -3 5 -3 hhcurveto
          -4 -2 -11 -5 116 callgsubr
          hvcurveto
          -5 -5 -2 -4 -3 vvcurveto
          -5 vlineto
          -7 -2 -12 -4 -17 vhcurveto
          -15 -60 2 -38 -3 -11 -1 1 53 callsubr
          -4 240 callgsubr
          -7 vvcurveto
          -5 1 -2 3 vhcurveto
          13 hlineto
          15 20 -2 15 4 172 callgsubr
          3 2 -12 40 -2 62 -21 89 rlinecurve
          -4 -21 rmoveto
          24 -41 -5 -98 13 -23 -4 -3 rcurveline
          -57 hlineto
          -4 11 -2 -1 2 4 2 -2 rlineto
          3 16 16 102 16 vvcurveto
          8 vlineto
          11 6 5 3 7 vhcurveto
          21 callsubr
          -3 vvcurveto
          -176 -221 rmoveto
          11 47 4 47 15 47 -7 -44 -7 -51 -11 -45 rrcurveto
          -47 -202 rmoveto
          2 8 rlineto
          -2 -10 rmoveto
          2 vlineto
          endchar
        </CharString>
        <CharString name="AE">
          296 3 137 -121 -21 135 152 -12 149 -9 143 -10 153 5 -20 hstemhm
          419 138 hintmask 10010101
          696 143 rmoveto
          -2 -29 -29 -1 -28 -60 -53 3 -60 hhcurveto
          -4 227 callgsubr
          3 3 vhcurveto
          -4 15 -1 16 17 vvcurveto
          16 0 59 4 -86 callsubr
          vhcurveto
          15 3 7 2 0 vvcurveto
          41 hlineto
          1 3 8 0 13 hhcurveto
          12 12 -2 -1 8 hvcurveto
          46 2 87 -6 vvcurveto
          8 -1 6 -3 5 vhcurveto
          -122 2 -4 4 rlineto
          -1 9 -1 8 11 vvcurveto
          1 23 2 30 19 5 -1 5 3 vvcurveto
          2 4 117 4 rlineto
          4 16 -2 27 hhcurveto
          35 32 3 5 35 hvcurveto
          5 vlineto
          3 0 11 1 19 vhcurveto
          12 vlineto
          20 2 20 20 vvcurveto
          12 -1 12 -2 12 vhcurveto
          hintmask 10010011
          -19 4 -4 -2 rlineto
          hintmask 10010101
          -2 -33 -36 -1 -37 hhcurveto
          hintmask 01101011
          -92 -32 0 5 -5 hvcurveto
          -4 -63 -40 -2 -15 -9 -7 2 -8 -18 -74 -5 -8 hhcurveto
          -37 hlineto
          -23 -28 -155 -152 -37 hvcurveto
          -16 -47 -12 -49 -8 -99 rrcurveto
          -2 vlineto
          -3 -6 -29 -11 -55 vhcurveto
          -11 -53 -5 -27 -3 vvcurveto
          82 callgsubr
          -3 -3 1 -6 -5 -1 rrcurveto
          -13 callgsubr
          -3 5 1 1 -3 vhcurveto
          3 8 7 -1 9 69 37 -3 3 hhcurveto
          hintmask 10010101
          5 5 2 3 3 hvcurveto
          8 36 13 40 11 37 11 25 30 -9 21 3 4 -4 rcurveline
          8 -21 11 -19 12 -19 rrcurveto
          -11 -1 -10 -11 vvcurveto
          -8 1 -8 1 -7 vhcurveto
          -1 -1 0 -2 -2 vvcurveto
          -77 callsubr
          hintmask 01101011
          -8 -2 1 53 -5 vhcurveto
          hintmask 10001011
          24 25 5 23 hhcurveto
          290 hlineto
          7 7 rlineto
          31 4 32 31 vvcurveto
          17 vlineto
          5 -1 5 -1 7 vhcurveto
          -10 -4 rmoveto
          169 callgsubr
          -1 vvcurveto
          -8 vlineto
          -35 -4 -33 -35 vvcurveto
          -63 -1 rlineto
          -1 -47 -50 0 -48 hhcurveto
          -60 hlineto
          1 -7 -8 1 -7 -21 -20 -6 -23 hhcurveto
          -14 -11 1 3 -9 hvcurveto
          -1 vlineto
          -5 -4 1 2 -2 hvcurveto
          -58 callgsubr
          -1 7 -1 5 5 7 1 8 8 vvcurveto
          18 vlineto
          -13 20 -12 20 -8 23 -26 8 rcurveline
          -67 -16 26 37 -30 -92 rrcurveto
          -11 -5 -10 -55 -5 -7 -31 4 -68 hhcurveto
          -3 -4 -1 -1 -7 hvcurveto
          44 304 7 10 88 361 rrcurveto
          34 hlineto
          15 1 -1 16 25 28 6 21 7 6 -2 11 hhcurveto
          15 38 2 4 62 hvcurveto
          -1 5 18 -4 33 hhcurveto
          76 hlineto
          37 36 1 2 33 hvcurveto
          1 hlineto
          11 2 -42 -36 -25 -1 -22 -1 -5 hvcurveto
          -5 -37 -37 -1 -36 hhcurveto
          -14 hlineto
          -5 -4 1 1 -5 hvcurveto
          -128 -4 -2 -29 rlineto
          -23 -2 -20 -23 vvcurveto
          hintmask 10010101
          -11 0 -11 3 -15 vhcurveto
          hintmask 01101011
          9 -9 rlineto
          39 41 -2 39 hhcurveto
          1 206 callsubr
          -69 -2 -19 -27 vvcurveto
          -5 -20 -1 -1 -36 hvcurveto
          -24 1 rlineto
          -10 -11 -1 -2 -13 hvcurveto
          -13 vlineto
          -28 -6 -29 -31 vvcurveto
          1 -47 14 -2 rlineto
          56 55 -4 56 hhcurveto
          31 28 0 5 27 hvcurveto
          -419 147 rmoveto
          -50 172 -18 -43 -12 -52 rlineto
          -10 -14 -8 -48 vvcurveto
          hintmask 10010101
          -25 14 6 65 vhcurveto
          hintmask 01101011
          3 12 rmoveto
          -3 -13 -9 1 -7 -12 -6 1 -7 hhcurveto
          -4 hlineto
          -12 hlineto
          -4 -2 3 5 9 1 6 2 2 hvcurveto
          2 -1 rlineto
          3 5 19 5 21 vhcurveto
          10 41 rlineto
          11 8 7 13 vvcurveto
          3 hlineto
          endchar
        </CharString>
        <CharString name="Aacute">
          93 callgsubr
          74 232 callsubr
          hintmask 01110000
          375 875 rmoveto
          -3 1 -1 1 0 vvcurveto
          -1 0 0 1 hvcurveto
          212 callsubr
          1 6 -74 callsubr
          1 -2 -6 -5 -7 -7 -8 -10 -3 -1 rlinecurve
          -4 -2 rlineto
          -3 -1 -1 -1 -2 vvcurveto
          -4 -2 -19 callsubr
          -2 1 -1 -25 -23 -34 -39 0 0 -32 -30 rlinecurve
          -25 -24 11 -1 9 -11 24 -5 rlineto
          -1 1 2 213 callsubr
          1 hvcurveto
          6 hlineto
          -1 1 2 2 rlineto
          40 hlineto
          -13 callsubr
          5 hlineto
          63 callsubr
          3 1 0 -1 1 hvcurveto
          17 -103 callsubr
          -6 188 callsubr
          -4 1 rlineto
          1 hlineto
          -189 -114 -107 callgsubr
          214 -726 rmoveto
          -13 31 -4 45 -7 33 rrcurveto
          3 1 1 3 vhcurveto
          -1 5 2 6 -7 3 -8 23 5 28 -11 21 -4 40 -12 43 -7 40 -15 40 -3 45 -12 41 rrcurveto
          3 1 1 1 -57 callsubr
          11 -12 7 13 vvcurveto
          -11 64 -15 59 -16 64 rrcurveto
          -16 -17 -4 -55 hhcurveto
          -17 hlineto
          -23 -16 -25 -53 -3 -29 3 -6 callsubr
          3 3 -15 -76 -18 -72 -19 -76 rrcurveto
          12 vlineto
          1 2 0 3 5 vvcurveto
          -29 -117 -19 -133 -23 -117 rrcurveto
          59 16 20 131 8 hhcurveto
          -9 -64 -16 -78 -11 -64 rrcurveto
          -1 -5 -6 -4 -4 vvcurveto
          82 callgsubr
          -4 -6 rlineto
          -3 -8 0 5 -3 vvcurveto
          -3 4 2 1 -3 vhcurveto
          32 4 36 -2 33 1 2 -2 rcurveline
          1 118 callsubr
          7 8 -3 7 hhcurveto
          5 5 2 3 3 hvcurveto
          31 136 rlineto
          6 3 6 3 9 8 9 -3 8 hhcurveto
          -56 callsubr
          2 0 1 3 vhcurveto
          -13 3 -13 -1 -13 4 15 7 17 -3 16 1 4 -4 rcurveline
          16 -40 19 -68 16 -43 13 -4 22 1 29 -1 rrcurveto
          hintmask 10110000
          -3 49 11 -1 5 hhcurveto
          1 2 2 4 1 hvcurveto
          -4 12 -4 10 -3 12 rrcurveto
          -19 -15 rmoveto
          hintmask 01110000
          -1 -19 -15 0 -13 hhcurveto
          -23 -13 230 callgsubr
          -3 -3 238 callsubr
          rrcurveto
          8 4 vlineto
          -21 32 -9 65 -16 37 2 4 rcurveline
          7 -8 2 -3 3 vhcurveto
          -28 -3 -35 6 -23 -13 5 -8 rcurveline
          -13 -32 -5 -66 -19 -30 -36 -8 -36 -5 -39 -7 -4 2 rcurveline
          13 63 29 76 3 66 -8 -3 3 -8 -5 -7 rrcurveto
          3 vlineto
          9 6 10 11 vvcurveto
          -2 callsubr
          -39 callgsubr
          3 vvcurveto
          7 13 3 23 4 19 rrcurveto
          3 13 18 58 7 vvcurveto
          1 -1 4 -1 7 vhcurveto
          11 15 0 22 3 19 rrcurveto
          -3 hlineto
          24 50 -1 58 19 56 9 28 7 22 4 32 rrcurveto
          1 43 24 0 8 hhcurveto
          -1 -1 -1 -2 -2 vhcurveto
          -1 1 3 -1 3 5 191 callsubr
          6 3 -4 -7 hvcurveto
          5 -37 -1 1 13 -72 18 -64 3 -43 rlinecurve
          2 7 33 callgsubr
          1 -3 67 callgsubr
          hvcurveto
          9 -6 9 11 vvcurveto
          162 callgsubr
          vhcurveto
          -1 5 -1 3 1 vvcurveto
          4 vlineto
          3 -28 20 -30 -31 vvcurveto
          -6 vlineto
          12 -36 4 -46 11 -39 rrcurveto
          -3 -4 0 -3 1 callsubr
          65 callsubr
          -3 5 1 5 -3 7 rrcurveto
          2 3 hlineto
          5 -4 5 -3 4 vhcurveto
          49 -17 -9 24 -1 hhcurveto
          2 -7 rlineto
          24 -100 11 -21 -20 vvcurveto
          -3 vlineto
          -29 38 -83 13 -82 vhcurveto
          5 -30 rlineto
          -186 459 rmoveto
          11 -2 -3 5 -3 hhcurveto
          -4 -2 -11 -5 116 callgsubr
          hvcurveto
          -5 -5 -2 -4 -3 vvcurveto
          -5 vlineto
          -7 -2 -12 -4 -17 vhcurveto
          -15 -60 2 -38 -3 -11 -1 1 53 callsubr
          -4 240 callgsubr
          -7 vvcurveto
          -5 1 -2 3 vhcurveto
          13 hlineto
          15 20 -2 15 4 172 callgsubr
          3 2 -12 40 -2 62 -21 89 rlinecurve
          -4 -21 rmoveto
          24 -41 -5 -98 13 -23 -4 -3 rcurveline
          -57 hlineto
          -4 11 -2 -1 2 4 2 -2 rlineto
          3 16 16 102 16 vvcurveto
          8 vlineto
          11 6 5 3 7 vhcurveto
          21 callsubr
          -3 vvcurveto
          -176 -221 rmoveto
          11 47 4 47 15 47 -7 -44 -7 -51 -11 -45 rrcurveto
          -47 -202 rmoveto
          2 8 rlineto
          -2 -10 rmoveto
          2 vlineto
          endchar
        </CharString>
        <CharString name="Acircumflex">
          93 callgsubr
          72 106 callsubr
          hintmask 01110000
          382 -53 callsubr
          -88 callgsubr
          -9 4 1 -11 -4 -5 -32 -40 -2 1 -32 -29 rlinecurve
          -25 -24 11 -2 2 -2 rlineto
          -3 6 -5 3 vhcurveto
          2 1 11 -3 rlineto
          11 -3 6 -2 0 vvcurveto
          14 3 rlineto
          35 0 -2 8 16 callgsubr
          -1 4 11 -1 5 hhcurveto
          3 hlineto
          9 13 -54 callsubr
          -7 13 -10 5 -4 vhcurveto
          6 156 callgsubr
          3 -39 callgsubr
          3 -1 1 3 231 callgsubr
          13 3 2 30 hhcurveto
          13 -3 rlineto
          3 18 8 8 hhcurveto
          4 -1 6 5 -1 -76 callgsubr
          13 3 rlineto
          -199 9 rmoveto
          -11 -11 -52 callsubr
          -7 -64 callsubr
          -2 hlineto
          -1 -7 -4 0 -3 hhcurveto
          -8 hlineto
          1 -1 -11 0 -22 hhcurveto
          -17 -2 hlineto
          -8 3 -5 1 -4 2 -3 1 rlinecurve
          8 8 32 27 0 6 35 37 rlinecurve
          13 14 7 5 rlineto
          172 callsubr
          5 7 7 4 -4 1 15 12 rlinecurve
          12 13 22 -21 rlineto
          -8 6 4 -4 2 hhcurveto
          3 -3 -1 -1 14 -10 12 callsubr
          21 -20 17 -20 9 -9 8 -9 rlinecurve
          41 -40 -20 -7 rlineto
          2 -40 vlineto
          -7 -4 0 -71 callsubr
          -9 hlineto
          -3 -2 0 1 -7 hvcurveto
          -2 hlineto
          -23 callgsubr
          0 -7 hhcurveto
          -2 hlineto
          -8 8 -47 callsubr
          -1 -1 -2 2 2 2 -8 9 rlineto
          3 -4 -3 3 -4 hhcurveto
          -8 8 -9 -8 -4 168 callgsubr
          -12 rlinecurve
          8 vlineto
          221 -745 rmoveto
          -13 31 -4 45 -7 33 rrcurveto
          3 1 1 3 vhcurveto
          -1 5 2 6 -7 3 -8 23 5 28 -11 21 -4 40 -12 43 -7 40 -15 40 -3 45 -12 41 rrcurveto
          3 1 1 1 -57 callsubr
          11 -12 7 13 vvcurveto
          -11 64 -15 59 -16 64 rrcurveto
          -16 -17 -4 -55 hhcurveto
          -17 hlineto
          -23 -16 -25 -53 -3 -29 3 -6 callsubr
          3 3 -15 -76 -18 -72 -19 -76 rrcurveto
          12 vlineto
          1 2 0 3 5 vvcurveto
          -29 -117 -19 -133 -23 -117 rrcurveto
          59 16 20 131 8 hhcurveto
          -9 -64 -16 -78 -11 -64 rrcurveto
          -1 -5 -6 -4 -4 vvcurveto
          82 callgsubr
          -4 -6 rlineto
          -3 -8 0 5 -3 vvcurveto
          -3 4 2 1 -3 vhcurveto
          32 4 36 -2 33 1 2 -2 rcurveline
          1 118 callsubr
          7 8 -3 7 hhcurveto
          5 5 2 3 3 hvcurveto
          31 136 rlineto
          6 3 6 3 9 8 9 -3 8 hhcurveto
          -56 callsubr
          2 0 1 3 vhcurveto
          -13 3 -13 -1 -13 4 15 7 17 -3 16 1 4 -4 rcurveline
          16 -40 19 -68 16 -43 13 -4 22 1 29 -1 rrcurveto
          hintmask 10110000
          -3 49 11 -1 5 hhcurveto
          1 2 2 4 1 hvcurveto
          -4 12 -4 10 -3 12 rrcurveto
          -19 -15 rmoveto
          hintmask 01110000
          -1 -19 -15 0 -13 hhcurveto
          -23 -13 230 callgsubr
          -3 -3 238 callsubr
          rrcurveto
          8 4 vlineto
          -21 32 -9 65 -16 37 2 4 rcurveline
          7 -8 2 -3 3 vhcurveto
          -28 -3 -35 6 -23 -13 5 -8 rcurveline
          -13 -32 -5 -66 -19 -30 -36 -8 -36 -5 -39 -7 -4 2 rcurveline
          13 63 29 76 3 66 -8 -3 3 -8 -5 -7 rrcurveto
          3 vlineto
          9 6 10 11 vvcurveto
          -2 callsubr
          -39 callgsubr
          3 vvcurveto
          7 13 3 23 4 19 rrcurveto
          3 13 18 58 7 vvcurveto
          1 -1 4 -1 7 vhcurveto
          11 15 0 22 3 19 rrcurveto
          -3 hlineto
          24 50 -1 58 19 56 9 28 7 22 4 32 rrcurveto
          1 43 24 0 8 hhcurveto
          -1 -1 -1 -2 -2 vhcurveto
          -1 1 3 -1 3 5 191 callsubr
          6 3 -4 -7 hvcurveto
          5 -37 -1 1 13 -72 18 -64 3 -43 rlinecurve
          2 7 33 callgsubr
          1 -3 67 callgsubr
          hvcurveto
          9 -6 9 11 vvcurveto
          162 callgsubr
          vhcurveto
          -1 5 -1 3 1 vvcurveto
          4 vlineto
          3 -28 20 -30 -31 vvcurveto
          -6 vlineto
          12 -36 4 -46 11 -39 rrcurveto
          -3 -4 0 -3 1 callsubr
          65 callsubr
          -3 5 1 5 -3 7 rrcurveto
          2 3 hlineto
          5 -4 5 -3 4 vhcurveto
          49 -17 -9 24 -1 hhcurveto
          2 -7 rlineto
          24 -100 11 -21 -20 vvcurveto
          -3 vlineto
          -29 38 -83 13 -82 vhcurveto
          5 -30 rlineto
          -186 459 rmoveto
          11 -2 -3 5 -3 hhcurveto
          -4 -2 -11 -5 116 callgsubr
          hvcurveto
          -5 -5 -2 -4 -3 vvcurveto
          -5 vlineto
          -7 -2 -12 -4 -17 vhcurveto
          -15 -60 2 -38 -3 -11 -1 1 53 callsubr
          -4 240 callgsubr
          -7 vvcurveto
          -5 1 -2 3 vhcurveto
          13 hlineto
          15 20 -2 15 4 172 callgsubr
          3 2 -12 40 -2 62 -21 89 rlinecurve
          -4 -21 rmoveto
          24 -41 -5 -98 13 -23 -4 -3 rcurveline
          -57 hlineto
          -4 11 -2 -1 2 4 2 -2 rlineto
          3 16 16 102 16 vvcurveto
          8 vlineto
          11 6 5 3 7 vhcurveto
          21 callsubr
          -3 vvcurveto
          -176 -221 rmoveto
          11 47 4 47 15 47 -7 -44 -7 -51 -11 -45 rrcurveto
          -47 -202 rmoveto
          2 8 rlineto
          -2 -10 rmoveto
          2 vlineto
          endchar
        </CharString>
        <CharString name="Adieresis">
          93 callgsubr
          84 222 callsubr
          74 99 7 163 hintmask 01010110
          184 856 rmoveto
          15 callsubr
          hintmask 01101110
          102 callgsubr
          hintmask 01010110
          -7 -8 119 callgsubr
          -1 vlineto
          -6 -2 -32 callsubr
          hlineto
          -1 1 -1 2 -2 vhcurveto
          1 hlineto
          -3 -15 1 -5 -3 -7 -1 -7 rcurveline
          -11 vlineto
          -13 callgsubr
          1 -8 rlineto
          -8 vlineto
          -9 0 -5 1 -1 vhcurveto
          -13 vlineto
          -2 1 -1 2 -1 102 callsubr
          166 callgsubr
          16 -1 rlineto
          -1 8 9 -1 9 hhcurveto
          3 74 callsubr
          8 hlineto
          -11 callgsubr
          4 hhcurveto
          1 3 37 callsubr
          -47 callgsubr
          2 -10 callsubr
          2 9 vlineto
          5 0 -48 callgsubr
          vhcurveto
          -1 6 rlineto
          -17 callsubr
          -1 2 rlineto
          1 16 callsubr
          -59 callsubr
          2 34 rlineto
          6 0 3 124 callsubr
          168 -5 rmoveto
          4 0 3 1 1 vhcurveto
          15 callsubr
          hintmask 01101110
          102 callgsubr
          hintmask 01010110
          -7 -8 119 callgsubr
          -1 vlineto
          -6 -2 -32 callsubr
          hlineto
          -1 1 -1 2 -2 vhcurveto
          1 hlineto
          -3 -15 1 -5 -3 -7 -1 -7 rcurveline
          -11 vlineto
          -13 callgsubr
          1 -8 rlineto
          -8 vlineto
          -9 0 -5 1 -1 vhcurveto
          -13 vlineto
          -2 1 -1 2 -1 102 callsubr
          166 callgsubr
          16 -1 rlineto
          -1 8 9 -1 9 hhcurveto
          3 74 callsubr
          8 hlineto
          -11 callgsubr
          4 hhcurveto
          1 3 37 callsubr
          -47 callgsubr
          2 -10 callsubr
          2 9 vlineto
          5 0 -48 callgsubr
          vhcurveto
          -1 6 rlineto
          -17 callsubr
          -1 2 rlineto
          1 16 callsubr
          -59 callsubr
          28 vlineto
          -7 -31 rmoveto
          -1 -21 rlineto
          hintmask 01101110
          -11 -1 -6 36 callsubr
          -7 hlineto
          -4 -1 hlineto
          -26 callgsubr
          hhcurveto
          -18 -2 rlineto
          -3 -3 -1 -3 hhcurveto
          1 vlineto
          -18 -2 rlineto
          -13 6 5 5 -3 hvcurveto
          -30 callgsubr
          3 vlineto
          16 vlineto
          -2 13 1 5 -69 callsubr
          1 19 rlineto
          6 0 -48 callgsubr
          vhcurveto
          5 1 rlineto
          -13 callsubr
          38 hlineto
          12 -2 rlineto
          1 -39 callgsubr
          4 5 1 7 hhcurveto
          -45 callsubr
          1 -1 vhcurveto
          -13 vlineto
          -5 1 -5 -4 vvcurveto
          -170 -10 rmoveto
          -1 -21 rlineto
          -11 -1 -6 36 callsubr
          -7 hlineto
          -4 -1 hlineto
          -26 callgsubr
          hhcurveto
          -18 -2 rlineto
          -3 -3 -1 -3 hhcurveto
          1 vlineto
          -18 -2 rlineto
          -13 6 5 5 -3 hvcurveto
          -30 callgsubr
          3 vlineto
          16 vlineto
          -2 13 1 5 -69 callsubr
          1 19 rlineto
          6 0 -48 callgsubr
          vhcurveto
          5 1 rlineto
          -13 callsubr
          38 hlineto
          12 -2 rlineto
          1 -39 callgsubr
          4 5 1 7 hhcurveto
          -45 callsubr
          1 -1 vhcurveto
          -13 vlineto
          -5 1 -5 -4 vvcurveto
          253 -780 rmoveto
          -13 31 -4 45 -7 33 rrcurveto
          3 1 1 3 vhcurveto
          -1 5 2 6 -7 3 -8 23 5 28 -11 21 -4 40 -12 43 -7 40 -15 40 -3 45 -12 41 rrcurveto
          3 1 1 1 -57 callsubr
          11 -12 7 13 vvcurveto
          -11 64 -15 59 -16 64 rrcurveto
          -16 -17 -4 -55 hhcurveto
          -17 hlineto
          -23 -16 -25 -53 -3 -29 3 -6 callsubr
          3 3 -15 -76 -18 -72 -19 -76 rrcurveto
          12 vlineto
          1 2 0 3 5 vvcurveto
          -29 -117 -19 -133 -23 -117 rrcurveto
          59 16 20 131 8 hhcurveto
          -9 -64 -16 -78 -11 -64 rrcurveto
          -1 -5 -6 -4 -4 vvcurveto
          82 callgsubr
          -4 -6 rlineto
          -3 -8 0 5 -3 vvcurveto
          -3 4 2 1 -3 vhcurveto
          32 4 36 -2 33 1 2 -2 rcurveline
          1 118 callsubr
          7 8 -3 7 hhcurveto
          5 5 2 3 3 hvcurveto
          31 136 rlineto
          6 3 6 3 9 8 9 -3 8 hhcurveto
          -56 callsubr
          2 0 1 3 vhcurveto
          -13 3 -13 -1 -13 4 15 7 17 -3 16 1 4 -4 rcurveline
          16 -40 19 -68 16 -43 13 -4 22 1 29 -1 rrcurveto
          hintmask 10101110
          -3 49 11 -1 5 hhcurveto
          1 2 2 4 1 hvcurveto
          -4 12 -4 10 -3 12 rrcurveto
          -19 -15 rmoveto
          hintmask 01101110
          -1 -19 -15 0 -13 hhcurveto
          -23 -13 230 callgsubr
          -3 -3 238 callsubr
          rrcurveto
          8 4 vlineto
          -21 32 -9 65 -16 37 2 4 rcurveline
          7 -8 2 -3 3 vhcurveto
          -28 -3 -35 6 -23 -13 5 -8 rcurveline
          -13 -32 -5 -66 -19 -30 -36 -8 -36 -5 -39 -7 -4 2 rcurveline
          13 63 29 76 3 66 -8 -3 3 -8 -5 -7 rrcurveto
          3 vlineto
          9 6 10 11 vvcurveto
          -2 callsubr
          -39 callgsubr
          3 vvcurveto
          7 13 3 23 4 19 rrcurveto
          3 13 18 58 7 vvcurveto
          1 -1 4 -1 7 vhcurveto
          11 15 0 22 3 19 rrcurveto
          -3 hlineto
          24 50 -1 58 19 56 9 28 7 22 4 32 rrcurveto
          1 43 24 0 8 hhcurveto
          -1 -1 -1 -2 -2 vhcurveto
          -1 1 3 -1 3 5 191 callsubr
          6 3 -4 -7 hvcurveto
          5 -37 -1 1 13 -72 18 -64 3 -43 rlinecurve
          2 7 33 callgsubr
          1 -3 67 callgsubr
          hvcurveto
          9 -6 9 11 vvcurveto
          162 callgsubr
          vhcurveto
          -1 5 -1 3 1 vvcurveto
          4 vlineto
          3 -28 20 -30 -31 vvcurveto
          -6 vlineto
          12 -36 4 -46 11 -39 rrcurveto
          -3 -4 0 -3 1 callsubr
          65 callsubr
          -3 5 1 5 -3 7 rrcurveto
          2 3 hlineto
          5 -4 5 -3 4 vhcurveto
          49 -17 -9 24 -1 hhcurveto
          2 -7 rlineto
          24 -100 11 -21 -20 vvcurveto
          -3 vlineto
          -29 38 -83 13 -82 vhcurveto
          5 -30 rlineto
          -186 459 rmoveto
          11 -2 -3 5 -3 hhcurveto
          -4 -2 -11 -5 116 callgsubr
          hvcurveto
          -5 -5 -2 -4 -3 vvcurveto
          -5 vlineto
          -7 -2 -12 -4 -17 vhcurveto
          -15 -60 2 -38 -3 -11 -1 1 53 callsubr
          -4 240 callgsubr
          -7 vvcurveto
          -5 1 -2 3 vhcurveto
          13 hlineto
          15 20 -2 15 4 172 callgsubr
          3 2 -12 40 -2 62 -21 89 rlinecurve
          -4 -21 rmoveto
          24 -41 -5 -98 13 -23 -4 -3 rcurveline
          -57 hlineto
          -4 11 -2 -1 2 4 2 -2 rlineto
          3 16 16 102 16 vvcurveto
          8 vlineto
          11 6 5 3 7 vhcurveto
          21 callsubr
          -3 vvcurveto
          -176 -221 rmoveto
          11 47 4 47 15 47 -7 -44 -7 -51 -11 -45 rrcurveto
          -47 -202 rmoveto
          2 8 rlineto
          -2 -10 rmoveto
          2 vlineto
          endchar
        </CharString>
        <CharString name="Agrave">
          93 callgsubr
          71 106 callsubr
          hintmask 01110000
          81 894 rmoveto
          -7 -7 -6 -6 -7 -5 rrcurveto
          -3 hlineto
          -4 -2 -1 -2 -1 hvcurveto
          -3 -2 -39 callsubr
          -3 -1 -2 -23 callgsubr
          -10 3 rcurveline
          1 -11 rlineto
          -3 21 callsubr
          vhcurveto
          -6 -5 4 -5 51 -40 11 -12 10 -11 13 -11 rlinecurve
          8 -8 rlineto
          -8 7 3 -7 3 hhcurveto
          13 hlineto
          1 -48 callgsubr
          5 hvcurveto
          5 20 callgsubr
          0 vvcurveto
          6 hlineto
          8 1 2 33 hhcurveto
          7 -1 2 -3 4 1 rlineto
          7 6 3 5 15 hvcurveto
          4 -2 7 6 rlineto
          -1 1 0 0 -52 callgsubr
          11 1 -25 24 -32 29 -2 205 callsubr
          -25 23 1 2 -8 4 -1 3 -23 callgsubr
          3 rlinecurve
          -2 hlineto
          -9 9 -3 4 -4 4 -4 3 rlinecurve
          -7 6 2 2 -6 5 rlineto
          3 -26 callgsubr
          hhcurveto
          -8 10 -20 -25 rlineto
          -5 -1 135 callsubr
          63 -135 rmoveto
          -8 9 -5 6 -1 1 -28 23 -21 22 -27 23 rlinecurve
          3 3 45 39 8 13 2 3 rcurveline
          7 -11 13 -8 1 -1 27 -26 rcurveline
          2 vlineto
          22 -20 35 -40 -1 0 32 -30 rlinecurve
          8 -8 -3 -1 -4 0 -4 -3 rlinecurve
          -6 -2 -4 1 rlineto
          -27 hlineto
          -12 -6 -1 -5 hhcurveto
          -9 hlineto
          -3 -2 0 1 -7 hvcurveto
          -3 hlineto
          -23 callgsubr
          0 -7 hhcurveto
          -2 hlineto
          278 -723 rmoveto
          -13 31 -4 45 -7 33 rrcurveto
          3 1 1 3 vhcurveto
          -1 5 2 6 -7 3 -8 23 5 28 -11 21 -4 40 -12 43 -7 40 -15 40 -3 45 -12 41 rrcurveto
          3 1 1 1 -57 callsubr
          11 -12 7 13 vvcurveto
          -11 64 -15 59 -16 64 rrcurveto
          -16 -17 -4 -55 hhcurveto
          -17 hlineto
          -23 -16 -25 -53 -3 -29 3 -6 callsubr
          3 3 -15 -76 -18 -72 -19 -76 rrcurveto
          12 vlineto
          1 2 0 3 5 vvcurveto
          -29 -117 -19 -133 -23 -117 rrcurveto
          59 16 20 131 8 hhcurveto
          -9 -64 -16 -78 -11 -64 rrcurveto
          -1 -5 -6 -4 -4 vvcurveto
          82 callgsubr
          -4 -6 rlineto
          -3 -8 0 5 -3 vvcurveto
          -3 4 2 1 -3 vhcurveto
          32 4 36 -2 33 1 2 -2 rcurveline
          1 118 callsubr
          7 8 -3 7 hhcurveto
          5 5 2 3 3 hvcurveto
          31 136 rlineto
          6 3 6 3 9 8 9 -3 8 hhcurveto
          -56 callsubr
          2 0 1 3 vhcurveto
          -13 3 -13 -1 -13 4 15 7 17 -3 16 1 4 -4 rcurveline
          16 -40 19 -68 16 -43 13 -4 22 1 29 -1 rrcurveto
          hintmask 10110000
          -3 49 11 -1 5 hhcurveto
          1 2 2 4 1 hvcurveto
          -4 12 -4 10 -3 12 rrcurveto
          -19 -15 rmoveto
          hintmask 01110000
          -1 -19 -15 0 -13 hhcurveto
          -23 -13 230 callgsubr
          -3 -3 238 callsubr
          rrcurveto
          8 4 vlineto
          -21 32 -9 65 -16 37 2 4 rcurveline
          7 -8 2 -3 3 vhcurveto
          -28 -3 -35 6 -23 -13 5 -8 rcurveline
          -13 -32 -5 -66 -19 -30 -36 -8 -36 -5 -39 -7 -4 2 rcurveline
          13 63 29 76 3 66 -8 -3 3 -8 -5 -7 rrcurveto
          3 vlineto
          9 6 10 11 vvcurveto
          -2 callsubr
          -39 callgsubr
          3 vvcurveto
          7 13 3 23 4 19 rrcurveto
          3 13 18 58 7 vvcurveto
          1 -1 4 -1 7 vhcurveto
          11 15 0 22 3 19 rrcurveto
          -3 hlineto
          24 50 -1 58 19 56 9 28 7 22 4 32 rrcurveto
          1 43 24 0 8 hhcurveto
          -1 -1 -1 -2 -2 vhcurveto
          -1 1 3 -1 3 5 191 callsubr
          6 3 -4 -7 hvcurveto
          5 -37 -1 1 13 -72 18 -64 3 -43 rlinecurve
          2 7 33 callgsubr
          1 -3 67 callgsubr
          hvcurveto
          9 -6 9 11 vvcurveto
          162 callgsubr
          vhcurveto
          -1 5 -1 3 1 vvcurveto
          4 vlineto
          3 -28 20 -30 -31 vvcurveto
          -6 vlineto
          12 -36 4 -46 11 -39 rrcurveto
          -3 -4 0 -3 1 callsubr
          65 callsubr
          -3 5 1 5 -3 7 rrcurveto
          2 3 hlineto
          5 -4 5 -3 4 vhcurveto
          49 -17 -9 24 -1 hhcurveto
          2 -7 rlineto
          24 -100 11 -21 -20 vvcurveto
          -3 vlineto
          -29 38 -83 13 -82 vhcurveto
          5 -30 rlineto
          -186 459 rmoveto
          11 -2 -3 5 -3 hhcurveto
          -4 -2 -11 -5 116 callgsubr
          hvcurveto
          -5 -5 -2 -4 -3 vvcurveto
          -5 vlineto
          -7 -2 -12 -4 -17 vhcurveto
          -15 -60 2 -38 -3 -11 -1 1 53 callsubr
          -4 240 callgsubr
          -7 vvcurveto
          -5 1 -2 3 vhcurveto
          13 hlineto
          15 20 -2 15 4 172 callgsubr
          3 2 -12 40 -2 62 -21 89 rlinecurve
          -4 -21 rmoveto
          24 -41 -5 -98 13 -23 -4 -3 rcurveline
          -57 hlineto
          -4 11 -2 -1 2 4 2 -2 rlineto
          3 16 16 102 16 vvcurveto
          8 vlineto
          11 6 5 3 7 vhcurveto
          21 callsubr
          -3 vvcurveto
          -176 -221 rmoveto
          11 47 4 47 15 47 -7 -44 -7 -51 -11 -45 rrcurveto
          -47 -202 rmoveto
          2 8 rlineto
          -2 -10 rmoveto
          2 vlineto
          endchar
        </CharString>
        <CharString name="Aring">
          93 callgsubr
          208 -8 45 hstemhm
          132 30 7 98 -98 134 hintmask 01011010
          301 900 108 callsubr
          -26 1 -50 60 -10 vhcurveto
          11 hlineto
          6 184 callsubr
          -74 callgsubr
          rrcurveto
          hintmask 01101100
          -16 1 -22 callsubr
          97 callgsubr
          hintmask 01011100
          57 callsubr
          165 -839 rmoveto
          -13 31 -4 45 -7 33 rrcurveto
          3 1 1 3 vhcurveto
          -1 5 2 6 -7 3 -8 23 5 28 -11 21 -4 40 -12 43 -7 40 -15 40 -3 45 -12 41 rrcurveto
          3 1 1 1 -57 callsubr
          11 -12 7 13 vvcurveto
          -11 64 -15 59 -16 64 rrcurveto
          -16 -17 -4 -55 hhcurveto
          -17 hlineto
          -23 -16 -25 -53 -3 -29 3 -6 callsubr
          3 3 -15 -76 -18 -72 -19 -76 rrcurveto
          12 vlineto
          1 2 0 3 5 vvcurveto
          -29 -117 -19 -133 -23 -117 rrcurveto
          59 16 20 131 8 hhcurveto
          -9 -64 -16 -78 -11 -64 rrcurveto
          -1 -5 -6 -4 -4 vvcurveto
          82 callgsubr
          -4 -6 rlineto
          -3 -8 0 5 -3 vvcurveto
          -3 4 2 1 -3 vhcurveto
          32 4 36 -2 33 1 2 -2 rcurveline
          1 118 callsubr
          7 8 -3 7 hhcurveto
          5 5 2 3 3 hvcurveto
          31 136 rlineto
          6 3 6 3 9 8 9 -3 8 hhcurveto
          -56 callsubr
          2 0 1 3 vhcurveto
          -13 3 -13 -1 -13 4 15 7 17 -3 16 1 4 -4 rcurveline
          16 -40 19 -68 16 -43 13 -4 22 1 29 -1 rrcurveto
          hintmask 10101100
          -3 49 11 -1 5 hhcurveto
          1 2 2 4 1 hvcurveto
          -4 12 -4 10 -3 12 rrcurveto
          -19 -15 rmoveto
          hintmask 01101100
          -1 -19 -15 0 -13 hhcurveto
          -23 -13 230 callgsubr
          -3 -3 238 callsubr
          rrcurveto
          8 4 vlineto
          -21 32 -9 65 -16 37 2 4 rcurveline
          7 -8 2 -3 3 vhcurveto
          -28 -3 -35 6 -23 -13 5 -8 rcurveline
          -13 -32 -5 -66 -19 -30 -36 -8 -36 -5 -39 -7 -4 2 rcurveline
          13 63 29 76 3 66 -8 -3 3 -8 -5 -7 rrcurveto
          3 vlineto
          9 6 10 11 vvcurveto
          -2 callsubr
          -39 callgsubr
          3 vvcurveto
          7 13 3 23 4 19 rrcurveto
          3 13 18 58 7 vvcurveto
          1 -1 4 -1 7 vhcurveto
          11 15 0 22 3 19 rrcurveto
          -3 hlineto
          24 50 -1 58 19 56 9 28 7 22 4 32 rrcurveto
          1 43 24 0 8 hhcurveto
          -1 -1 -1 -2 -2 vhcurveto
          -1 1 3 -1 3 5 191 callsubr
          6 3 -4 -7 hvcurveto
          5 -37 -1 1 13 -72 18 -64 3 -43 rlinecurve
          2 7 33 callgsubr
          1 -3 67 callgsubr
          hvcurveto
          9 -6 9 11 vvcurveto
          162 callgsubr
          vhcurveto
          -1 5 -1 3 1 vvcurveto
          4 vlineto
          3 -28 20 -30 -31 vvcurveto
          -6 vlineto
          12 -36 4 -46 11 -39 rrcurveto
          -3 -4 0 -3 1 callsubr
          65 callsubr
          -3 5 1 5 -3 7 rrcurveto
          2 3 hlineto
          5 -4 5 -3 4 vhcurveto
          49 -17 -9 24 -1 hhcurveto
          2 -7 rlineto
          24 -100 11 -21 -20 vvcurveto
          -3 vlineto
          -29 38 -83 13 -82 vhcurveto
          5 -30 rlineto
          -186 459 rmoveto
          11 -2 -3 5 -3 hhcurveto
          -4 -2 -11 -5 116 callgsubr
          hvcurveto
          -5 -5 -2 -4 -3 vvcurveto
          -5 vlineto
          -7 -2 -12 -4 -17 vhcurveto
          -15 -60 2 -38 -3 -11 -1 1 53 callsubr
          -4 240 callgsubr
          -7 vvcurveto
          -5 1 -2 3 vhcurveto
          13 hlineto
          15 20 -2 15 4 172 callgsubr
          3 2 -12 40 -2 62 -21 89 rlinecurve
          -4 -21 rmoveto
          24 -41 -5 -98 13 -23 -4 -3 rcurveline
          -57 hlineto
          -4 11 -2 -1 2 4 2 -2 rlineto
          3 16 16 102 16 vvcurveto
          8 vlineto
          11 6 5 3 7 vhcurveto
          21 callsubr
          -3 vvcurveto
          -176 -221 rmoveto
          11 47 4 47 15 47 -7 -44 -7 -51 -11 -45 rrcurveto
          -47 -202 rmoveto
          2 8 rlineto
          -2 -10 rmoveto
          2 vlineto
          endchar
        </CharString>
        <CharString name="Atilde">
          93 callgsubr
          142 -87 23 -23 186 callgsubr
          hintmask 01001000
          156 748 rmoveto
          -9 17 rlineto
          -100 callgsubr
          hintmask 01100100
          -99 callgsubr
          73 166 callsubr
          -2 -3 -1 -5 -7 vvcurveto
          -5 1 -5 1 -7 vhcurveto
          2 -8 -15 -43 -16 -33 -35 -23 -46 callsubr
          hintmask 01010100
          -54 callgsubr
          326 -854 rmoveto
          -13 31 -4 45 -7 33 rrcurveto
          3 1 1 3 vhcurveto
          -1 5 2 6 -7 3 -8 23 5 28 -11 21 -4 40 -12 43 -7 40 -15 40 -3 45 -12 41 rrcurveto
          3 1 1 1 -57 callsubr
          11 -12 7 13 vvcurveto
          -11 64 -15 59 -16 64 rrcurveto
          -16 -17 -4 -55 hhcurveto
          -17 hlineto
          -23 -16 -25 -53 -3 -29 3 -6 callsubr
          3 3 -15 -76 -18 -72 -19 -76 rrcurveto
          12 vlineto
          1 2 0 3 5 vvcurveto
          -29 -117 -19 -133 -23 -117 rrcurveto
          59 16 20 131 8 hhcurveto
          -9 -64 -16 -78 -11 -64 rrcurveto
          -1 -5 -6 -4 -4 vvcurveto
          82 callgsubr
          -4 -6 rlineto
          -3 -8 0 5 -3 vvcurveto
          -3 4 2 1 -3 vhcurveto
          32 4 36 -2 33 1 2 -2 rcurveline
          1 118 callsubr
          7 8 -3 7 hhcurveto
          5 5 2 3 3 hvcurveto
          31 136 rlineto
          6 3 6 3 9 8 9 -3 8 hhcurveto
          -56 callsubr
          2 0 1 3 vhcurveto
          -13 3 -13 -1 -13 4 15 7 17 -3 16 1 4 -4 rcurveline
          16 -40 19 -68 16 -43 13 -4 22 1 29 -1 rrcurveto
          hintmask 10100100
          -3 49 11 -1 5 hhcurveto
          1 2 2 4 1 hvcurveto
          -4 12 -4 10 -3 12 rrcurveto
          -19 -15 rmoveto
          hintmask 01100100
          -1 -19 -15 0 -13 hhcurveto
          -23 -13 230 callgsubr
          -3 -3 238 callsubr
          rrcurveto
          8 4 vlineto
          -21 32 -9 65 -16 37 2 4 rcurveline
          7 -8 2 -3 3 vhcurveto
          -28 -3 -35 6 -23 -13 5 -8 rcurveline
          -13 -32 -5 -66 -19 -30 -36 -8 -36 -5 -39 -7 -4 2 rcurveline
          13 63 29 76 3 66 -8 -3 3 -8 -5 -7 rrcurveto
          3 vlineto
          9 6 10 11 vvcurveto
          -2 callsubr
          -39 callgsubr
          3 vvcurveto
          7 13 3 23 4 19 rrcurveto
          3 13 18 58 7 vvcurveto
          1 -1 4 -1 7 vhcurveto
          11 15 0 22 3 19 rrcurveto
          -3 hlineto
          24 50 -1 58 19 56 9 28 7 22 4 32 rrcurveto
          1 43 24 0 8 hhcurveto
          -1 -1 -1 -2 -2 vhcurveto
          -1 1 3 -1 3 5 191 callsubr
          6 3 -4 -7 hvcurveto
          5 -37 -1 1 13 -72 18 -64 3 -43 rlinecurve
          2 7 33 callgsubr
          1 -3 67 callgsubr
          hvcurveto
          9 -6 9 11 vvcurveto
          162 callgsubr
          vhcurveto
          -1 5 -1 3 1 vvcurveto
          4 vlineto
          3 -28 20 -30 -31 vvcurveto
          -6 vlineto
          12 -36 4 -46 11 -39 rrcurveto
          -3 -4 0 -3 1 callsubr
          65 callsubr
          -3 5 1 5 -3 7 rrcurveto
          2 3 hlineto
          5 -4 5 -3 4 vhcurveto
          49 -17 -9 24 -1 hhcurveto
          2 -7 rlineto
          24 -100 11 -21 -20 vvcurveto
          -3 vlineto
          -29 38 -83 13 -82 vhcurveto
          5 -30 rlineto
          -186 459 rmoveto
          11 -2 -3 5 -3 hhcurveto
          -4 -2 -11 -5 116 callgsubr
          hvcurveto
          -5 -5 -2 -4 -3 vvcurveto
          -5 vlineto
          -7 -2 -12 -4 -17 vhcurveto
          -15 -60 2 -38 -3 -11 -1 1 53 callsubr
          -4 240 callgsubr
          -7 vvcurveto
          -5 1 -2 3 vhcurveto
          13 hlineto
          15 20 -2 15 4 172 callgsubr
          3 2 -12 40 -2 62 -21 89 rlinecurve
          -4 -21 rmoveto
          24 -41 -5 -98 13 -23 -4 -3 rcurveline
          -57 hlineto
          -4 11 -2 -1 2 4 2 -2 rlineto
          3 16 16 102 16 vvcurveto
          8 vlineto
          11 6 5 3 7 vhcurveto
          21 callsubr
          -3 vvcurveto
          -176 -221 rmoveto
          11 47 4 47 15 47 -7 -44 -7 -51 -11 -45 rrcurveto
          -47 -202 rmoveto
          2 8 rlineto
          -2 -10 rmoveto
          2 vlineto
          endchar
        </CharString>
        <CharString name="B">
          57 -16 148 -122 -21 421 150 -13 164 -20 20 hstemhm
          46 129 114 27 98 30 5 21 hintmask 1010111110000000
          452 222 rmoveto
          80 -27 -59 31 -1 hhcurveto
          -3 3 rlineto
          -5 5 -2 4 5 vvcurveto
          2 1 2 2 2 vhcurveto
          49 35 37 48 68 vvcurveto
          27 -5 28 -11 27 vhcurveto
          71 -37 -33 51 -114 -52 -54 -10 -52 -7 -5 1 -7 hhcurveto
          -8 -3 -10 2 -5 -9 -1 -44 rcurveline
          2 -57 1 -58 -57 -121 -3 -122 -121 vvcurveto
          -60 vlineto
          -20 0 -20 1 -19 vhcurveto
          -7 15 18 -2 19 hhcurveto
          hintmask 0110111110000000
          29 31 5 27 hhcurveto
          hintmask 1010111110000000
          -3 24 27 -2 27 hhcurveto
          31 29 4 12 27 hvcurveto
          3 -4 23 12 18 9 11 7 rlinecurve
          21 13 42 81 -3 vvcurveto
          2 2 rlineto
          5 vlineto
          1 15 1 12 11 vvcurveto
          27 -12 22 -5 11 vhcurveto
          1 vlineto
          -101 112 rmoveto
          -1 -82 callgsubr
          -1 4 -2 7 -4 hvcurveto
          83 -48 4 -87 -24 vvcurveto
          -64 -22 -13 -61 -61 vhcurveto
          -21 -5 -85 -4 -44 -29 -29 1 -29 hhcurveto
          -25 -23 -1 -2 -23 hvcurveto
          12 3 -25 1 rlineto
          1 1 0 4 6 vvcurveto
          15 vlineto
          19 -1 21 19 12 2 11 9 4 -1 4 3 210 callgsubr
          1 -4 1 -2 1 vvcurveto
          1 hlineto
          39 -1 39 40 vvcurveto
          47 1 45 5 44 vhcurveto
          -5 69 3 33 -3 117 rrcurveto
          67 vlineto
          155 callsubr
          4 vlineto
          0 15 6 104 -1 vhcurveto
          43 58 -6 -16 35 hvcurveto
          33 -11 58 -60 -91 vvcurveto
          -16 vlineto
          1 -1 0 -4 -5 vvcurveto
          -8 vlineto
          -68 -57 -9 -24 -40 vhcurveto
          -8 4 -6 8 -5 vhcurveto
          -87 -56 rmoveto
          -31 8 -30 -1 -31 3 -6 -161 rcurveline
          14 -9 rlineto
          53 3 88 -16 89 vvcurveto
          43 -24 36 -33 5 vhcurveto
          -86 276 rmoveto
          -5 -5 -3 -7 -9 -7 1 -7 -7 vvcurveto
          3 12 rlineto
          1 -5 1 -4 -2 vvcurveto
          -10 vlineto
          -23 -5 -19 -23 vvcurveto
          -31 14 0 23 45 70 11 75 52 -64 12 -38 -15 -15 -2 -1 -13 vhcurveto
          111 -113 rmoveto
          -23 -19 -26 -2 -28 -11 -11 1 -11 hhcurveto
          -2 14 -1 16 17 27 2 27 24 vvcurveto
          hintmask 1001011110000000
          1 7 4 1 3 15 17 -6 17 hhcurveto
          21 36 -14 -29 -23 -13 -22 -20 -15 hvcurveto
          10 -279 rmoveto
          -23 -12 -28 -4 -17 -16 -6 3 -8 hhcurveto
          -7 hlineto
          -3 -48 callsubr
          3 6 1 11 15 8 -1 12 17 vvcurveto
          57 vlineto
          37 -3 74 14 -69 vvcurveto
          -16 -4 -16 -11 -13 vhcurveto
          endchar
        </CharString>
        <CharString name="C">
          68 -15 163 -143 -21 135 29 107 27 -27 180 -16 167 -25 25 113 22 hstemhm
          28 138 -130 146 -129 113 hintmask 1001001110000000
          202 540 rmoveto
          14 16 17 7 19 hhcurveto
          71 -14 -89 -43 5 hvcurveto
          1 -9 10 1 7 -3 rrcurveto
          hintmask 1001010101000000
          7 7 1 7 23 21 -3 23 hhcurveto
          15 14 1 3 16 hvcurveto
          -1 1 0 5 8 vvcurveto
          31 8 28 1 31 vhcurveto
          -9 47 -19 43 -31 40 -16 30 -36 3 -21 21 -45 15 -36 -5 -51 3 -41 -1 -36 1 -32 -19 -36 -43 -19 -51 -13 -51 rrcurveto
          1 -13 1 -12 -13 vvcurveto
          -38 vlineto
          -96 -9 -97 -92 vvcurveto
          6 -1 rlineto
          hintmask 1001010110000000
          -3 19 -2 19 19 vvcurveto
          15 1 11 3 9 vhcurveto
          1 -2 rlineto
          hintmask 1001010101000000
          -123 3 -8 -177 154 hhcurveto
          5 6 2 7 hvcurveto
          40 -9 rlineto
          hintmask 0111010110000000
          -1 2 15 0 28 hhcurveto
          75 117 82 108 hvcurveto
          35 -6 35 35 vvcurveto
          4 -5 -6 2 -5 hhcurveto
          -5 -4 -2 -1 -7 hvcurveto
          -102 3 21 -3 -22 3 rrcurveto
          hintmask 0111010101000000
          -59 -8 13 -78 -80 hhcurveto
          -65 -7 87 68 80 3 61 5 80 hvcurveto
          hintmask 0110101100100000
          -24 -226 rmoveto
          -67 3 3 -112 89 hhcurveto
          10 7 170 callsubr
          13 21 26 10 11 21 rrcurveto
          27 11 22 1 27 vhcurveto
          220 callsubr
          17 20 5 17 hhcurveto
          24 13 -11 -43 -29 -1 -26 -13 -29 hvcurveto
          4 -1 rlineto
          -75 -24 -84 -37 -67 hhcurveto
          -136 -74 89 77 11 1 10 3 7 hvcurveto
          -4 16 rlineto
          1 5 0 6 5 vvcurveto
          59 vlineto
          7 104 callgsubr
          -2 -1 rlineto
          -1 0 1 2 3 1 6 2 10 hvcurveto
          -5 3 rlineto
          15 -1 13 15 vvcurveto
          25 1 25 2 25 vhcurveto
          4 59 rlineto
          -4 3 -3 -5 3 hhcurveto
          11 52 -23 65 47 39 16 11 rcurveline
          2 -2 rlineto
          5 1 9 23 callgsubr
          16 31 36 8 36 hhcurveto
          45 45 -12 -19 39 hvcurveto
          52 -54 43 -38 -80 -20 -4 -17 -20 vvcurveto
          -6 -4 rlineto
          -111 hlineto
          hintmask 1001010100100000
          57 -8 8 94 -79 -19 -6 -9 -17 hhcurveto
          -5 hlineto
          -36 -45 -3 -54 -60 vvcurveto
          -64 vlineto
          -7 0 -7 -1 -7 vhcurveto
          endchar
        </CharString>
        <CharString name="CR">
          -182 endchar
        </CharString>
        <CharString name="Ccedilla">
          56 -112 -21 152 -21 127 28 103 28 -28 172 -18 166 -28 28 106 21 hstemhm
          29 141 -17 174 hintmask 1111001110000000
          172 -7 rmoveto
          -3 -17 -2 -19 -1 -23 rrcurveto
          -3 -64 -4 8 -9 vvcurveto
          69 hlineto
          -1 9 7 -1 3 hhcurveto
          1 4 9 7 hvcurveto
          161 callsubr
          4 37 10 23 -3 24 -1 14 rcurveline
          7 10 27 6 rlineto
          62 30 90 41 103 35 -6 35 33 vvcurveto
          3 -5 -6 2 -5 hhcurveto
          -28 hlineto
          -35 -10 -2 -17 hhcurveto
          -9 -8 1 2 -7 hvcurveto
          -57 -8 14 -75 -78 hhcurveto
          -62 -7 86 65 76 3 61 5 73 hvcurveto
          11 15 rlineto
          13 15 17 6 19 hhcurveto
          70 -16 -82 -43 5 hvcurveto
          -11 3 17 0 7 hhcurveto
          9 hlineto
          hintmask 1111010110000000
          15 24 -2 27 hhcurveto
          13 14 1 3 16 hvcurveto
          -1 66 callsubr
          7 vlineto
          31 8 25 1 31 vhcurveto
          -9 46 -19 42 -29 37 -16 26 -36 4 -18 21 -43 15 -35 -5 -49 3 -40 -1 -34 2 -31 -19 -35 -41 -18 -50 -13 -49 rrcurveto
          1 -13 1 -12 -12 vvcurveto
          -36 vlineto
          -42 4 -297 4 -15 vhcurveto
          13 -84 50 -25 61 -11 rrcurveto
          6 hlineto
          7 23 rmoveto
          -61 13 -68 70 70 15 2 16 25 vvcurveto
          -3 80 -1 52 27 8 1 6 3 13 11 135 16 vvcurveto
          90 3 105 22 52 hhcurveto
          43 44 -11 -19 37 hvcurveto
          51 -49 41 -41 -75 -19 -4 -17 -19 vvcurveto
          hintmask 1110101110000000
          -6 -4 rlineto
          -107 hlineto
          hintmask 1111010101000000
          44 -8 11 104 -73 hhcurveto
          -51 -11 rlineto
          -35 -43 -3 -53 -56 vvcurveto
          -43 vlineto
          -17 -2 -14 -27 vvcurveto
          -62 4 -125 89 45 33 51 76 3 vhcurveto
          220 callsubr
          17 19 5 17 hhcurveto
          21 13 -10 -43 hvcurveto
          -20 -5 -19 -20 vvcurveto
          -72 -86 -46 -59 -8 vhcurveto
          -16 -2 -8 -6 -11 vvcurveto
          -13 -104 3 20 -5 -33 -1 -4 rcurveline
          -1 -16 0 1 -15 hvcurveto
          -31 2 1 8 2 38 7 72 rlinecurve
          3 18 rlineto
          endchar
        </CharString>
        <CharString name="D">
          62 1 27 -27 213 -194 -21 482 221 1 -20 hstemhm
          38 145 -2 150 -10 139 hintmask 10010101
          456 449 208 callsubr
          hintmask 00101101
          -32 -32 1 -32 hhcurveto
          -37 hlineto
          -40 -48 -3 -19 hvcurveto
          -1 -8 0 -8 -8 vvcurveto
          -24 vlineto
          -72 6 -69 -72 vvcurveto
          -25 vlineto
          -8 -2 -14 -3 -21 vhcurveto
          -3 2 -1 -1 vvcurveto
          95 callgsubr
          vhcurveto
          1 -53 4 -48 3 -51 rrcurveto
          -2 -11 -1 -11 -10 -32 6 -33 -33 -3 -9 -31 -3 vvcurveto
          -1 0 0 1 -58 callgsubr
          3 4 -9 -1 95 callgsubr
          hvcurveto
          -3 4 0 -10 5 hhcurveto
          hintmask 10010101
          3 0 2 3 hhcurveto
          hintmask 00110101
          3 4 -2 3 hhcurveto
          1 2 1 2 1 hvcurveto
          hintmask 10010101
          5 9 0 -1 15 hvcurveto
          11 176 callsubr
          193 callsubr
          -9 -176 rmoveto
          -3 -25 3 -22 -7 -23 rrcurveto
          -3 -12 -8 -8 -11 218 callgsubr
          -24 -35 -23 -46 -29 -33 rrcurveto
          -5 -5 0 -12 -5 hhcurveto
          -3 3 rlineto
          -1 -7 -3 -1 -4 vvcurveto
          -1 -30 callsubr
          -12 -19 5 -15 hhcurveto
          -6 -3 0 -71 callsubr
          4 -1 -3 2 -4 hhcurveto
          -3 -2 -1 -3 -3 hvcurveto
          1 -13 -6 1 -1 hhcurveto
          -5 -20 vlineto
          5 2 rlineto
          hintmask 00110010
          -13 -87 -8 -21 -11 -7 3 -11 -3 -3 -1 -3 hhcurveto
          -1 3 rlineto
          1 hlineto
          3 -2 1 1 3 hvcurveto
          -2 callsubr
          3 4 1 3 vvcurveto
          16 vlineto
          11 -1 14 -2 16 vhcurveto
          -3 -11 -3 3 -2 8 -1 7 rlinecurve
          -1 -7 -1 -8 -7 vvcurveto
          -11 1 -10 2 -9 vhcurveto
          -12 19 7 28 -5 23 rrcurveto
          -4 1 -2 4 7 7 5 6 3 vvcurveto
          -2 3 -2 -2 rlineto
          5 2 vlineto
          3 -1 5 3 vvcurveto
          6 vlineto
          -50 callsubr
          2 122 2 154 rlineto
          22 vlineto
          3 39 1 22 11 vvcurveto
          17 vlineto
          29 3 28 28 vvcurveto
          -2 34 rlineto
          3 41 24 4 65 hhcurveto
          42 51 4 -48 40 hvcurveto
          37 -19 22 -32 19 -35 4 -2 rcurveline
          29 -56 14 -65 -68 vvcurveto
          -31 -3 -30 -6 -29 vhcurveto
          -114 104 rmoveto
          -13 40 -9 56 -51 13 rrcurveto
          -13 -13 1 -15 hhcurveto
          -18 hlineto
          -15 -3 -1 -15 hvcurveto
          -13 vlineto
          -30 2 -10 -45 -31 -1 -43 -32 vvcurveto
          -15 vlineto
          -11 -3 -7 -8 vvcurveto
          -19 16 0 15 15 13 1 1 19 vhcurveto
          50 16 26 71 57 vvcurveto
          8 -1 8 -1 8 vhcurveto
          -55 -153 rmoveto
          hintmask 01010101
          -11 -35 -9 0 -12 hhcurveto
          -15 -10 0 4 -8 hvcurveto
          -3 42 rlineto
          1 8 0 9 9 vvcurveto
          174 vlineto
          14 4 7 9 vhcurveto
          3 3 -1 3 5 2 3 4 3 4 -5 4 3 202 callsubr
          8 8 -2 -8 hvcurveto
          43 -24 15 -57 3 -56 -11 -38 9 -21 -45 -48 rrcurveto
          173 23 rmoveto
          3 2 vlineto
          endchar
        </CharString>
        <CharString name="E">
          -14 callsubr
          15 -20 hstemhm
          46 197 callsubr
          hintmask 0101011100000000
          459 142 -82 callsubr
          hintmask 1000101010000000
          -21 callsubr
          -1 9 -1 9 9 23 3 20 23 7 -1 5 7 vvcurveto
          2 4 115 3 rlineto
          -1 8 8 -1 7 hhcurveto
          68 3 40 2 17 3 rrcurveto
          5 vlineto
          7 1 8 1 7 vhcurveto
          -1 2 0 4 231 callsubr
          19 1 18 19 vvcurveto
          13 0 13 -3 12 vhcurveto
          4 4 2 3 2 vvcurveto
          hintmask 1001011100000000
          3 -1 1 -3 1 vhcurveto
          -3 -23 -20 -1 -23 hhcurveto
          -2 5 vlineto
          7 202 callsubr
          7 7 -2 -3 5 hvcurveto
          -3 -2 rlineto
          hintmask 0010101100000000
          -2 -33 -35 -1 -36 -27 -19 1 -37 hhcurveto
          -30 hlineto
          -99 callsubr
          hintmask 1001011100000000
          -70 callgsubr
          hintmask 0011011100000000
          -3 -4 2 -3 hhcurveto
          -59 hlineto
          -11 -10 -3 -11 hhcurveto
          -5 -4 1 2 -5 hvcurveto
          11 1 19 3 27 vhcurveto
          9 vlineto
          5 0 3 -1 146 callgsubr
          hhcurveto
          3 170 callsubr
          12 -20 27 4 vvcurveto
          1 0 0 1 vhcurveto
          4 vlineto
          5 15 3 11 1 6 -1 8 2 9 -3 7 -3 -1 rcurveline
          3 5 5 5 vvcurveto
          89 callgsubr
          rlineto
          3 -2 -2 3 hhcurveto
          3 1 10 4 8 -1 7 -2 6 hvcurveto
          -2 -1 -1 -2 -2 -3 1 -1 -3 vvcurveto
          -1 hlineto
          -3 2 -2 -3 -3 hvcurveto
          -6 3 3 -13 -3 47 rrcurveto
          47 vlineto
          6 24 3 19 14 19 -4 14 8 vvcurveto
          1 7 0 5 5 13 -7 3 7 vvcurveto
          9 vlineto
          47 vlineto
          9 -1 19 -2 30 vhcurveto
          -59 callsubr
          -2 68 3 7 rlineto
          11 65 63 7 64 25 31 -2 20 17 0 1 19 27 12 -3 15 hhcurveto
          7 7 1 2 6 hvcurveto
          2 -3 2 -109 -11 -3 -8 0 -9 -1 rlinecurve
          -3 -100 -60 -2 -27 hhcurveto
          -14 hlineto
          -3 -13 -12 -1 -9 hhcurveto
          -6 hlineto
          -3 -6 rlineto
          -1 -2 0 -4 -6 vvcurveto
          1 -39 1 -25 -11 vvcurveto
          -2 -33 rlineto
          3 3 callsubr
          -4 vvcurveto
          1 -11 rlineto
          -7 1 2 -6 9 hhcurveto
          4 1 4 2 7 21 20 -4 20 hhcurveto
          11 12 1 2 11 hvcurveto
          11 1 -38 -11 -5 -1 -16 -1 -27 hvcurveto
          -4 0 -3 1 -1 vhcurveto
          -6 hlineto
          21 callsubr
          vhcurveto
          -19 -3 -104 -4 -7 -3 -3 5 -35 -15 5 -9 -15 vvcurveto
          -57 vlineto
          -8 0 -5 1 -2 vhcurveto
          6 -5 -1 -1 rlineto
          -5 4 5 -2 7 hhcurveto
          62 hlineto
          56 49 -1 -1 56 hvcurveto
          3 2 3 1 3 3 2 -1 3 hhcurveto
          3 2 1 2 2 hvcurveto
          -19 3 -22 -21 vvcurveto
          -17 -1 -13 -3 -10 vhcurveto
          endchar
        </CharString>
        <CharString name="Eacute">
          -14 callsubr
          -13 85 232 callsubr
          45 197 callsubr
          hintmask 0101011110000000
          362 901 rmoveto
          -74 callsubr
          1 -2 -6 -5 -7 -7 -8 -10 -3 -1 rlinecurve
          -4 -2 rlineto
          -3 -1 -1 -1 -2 vvcurveto
          -4 -2 -19 callsubr
          -2 1 -1 -25 -23 -34 -39 0 0 -32 -30 rlinecurve
          -25 -24 11 -1 9 -11 24 -5 rlineto
          -1 1 2 213 callsubr
          1 hvcurveto
          6 hlineto
          -1 1 2 2 rlineto
          40 hlineto
          -13 callsubr
          5 hlineto
          63 callsubr
          -1 hlineto
          118 callgsubr
          11 -103 callsubr
          -6 188 callsubr
          -4 1 rlineto
          1 hlineto
          3 -3 -2 1 -1 -3 -1 -1 -1 hhcurveto
          -20 18 rlineto
          -158 -135 -107 callgsubr
          234 -619 -82 callsubr
          hintmask 0010101101000000
          -21 callsubr
          -100 callsubr
          -99 callsubr
          hintmask 1001011110000000
          -70 callgsubr
          hintmask 0011011110000000
          -3 -4 2 -3 hhcurveto
          -59 hlineto
          -11 -10 -3 -11 hhcurveto
          -5 -4 1 2 -5 hvcurveto
          11 1 19 3 27 vhcurveto
          9 vlineto
          5 0 3 -1 146 callgsubr
          hhcurveto
          3 170 callsubr
          12 -20 27 4 vvcurveto
          1 0 0 1 vhcurveto
          4 vlineto
          5 15 3 11 1 6 -1 8 2 9 -3 7 -3 -1 rcurveline
          3 5 5 5 vvcurveto
          89 callgsubr
          rlineto
          3 -2 -2 3 hhcurveto
          3 1 10 4 8 -1 7 -2 6 hvcurveto
          -2 -1 -1 -2 -2 -3 1 -1 -3 vvcurveto
          -1 hlineto
          -3 2 -2 -3 -3 hvcurveto
          -6 3 3 -13 -3 47 rrcurveto
          47 vlineto
          6 24 3 19 14 19 -4 14 8 vvcurveto
          1 7 0 5 5 13 -7 3 7 vvcurveto
          9 vlineto
          47 vlineto
          9 -1 19 -2 30 vhcurveto
          -59 callsubr
          -2 68 3 7 rlineto
          11 65 63 7 64 25 31 -2 20 17 0 1 19 27 12 -3 15 hhcurveto
          7 7 1 2 6 hvcurveto
          2 -3 2 -109 -11 -3 -8 0 -9 -1 rlinecurve
          -3 -100 -60 -2 -27 hhcurveto
          -14 hlineto
          -3 -13 -12 -1 -9 hhcurveto
          -6 hlineto
          -3 -6 rlineto
          -1 -2 0 -4 -6 vvcurveto
          1 -39 1 -25 -11 vvcurveto
          -2 -33 rlineto
          3 3 callsubr
          -4 vvcurveto
          1 -11 rlineto
          -7 1 2 -6 9 hhcurveto
          4 1 4 2 7 21 20 -4 20 hhcurveto
          11 12 1 2 11 hvcurveto
          11 1 -38 -11 -5 -1 -16 -1 -27 hvcurveto
          -4 0 -3 1 -1 vhcurveto
          -6 hlineto
          21 callsubr
          vhcurveto
          -19 -3 -104 -4 -7 -3 -3 5 -35 -15 5 -9 -15 vvcurveto
          -57 vlineto
          -8 0 -5 1 -2 vhcurveto
          6 -5 -1 -1 rlineto
          -5 4 5 -2 7 hhcurveto
          62 hlineto
          56 49 -1 -1 56 hvcurveto
          3 2 3 1 3 3 2 -1 3 hhcurveto
          3 2 1 2 2 hvcurveto
          -19 3 -22 -21 vvcurveto
          -17 -1 -13 -3 -10 vhcurveto
          endchar
        </CharString>
        <CharString name="Ecircumflex">
          -14 callsubr
          -13 83 106 callsubr
          44 29 98 21 -21 26 -26 151 hintmask 1001011101000000
          406 -53 callsubr
          hintmask 0101011110000000
          -88 callgsubr
          -9 4 1 -11 -4 -5 -32 -40 -2 1 -32 -29 rlinecurve
          -25 -24 11 -2 2 -2 rlineto
          -3 6 -5 3 vhcurveto
          2 1 11 -3 rlineto
          11 -3 6 -2 0 vvcurveto
          14 3 rlineto
          35 0 -2 8 16 callgsubr
          -1 4 11 -1 5 hhcurveto
          3 hlineto
          9 13 -54 callsubr
          -7 13 -10 5 -4 vhcurveto
          6 156 callgsubr
          3 -39 callgsubr
          3 -1 1 3 231 callgsubr
          13 3 2 30 hhcurveto
          13 -3 rlineto
          3 18 8 8 hhcurveto
          4 -1 6 5 -1 -76 callgsubr
          13 3 rlineto
          -199 9 rmoveto
          -11 -11 -52 callsubr
          -7 -64 callsubr
          -2 hlineto
          -1 -7 -4 0 -3 hhcurveto
          -8 hlineto
          1 -1 -11 0 -22 hhcurveto
          -17 -2 hlineto
          -8 3 -5 1 -4 2 -3 1 rlinecurve
          8 8 32 27 0 6 35 37 rlinecurve
          13 14 7 5 rlineto
          172 callsubr
          5 7 7 4 -4 1 15 12 rlinecurve
          12 13 22 -21 rlineto
          -8 6 4 -4 2 hhcurveto
          3 -3 -1 -1 14 -10 12 callsubr
          21 -20 17 -20 9 -9 8 -9 rlinecurve
          41 -40 -20 -7 rlineto
          2 -40 vlineto
          -7 -4 0 -71 callsubr
          -9 hlineto
          -3 -2 0 1 -7 hvcurveto
          -2 hlineto
          -23 callgsubr
          0 -7 hhcurveto
          -2 hlineto
          -8 8 -47 callsubr
          -1 -1 -2 2 2 2 -8 9 rlineto
          3 -4 -3 3 -4 hhcurveto
          -8 8 -9 -8 -4 168 callgsubr
          -12 rlinecurve
          8 vlineto
          230 -638 rmoveto
          -2 -28 -28 -1 -28 -56 -55 3 -60 hhcurveto
          -4 2 rlineto
          3 -7 callgsubr
          3 vhcurveto
          hintmask 1001011101000000
          -3 10 -1 14 19 vvcurveto
          69 vlineto
          3 5 rlineto
          2 callsubr
          1 vvcurveto
          3 77 0 8 vhcurveto
          -2 hlineto
          14 12 -1 -2 9 hvcurveto
          hintmask 1001011100100000
          -21 callsubr
          hintmask 0010101110000000
          -100 callsubr
          -99 callsubr
          hintmask 1001011110000000
          -70 callgsubr
          hintmask 0011011110000000
          -3 -4 2 -3 hhcurveto
          -59 hlineto
          -11 -10 -3 -11 hhcurveto
          -5 -4 1 2 -5 hvcurveto
          11 1 19 3 27 vhcurveto
          9 vlineto
          5 0 3 -1 146 callgsubr
          hhcurveto
          3 170 callsubr
          12 -20 27 4 vvcurveto
          1 0 0 1 vhcurveto
          4 vlineto
          5 15 3 11 1 6 -1 8 2 9 -3 7 -3 -1 rcurveline
          3 5 5 5 vvcurveto
          89 callgsubr
          rlineto
          3 -2 -2 3 hhcurveto
          3 1 10 4 8 -1 7 -2 6 hvcurveto
          -2 -1 -1 -2 -2 -3 1 -1 -3 vvcurveto
          -1 hlineto
          -3 2 -2 -3 -3 hvcurveto
          -6 3 3 -13 -3 47 rrcurveto
          47 vlineto
          6 24 3 19 14 19 -4 14 8 vvcurveto
          1 7 0 5 5 13 -7 3 7 vvcurveto
          9 vlineto
          47 vlineto
          9 -1 19 -2 30 vhcurveto
          -59 callsubr
          -2 68 3 7 rlineto
          11 65 63 7 64 25 31 -2 20 17 0 1 19 27 12 -3 15 hhcurveto
          7 7 1 2 6 hvcurveto
          2 -3 2 -109 -11 -3 -8 0 -9 -1 rlinecurve
          -3 -100 -60 -2 -27 hhcurveto
          -14 hlineto
          -3 -13 -12 -1 -9 hhcurveto
          -6 hlineto
          -3 -6 rlineto
          -1 -2 0 -4 -6 vvcurveto
          1 -39 1 -25 -11 vvcurveto
          -2 -33 rlineto
          3 3 callsubr
          -4 vvcurveto
          1 -11 rlineto
          -7 1 2 -6 9 hhcurveto
          4 1 4 2 7 21 20 -4 20 hhcurveto
          11 12 1 2 11 hvcurveto
          11 1 -38 -11 -5 -1 -16 -1 -27 hvcurveto
          -4 0 -3 1 -1 vhcurveto
          -6 hlineto
          21 callsubr
          vhcurveto
          -19 -3 -104 -4 -7 -3 -3 5 -35 -15 5 -9 -15 vvcurveto
          -57 vlineto
          -8 0 -5 1 -2 vhcurveto
          6 -5 -1 -1 rlineto
          hintmask 1001011101000000
          -5 4 5 -2 7 hhcurveto
          62 hlineto
          56 49 -1 -1 56 hvcurveto
          3 2 3 1 3 3 2 -1 3 hhcurveto
          3 2 1 2 2 hvcurveto
          -19 3 -22 -21 vvcurveto
          -17 -1 -13 -3 -10 vhcurveto
          endchar
        </CharString>
        <CharString name="Edieresis">
          -14 callsubr
          -13 95 222 callsubr
          44 197 callsubr
          -118 180 hintmask 1001001011010000
          215 856 rmoveto
          15 callsubr
          hintmask 1001010111010000
          102 callgsubr
          hintmask 1001001011010000
          -7 -8 119 callgsubr
          -1 vlineto
          -6 -2 -32 callsubr
          hlineto
          -1 1 -1 2 -2 vhcurveto
          1 hlineto
          -3 -15 1 -5 -3 -7 -1 -7 rcurveline
          -11 vlineto
          -13 callgsubr
          1 -8 rlineto
          -8 vlineto
          -9 0 -5 1 -1 vhcurveto
          -13 vlineto
          -2 1 -1 2 -1 102 callsubr
          166 callgsubr
          16 -1 rlineto
          -1 8 9 -1 9 hhcurveto
          3 74 callsubr
          8 hlineto
          -11 callgsubr
          4 hhcurveto
          1 3 37 callsubr
          -47 callgsubr
          2 -10 callsubr
          2 9 vlineto
          5 0 -48 callgsubr
          vhcurveto
          -1 6 rlineto
          -17 callsubr
          -1 2 rlineto
          1 16 callsubr
          -59 callsubr
          2 34 rlineto
          6 0 3 124 callsubr
          168 -5 rmoveto
          4 0 3 1 1 vhcurveto
          15 callsubr
          hintmask 1001010111010000
          102 callgsubr
          hintmask 1001001011010000
          -7 -8 119 callgsubr
          -1 vlineto
          -6 -2 -32 callsubr
          hlineto
          -1 1 -1 2 -2 vhcurveto
          1 hlineto
          -3 -15 1 -5 -3 -7 -1 -7 rcurveline
          -11 vlineto
          -13 callgsubr
          1 -8 rlineto
          -8 vlineto
          -9 0 -5 1 -1 vhcurveto
          -13 vlineto
          -2 1 -1 2 -1 102 callsubr
          166 callgsubr
          16 -1 rlineto
          -1 8 9 -1 9 hhcurveto
          3 74 callsubr
          8 hlineto
          -11 callgsubr
          4 hhcurveto
          1 3 37 callsubr
          -47 callgsubr
          2 -10 callsubr
          2 9 vlineto
          5 0 -48 callgsubr
          vhcurveto
          -1 6 rlineto
          -17 callsubr
          -1 2 rlineto
          1 16 callsubr
          -59 callsubr
          28 vlineto
          -7 -31 rmoveto
          -1 -21 rlineto
          hintmask 0101010111010000
          -11 -1 -6 36 callsubr
          -7 hlineto
          -4 -1 hlineto
          -26 callgsubr
          hhcurveto
          -18 -2 rlineto
          -3 -3 -1 -3 hhcurveto
          1 vlineto
          -18 -2 rlineto
          -13 6 5 5 -3 hvcurveto
          -30 callgsubr
          3 vlineto
          16 vlineto
          -2 13 1 5 -69 callsubr
          1 19 rlineto
          6 0 -48 callgsubr
          vhcurveto
          5 1 rlineto
          -13 callsubr
          38 hlineto
          12 -2 rlineto
          1 -39 callgsubr
          4 5 1 7 hhcurveto
          -45 callsubr
          1 -1 vhcurveto
          -13 vlineto
          -5 1 -5 -4 vvcurveto
          -170 -10 rmoveto
          -1 -21 rlineto
          -11 -1 -6 36 callsubr
          -7 hlineto
          -4 -1 hlineto
          -26 callgsubr
          hhcurveto
          -18 -2 rlineto
          -3 -3 -1 -3 hhcurveto
          1 vlineto
          -18 -2 rlineto
          -13 6 5 5 -3 hvcurveto
          -30 callgsubr
          3 vlineto
          16 vlineto
          -2 13 1 5 -69 callsubr
          1 19 rlineto
          6 0 -48 callgsubr
          vhcurveto
          5 1 rlineto
          -13 callsubr
          38 hlineto
          12 -2 rlineto
          1 -39 callgsubr
          4 5 1 7 hhcurveto
          -45 callsubr
          1 -1 vhcurveto
          -13 vlineto
          -5 1 -5 -4 vvcurveto
          252 -673 -82 callsubr
          hintmask 1000101010100000
          -21 callsubr
          -100 callsubr
          hintmask 0011010111010000
          -99 callsubr
          hintmask 1001010111010000
          -70 callgsubr
          hintmask 0011010111010000
          -3 -4 2 -3 hhcurveto
          -59 hlineto
          -11 -10 -3 -11 hhcurveto
          -5 -4 1 2 -5 hvcurveto
          11 1 19 3 27 vhcurveto
          9 vlineto
          5 0 3 -1 146 callgsubr
          hhcurveto
          3 170 callsubr
          12 -20 27 4 vvcurveto
          1 0 0 1 vhcurveto
          4 vlineto
          5 15 3 11 1 6 -1 8 2 9 -3 7 -3 -1 rcurveline
          3 5 5 5 vvcurveto
          89 callgsubr
          rlineto
          3 -2 -2 3 hhcurveto
          3 1 10 4 8 -1 7 -2 6 hvcurveto
          -2 -1 -1 -2 -2 -3 1 -1 -3 vvcurveto
          -1 hlineto
          -3 2 -2 -3 -3 hvcurveto
          -6 3 3 -13 -3 47 rrcurveto
          47 vlineto
          6 24 3 19 14 19 -4 14 8 vvcurveto
          1 7 0 5 5 13 -7 3 7 vvcurveto
          9 vlineto
          47 vlineto
          9 -1 19 -2 30 vhcurveto
          -59 callsubr
          -2 68 3 7 rlineto
          11 65 63 7 64 25 31 -2 20 17 0 1 19 27 12 -3 15 hhcurveto
          7 7 1 2 6 hvcurveto
          2 -3 2 -109 -11 -3 -8 0 -9 -1 rlinecurve
          -3 -100 -60 -2 -27 hhcurveto
          -14 hlineto
          -3 -13 -12 -1 -9 hhcurveto
          -6 hlineto
          -3 -6 rlineto
          -1 -2 0 -4 -6 vvcurveto
          1 -39 1 -25 -11 vvcurveto
          -2 -33 rlineto
          3 3 callsubr
          -4 vvcurveto
          1 -11 rlineto
          -7 1 2 -6 9 hhcurveto
          4 1 4 2 7 21 20 -4 20 hhcurveto
          11 12 1 2 11 hvcurveto
          11 1 -38 -11 -5 -1 -16 -1 -27 hvcurveto
          -4 0 -3 1 -1 vhcurveto
          -6 hlineto
          21 callsubr
          vhcurveto
          -19 -3 -104 -4 -7 -3 -3 5 -35 -15 5 -9 -15 vvcurveto
          -57 vlineto
          -8 0 -5 1 -2 vhcurveto
          6 -5 -1 -1 rlineto
          -5 4 5 -2 7 hhcurveto
          62 hlineto
          56 49 -1 -1 56 hvcurveto
          3 2 3 1 3 3 2 -1 3 hhcurveto
          3 2 1 2 2 hvcurveto
          -19 3 -22 -21 vvcurveto
          -17 -1 -13 -3 -10 vhcurveto
          endchar
        </CharString>
        <CharString name="Egrave">
          -14 callsubr
          -13 82 106 callsubr
          43 197 callsubr
          hintmask 0101011110000000
          150 894 rmoveto
          -7 -7 -6 -6 -7 -5 rrcurveto
          -3 hlineto
          -4 -2 -1 -2 -1 hvcurveto
          -3 -2 -39 callsubr
          -3 -1 -2 -23 callgsubr
          -10 3 rcurveline
          1 -11 rlineto
          -3 21 callsubr
          vhcurveto
          -6 -5 4 -5 51 -40 11 -12 10 -11 13 -11 rlinecurve
          8 -8 rlineto
          -8 7 3 -7 3 hhcurveto
          13 hlineto
          1 -48 callgsubr
          5 hvcurveto
          5 20 callgsubr
          0 vvcurveto
          6 hlineto
          8 1 2 33 hhcurveto
          7 -1 2 -3 4 1 rlineto
          7 6 3 5 15 hvcurveto
          4 -2 7 6 rlineto
          -1 1 0 0 -52 callgsubr
          11 1 -25 24 -32 29 -2 205 callsubr
          -25 23 1 2 -8 4 -1 3 -23 callgsubr
          3 rlinecurve
          -2 hlineto
          -9 9 -3 4 -4 4 -4 3 rlinecurve
          -7 6 2 2 -6 5 rlineto
          3 -26 callgsubr
          hhcurveto
          -8 10 -20 -25 rlineto
          -5 -1 135 callsubr
          63 -135 rmoveto
          -8 9 -5 6 -1 1 -28 23 -21 22 -27 23 rlinecurve
          3 3 45 39 8 13 2 3 rcurveline
          7 -11 13 -8 1 -1 27 -26 rcurveline
          2 vlineto
          22 -20 35 -40 -1 0 32 -30 rlinecurve
          8 -8 -3 -1 -4 0 -4 -3 rlinecurve
          -6 -2 -4 1 rlineto
          -27 hlineto
          -12 -6 -1 -5 hhcurveto
          -9 hlineto
          -3 -2 0 1 -7 hvcurveto
          -3 hlineto
          -23 callgsubr
          0 -7 hhcurveto
          -2 hlineto
          239 -616 -82 callsubr
          hintmask 0010101101000000
          -21 callsubr
          -100 callsubr
          -99 callsubr
          hintmask 1001011110000000
          -70 callgsubr
          hintmask 0011011110000000
          -3 -4 2 -3 hhcurveto
          -59 hlineto
          -11 -10 -3 -11 hhcurveto
          -5 -4 1 2 -5 hvcurveto
          11 1 19 3 27 vhcurveto
          9 vlineto
          5 0 3 -1 146 callgsubr
          hhcurveto
          3 170 callsubr
          12 -20 27 4 vvcurveto
          1 0 0 1 vhcurveto
          4 vlineto
          5 15 3 11 1 6 -1 8 2 9 -3 7 -3 -1 rcurveline
          3 5 5 5 vvcurveto
          89 callgsubr
          rlineto
          3 -2 -2 3 hhcurveto
          3 1 10 4 8 -1 7 -2 6 hvcurveto
          -2 -1 -1 -2 -2 -3 1 -1 -3 vvcurveto
          -1 hlineto
          -3 2 -2 -3 -3 hvcurveto
          -6 3 3 -13 -3 47 rrcurveto
          47 vlineto
          6 24 3 19 14 19 -4 14 8 vvcurveto
          1 7 0 5 5 13 -7 3 7 vvcurveto
          9 vlineto
          47 vlineto
          9 -1 19 -2 30 vhcurveto
          -59 callsubr
          -2 68 3 7 rlineto
          11 65 63 7 64 25 31 -2 20 17 0 1 19 27 12 -3 15 hhcurveto
          7 7 1 2 6 hvcurveto
          2 -3 2 -109 -11 -3 -8 0 -9 -1 rlinecurve
          -3 -100 -60 -2 -27 hhcurveto
          -14 hlineto
          -3 -13 -12 -1 -9 hhcurveto
          -6 hlineto
          -3 -6 rlineto
          -1 -2 0 -4 -6 vvcurveto
          1 -39 1 -25 -11 vvcurveto
          -2 -33 rlineto
          3 3 callsubr
          -4 vvcurveto
          1 -11 rlineto
          -7 1 2 -6 9 hhcurveto
          4 1 4 2 7 21 20 -4 20 hhcurveto
          11 12 1 2 11 hvcurveto
          11 1 -38 -11 -5 -1 -16 -1 -27 hvcurveto
          -4 0 -3 1 -1 vhcurveto
          -6 hlineto
          21 callsubr
          vhcurveto
          -19 -3 -104 -4 -7 -3 -3 5 -35 -15 5 -9 -15 vvcurveto
          -57 vlineto
          -8 0 -5 1 -2 vhcurveto
          6 -5 -1 -1 rlineto
          -5 4 5 -2 7 hhcurveto
          62 hlineto
          56 49 -1 -1 56 hvcurveto
          3 2 3 1 3 3 2 -1 3 hhcurveto
          3 2 1 2 2 hvcurveto
          -19 3 -22 -21 vvcurveto
          -17 -1 -13 -3 -10 vhcurveto
          endchar
        </CharString>
        <CharString name="Eth">
          62 8 27 -27 162 -143 -21 157 115 -15 151 295 -24 callsubr
          -5 66 -66 246 -200 20 -20 126 -9 171 -99 99 -10 140 hintmask 1001010100010000
          455 456 208 callsubr
          hintmask 1000101001010000
          -32 -32 1 -32 hhcurveto
          -37 hlineto
          -41 -44 -3 -19 -3 hvcurveto
          -1 -11 -1 -8 -11 vvcurveto
          -29 vlineto
          -56 5 -51 -56 vvcurveto
          -17 -1 -17 -1 -19 vhcurveto
          1 -7 -6 0 -7 hhcurveto
          -12 -11 -1 -3 -2 1 -1 1 hvcurveto
          hintmask 0011010100010000
          -3 -3 -16 -31 vvcurveto
          -51 vlineto
          -5 0 -5 1 -3 vhcurveto
          -13 callgsubr
          1 -8 hlineto
          -18 3 6 -3 vvcurveto
          -3 vlineto
          -1 1 5 0 7 hhcurveto
          7 8 0 1 11 hvcurveto
          2 hlineto
          3 -23 -1 -20 3 -23 rrcurveto
          -2 -11 -1 -11 -10 -27 5 -27 -25 -11 -2 -8 -11 -15 2 -13 -7 vvcurveto
          -3 0 -1 -1 vhcurveto
          -3 4 0 -10 5 hhcurveto
          hintmask 1001010100010000
          3 0 2 3 hhcurveto
          hintmask 0011010100010000
          3 4 -2 3 hhcurveto
          4 3 rlineto
          hintmask 1001010100010000
          8 9 -1 11 hhcurveto
          12 176 callsubr
          hintmask 1001010100000100
          193 callsubr
          -431 -178 rmoveto
          -12 -4 rlineto
          -1 37 -1 51 39 vvcurveto
          48 1 rlineto
          75 vlineto
          7 203 rlineto
          5 11 53 11 46 hhcurveto
          13 12 -1 -1 12 hvcurveto
          9 hlineto
          86 62 -68 -64 35 hvcurveto
          35 -60 12 -63 -68 vvcurveto
          -31 -3 -30 -6 -29 vhcurveto
          4 -1 -5 -46 8 3 -30 -70 rlinecurve
          -12 -27 -19 -38 -51 -72 rrcurveto
          -12 -19 5 -15 hhcurveto
          -166 -5 21 -2 -4 -4 rrcurveto
          -4 hlineto
          5 -13 -26 1 -19 -3 -3 -1 -3 hhcurveto
          -1 3 rlineto
          -9 15 -2 13 12 8 1 7 5 vvcurveto
          7 2 50 -9 91 vhcurveto
          204 callgsubr
          3 vhcurveto
          3 -2 14 -3 13 vhcurveto
          hintmask 1001010100010000
          106 hmoveto
          2 -32 1 -22 -12 -11 -1 -5 -8 vvcurveto
          -23 18 -2 17 17 13 1 1 20 vhcurveto
          55 18 29 97 77 vvcurveto
          53 -22 103 -59 21 vhcurveto
          2 -14 -15 1 -17 hhcurveto
          -16 -24 2 -16 hvcurveto
          -10 vlineto
          hintmask 1001010000101000
          -33 5 -42 -32 vvcurveto
          63 -1 rlineto
          -127 vlineto
          hintmask 1001010100010000
          15 -102 rmoveto
          hintmask 0100110010000100
          -3 -15 -16 -3 -17 hhcurveto
          -10 -9 2 4 -9 hvcurveto
          -3 87 rlineto
          35 hlineto
          39 3 rlineto
          3 0 3 3 hvcurveto
          -1 12 0 17 -1 23 1 86 rcurveline
          5 -3 -9 2 -15 hhcurveto
          -9 hlineto
          -30 -1 rlineto
          39 -7 43 17 vvcurveto
          11 18 3 9 7 49 -2 -16 vhcurveto
          51 -32 13 -77 3 -73 -8 -60 -13 -69 -53 -24 rrcurveto
          201 79 rmoveto
          3 2 vlineto
          endchar
        </CharString>
        <CharString name="Euro">
          70 0 167 -147 -21 158 116 -18 106 -12 63 -17 114 -114 182 -81 212 -149 149 1 -24 callsubr
          21 20 hintmask 1001010010010000
          454 107 rmoveto
          52 vlineto
          -3 7 rlineto
          -6 -64 callsubr
          -36 hlineto
          -22 2 rlineto
          -34 hlineto
          7 -23 -32 1 -15 hhcurveto
          1 vlineto
          -26 6 -20 13 -7 3 -1 3 -52 callsubr
          -19 19 -3 5 rlineto
          -2 -2 3 7 -2 hvcurveto
          -1 hlineto
          -1 6 -1 4 -1 1 1 5 -1 -1 3 3 rrcurveto
          35 hlineto
          3 -48 callgsubr
          5 hvcurveto
          18 1 rlineto
          23 hlineto
          23 -3 1 3 rlineto
          1 1 1 3 3 hvcurveto
          1 3 rlineto
          101 callgsubr
          2 6 rlineto
          81 -2 vlineto
          -2 5 rlineto
          -32 hlineto
          -11 -9 0 1 -11 hvcurveto
          -1 2 rlineto
          -1 -1 -2 0 -3 hhcurveto
          -1 -1 rlineto
          241 callgsubr
          -3 hhcurveto
          -1 -1 rlineto
          -1 -13 -8 -1 -3 hhcurveto
          -23 -3 8 12 7 -3 9 11 hvcurveto
          2 vlineto
          1 1 -71 callsubr
          54 -1 rlineto
          3 6 0 1 11 hvcurveto
          6 2 hlineto
          13 1 rlineto
          19 hlineto
          7 3 3 12 rlineto
          -1 hlineto
          1 8 0 6 3 vvcurveto
          -1 hlineto
          229 callsubr
          -1 5 -1 9 vhcurveto
          1 1 3 1 7 vhcurveto
          4 vlineto
          3 1 4 7 vvcurveto
          25 -11 4 -15 vhcurveto
          -7 -6 36 callsubr
          -47 hlineto
          3 12 5 3 5 7 rrcurveto
          2 vlineto
          11 10 12 4 rlineto
          1 1 -51 callgsubr
          hhcurveto
          2 vlineto
          13 19 10 17 hhcurveto
          10 2 35 4 rlineto
          -1 7 4 0 1 hhcurveto
          16 -3 rlineto
          12 7 1 2 2 hvcurveto
          6 -2 5 2 4 -2 rlineto
          2 21 vlineto
          2 -5 rlineto
          4 hlineto
          1 5 rlineto
          1 2 2 5 5 vhcurveto
          9 -1 7 -3 5 vhcurveto
          -1 16 1 57 rlineto
          196 callsubr
          -1 28 rlineto
          hintmask 1001010000110000
          -2 2 -1 2 1 vvcurveto
          hintmask 1001010001010000
          -1 -7 -7 0 -7 hhcurveto
          hintmask 1001000100010000
          -19 -1 rlineto
          -1 -11 -5 -1 -1 hhcurveto
          2 -18 vlineto
          -7 -5 -1 -71 callsubr
          -47 2 rlineto
          hintmask 1001010001010000
          1 -11 -4 0 -1 hhcurveto
          hintmask 1001000100010000
          79 callsubr
          hintmask 1001010001010000
          1 vlineto
          hintmask 1001000100010000
          -12 -1 rlineto
          hintmask 0110100001010000
          1 -7 -7 0 -7 hhcurveto
          -11 -5 -1 -3 -28 hvcurveto
          -28 -7 -8 -2 rlineto
          -1 -2 -1 -1 hhcurveto
          -18 -10 -7 -1 -7 -7 rlineto
          -5 -4 -1 -3 -3 hvcurveto
          -18 -11 31 callsubr
          -20 -15 -39 callsubr
          -2 -1 -1 -2 -1 vhcurveto
          -12 -9 -6 -9 -7 -6 rlineto
          -3 vlineto
          -11 -10 rlineto
          -5 vlineto
          -4 -12 -9 -33 -5 -2 rlineto
          -1 -1 -4 -1 -7 vhcurveto
          -1 hlineto
          -6 -46 rlineto
          -11 -1 -20 -1 vvcurveto
          -1 vlineto
          -1 -38 rlineto
          -1 -7 -1 -3 -1 vvcurveto
          1 -48 rlineto
          -7 0 -3 1 -1 vhcurveto
          -1 hlineto
          2 -33 rlineto
          -7 1 -15 1 -23 vhcurveto
          3 -12 rlineto
          -43 7 -32 3 -15 vhcurveto
          1 hlineto
          1 103 callgsubr
          3 -2 8 -31 11 -19 rlineto
          -1 1 1 0 1 hhcurveto
          -3 vlineto
          8 -12 2 -6 rlineto
          -1 1 1 0 1 hhcurveto
          7 -12 rlineto
          -1 1 1 -1 1 hhcurveto
          1 87 callgsubr
          2 hlineto
          19 -20 7 -3 -39 callsubr
          8 2 -20 22 vhcurveto
          -8 16 13 -6 3 hhcurveto
          4 -4 rlineto
          4 6 -1 -3 9 hvcurveto
          3 127 callsubr
          17 -1 rlineto
          -1 7 3 -1 3 hhcurveto
          -2 vlineto
          -37 callsubr
          hintmask 1001010010010000
          -1 -2 54 1 rlineto
          hintmask 0110100100010000
          -1 7 6 -1 5 hhcurveto
          hintmask 1000100100010000
          -11 callgsubr
          4 hhcurveto
          1 vlineto
          1 1 2 0 3 7 5 -1 3 hhcurveto
          55 28 callsubr
          3 3 0 4 hhcurveto
          3 -81 callsubr
          15 -1 rlineto
          3 74 callsubr
          7 -1 rlineto
          19 -8 8 8 14 hvcurveto
          -159 448 rmoveto
          159 callsubr
          -1 -4 -1 -4 -4 vvcurveto
          -4 1 -4 1 -4 59 callsubr
          -21 vlineto
          1 -1 3 callsubr
          -12 -25 -6 -12 -3 -1 1 -1 hhcurveto
          -49 1 rlineto
          -7 -3 1 -7 -11 hvcurveto
          -19 2 -12 3 -20 vhcurveto
          -1 11 14 -1 11 4 3 1 3 hhcurveto
          27 hlineto
          80 callsubr
          -1 7 5 -1 5 hhcurveto
          1 -11 callgsubr
          5 hhcurveto
          25 1 -8 -23 hvcurveto
          hintmask 0110100100010000
          -12 0 -16 -1 -19 vhcurveto
          -40 -3 -2 1 -4 -4 -4 -4 rcurveline
          -14 6 rlineto
          -1 -5 -4 -1 -2 hhcurveto
          -38 hlineto
          -8 -8 -1 -2 -13 vvcurveto
          -3 0 -5 5 -9 vhcurveto
          23 -28 21 -25 20 -2 -1 1 rlinecurve
          2 1 rlineto
          hintmask 1001010010010000
          24 -7 rlineto
          -1 4 6 -2 3 hhcurveto
          7 hlineto
          7 -3 9 0 11 -1 rrcurveto
          4 3 1 4 hhcurveto
          hintmask 0110100001010000
          4 4 -1 -3 5 hvcurveto
          38 hlineto
          21 -3 rlineto
          46 hlineto
          -9 -47 4 -86 rlineto
          -5 -7 -2 -15 vhcurveto
          -17 -25 2 -27 -20 -19 -5 -23 hhcurveto
          -3 -4 169 callsubr
          -50 hlineto
          -3 0 -1 -3 hhcurveto
          -49 9 -53 32 2 -3 -7 4 rlinecurve
          -30 36 rlineto
          -11 11 -6 9 7 vvcurveto
          -5 13 -1 5 -2 6 -5 9 rlinecurve
          -7 29 rlineto
          8 -8 22 23 vvcurveto
          -5 43 rlineto
          -1 222 callgsubr
          -2 42 rlineto
          63 vlineto
          4 -1 5 3 vvcurveto
          2 8 rlineto
          18 vlineto
          7 1 12 3 vvcurveto
          17 vlineto
          5 1 5 5 vvcurveto
          5 37 rlineto
          7 4 7 7 vvcurveto
          4 -6 7 27 -1 -1 4 14 rlineto
          6 vlineto
          3 7 17 17 1 3 rlineto
          207 callgsubr
          hlineto
          8 10 rlineto
          8 2 4 4 7 213 callgsubr
          2 2 hvcurveto
          7 6 -2 -2 rlineto
          9 hlineto
          29 22 3 1 4 2 4 3 rlinecurve
          3 3 29 8 34 4 rlineto
          3 6 9 1 13 21 2 -2 4 -25 callsubr
          3 -1 rlineto
          1 0 0 1 2 2 0 1 1 vhcurveto
          60 -3 rlineto
          1 2 3 0 4 hhcurveto
          8 hlineto
          4 3 0 1 2 hvcurveto
          22 hlineto
          11 1 12 -1 12 1 -2 -2 rcurveline
          -1 -1 -1 -7 -13 vvcurveto
          1 -5 1 -4 -3 vvcurveto
          -1 -56 12 callsubr
          1 -15 rlineto
          -5 4 -5 -5 vvcurveto
          -4 -4 -2 -3 -1 -3 rrcurveto
          hintmask 1001001000110000
          7 -3 -20 2 -23 hhcurveto
          -41 hlineto
          -5 -31 -16 -2 1 hhcurveto
          -10 hlineto
          -14 -6 -8 4 -19 -11 -11 -3 rcurveline
          -7 -6 -5 -1 31 callsubr
          -9 -15 rlineto
          hintmask 1001000100010000
          -5 -5 -3 -6 -3 -23 rrcurveto
          62 hlineto
          13 17 -1 -3 hvcurveto
          -3 vlineto
          1 -1 0 -2 -5 vvcurveto
          -1 -8 0 -4 -1 vvcurveto
          endchar
        </CharString>
        <CharString name="F">
          74 16 -21 23 -21 412 144 -35 -20 23 32 109 29 8 -20 hstemhm
          44 161 -156 168 -148 136 12 117 0 22 105 28 hintmask 1010010010011000
          357 264 rmoveto
          2 callsubr
          3 4 -1 3 3 vvcurveto
          3 2 2 3 2 vhcurveto
          3 vlineto
          -3 1 -2 1 1 vvcurveto
          -5 105 7 5 9 -5 5 5 rlinecurve
          -1 3 -2 -1 3 vvcurveto
          4 vlineto
          -7 callgsubr
          -1 vhcurveto
          -3 -4 -4 -3 hhcurveto
          -1 -1 1 1 hvcurveto
          55 callsubr
          3 -7 2 -13 vhcurveto
          -15 -18 -2 -20 hhcurveto
          -35 -34 5 25 17 3 22 1 1 hvcurveto
          2 -2 rlineto
          hintmask 1001101100101000
          1 1 0 4 5 vvcurveto
          8 vlineto
          3 0 9 4 vhcurveto
          3 0 -1 3 hhcurveto
          3 6 9 1 12 hhcurveto
          10 12 -1 -2 13 hvcurveto
          120 11 -6 -8 32 8 rrcurveto
          4 3 5 2 8 hhcurveto
          11 2 -6 -8 3 hvcurveto
          1 3 1 1 2 1 7 3 rcurveline
          5 3 5 3 12 vvcurveto
          3 vlineto
          -8 2 rlineto
          3 1 3 1 1 vhcurveto
          1 99 -2 8 rlineto
          7 7 -9 11 vvcurveto
          -4 1 -10 23 -5 -3 3 -3 -3 -3 rlinecurve
          -114 3 rlineto
          -3 -83 -56 -4 -119 hhcurveto
          -9 -9 0 1 -9 hvcurveto
          hintmask 1010010010011000
          3 3 7 -2 5 3 rrcurveto
          -8 hlineto
          -11 -6 3 -11 hhcurveto
          1 vlineto
          -4 -5 -1 -15 -4 -3 -2 2 -3 hhcurveto
          95 callgsubr
          hvcurveto
          8 -4 rlineto
          4 -50 2 -49 -48 -80 -9 -106 -45 vvcurveto
          -28 5 -6 1 vhcurveto
          1 vlineto
          5 -3 4 3 vvcurveto
          2 3 rlineto
          hintmask 0110010100101000
          -1 5 0 6 5 vvcurveto
          18 vlineto
          38 3 39 6 39 vhcurveto
          2 -8 rlineto
          -116 -4 0 -269 -9 hhcurveto
          -2 -2 rlineto
          -3 3 0 3 -3 vhcurveto
          -17 -9 2 -4 vvcurveto
          -4 6 -3 5 -1 vhcurveto
          3 5 -3 6 5 4 4 -3 0 -4 1 -4 rrcurveto
          24 24 1 24 hhcurveto
          23 23 -1 -1 27 hvcurveto
          hintmask 1010010100101000
          9 -5 rlineto
          hintmask 0110010100101000
          187 callsubr
          1 -1 7 5 -3 1 1 8 rlinecurve
          -9 1 rlineto
          4 2 2 5 vhcurveto
          3 hlineto
          -2 12 -1 13 13 vvcurveto
          17 vlineto
          7 104 callgsubr
          7 44 -7 59 7 51 8 -1 9 2 19 4 19 3 37 1 31 7 rrcurveto
          -2 vlineto
          6 2 rlineto
          103 358 rmoveto
          -1 0 -5 -1 -7 vhcurveto
          3 -27 1 -15 -1 vvcurveto
          -9 -9 -1 -8 vhcurveto
          -12 -11 1 -11 hhcurveto
          -8 -5 0 -71 callsubr
          2 90 callgsubr
          81 callsubr
          -1 -1 0 -1 vhcurveto
          -5 hlineto
          -2 -23 callgsubr
          hvcurveto
          2 -1 -1 163 callgsubr
          -3 -7 -7 6 -8 hhcurveto
          -9 -7 -2 -4 -6 hvcurveto
          -4 4 -7 -4 -10 0 -56 -3 rlinecurve
          -32 -2 -3 1 0 4 -3 1 rlinecurve
          233 callgsubr
          -5 hhcurveto
          -2 hlineto
          -2 5 rlineto
          -3 -7 -12 -4 -8 vvcurveto
          0 -30 callsubr
          2 -8 3 -5 2 -7 4 -1 rlinecurve
          1 -75 -3 25 -5 -9 2 -12 -3 -11 rlinecurve
          3 1 -71 callsubr
          -2 -2 rlineto
          1 hlineto
          -1 -1 rlineto
          -1 -39 callgsubr
          -3 vhcurveto
          -8 -3 vlineto
          -3 -2 -1 -2 -2 hvcurveto
          -7 12 1 -7 vvcurveto
          -2 -55 callgsubr
          3 -3 4 4 -2 7 4 3 rlinecurve
          -1 1 -51 callgsubr
          hhcurveto
          2 hlineto
          3 -2 callgsubr
          5 16 17 2 16 hhcurveto
          20 19 -3 -4 20 hvcurveto
          3 -8 1 -18 -48 -12 -1 -2 -7 vvcurveto
          -6 1 -5 2 -5 vhcurveto
          -8 -29 -25 -2 -19 -51 16 15 -9 hhcurveto
          -4 2 -13 -1 -7 hvcurveto
          -7 1 -3 1 0 vvcurveto
          -6 -4 -2 -4 -2 hvcurveto
          -3 1 2 -1 3 hhcurveto
          1 8 1 1 1 hvcurveto
          95 callgsubr
          vvcurveto
          -5 vlineto
          1 -1 1 -41 1 -81 rrcurveto
          159 callsubr
          -2 -2 hlineto
          -3 2 -3 -8 vvcurveto
          -3 vlineto
          -29 callsubr
          -2 rlineto
          -3 3 1 -3 vvcurveto
          -1 hlineto
          -5 -25 5 -32 -8 -25 rrcurveto
          -5 -25 -13 -3 -2 hhcurveto
          -38 -3 -3 4 rlineto
          1 -1 -1 0 -3 hhcurveto
          -2 2 hlineto
          -38 4 rlineto
          hintmask 1010010001101000
          -1 7 0 7 7 vvcurveto
          22 vlineto
          60 5 64 44 vvcurveto
          44 -1 23 -3 28 vhcurveto
          3 108 1 109 4 113 5 -11 3 -7 3 -4 rrcurveto
          -1 0 -71 callsubr
          1 -3 rlineto
          -1 -1 0 -1 vhcurveto
          -3 -2 rlineto
          -3 3 2 -1 3 hhcurveto
          8 callsubr
          7 -2 5 -1 7 vhcurveto
          3 0 -1 3 11 7 4 9 hhcurveto
          5 5 -1 -3 5 hvcurveto
          17 3 45 3 73 1 rrcurveto
          -29 callgsubr
          1 2 3 0 -2 3 hhcurveto
          1 0 0 1 1 hvcurveto
          2 vlineto
          9 3 rlineto
          -5 vlineto
          -1 1 22 0 45 23 16 1 11 12 6 -1 1 hhcurveto
          8 hlineto
          -3 6 4 -1 2 hhcurveto
          1 0 0 1 hvcurveto
          -1 3 rlineto
          8 -1 -7 -5 hvcurveto
          -26 vlineto
          hintmask 1010010010011000
          -409 -181 rmoveto
          11 1 7 7 vvcurveto
          8 vlineto
          1 0 -21 -1 -5 -1 -3 -1 -3 hvcurveto
          6 -17 rmoveto
          -1 hlineto
          1 7 rlineto
          154 -28 rmoveto
          -2 2 rlineto
          126 callsubr
          hvcurveto
          endchar
        </CharString>
        <CharString name="G">
          61 -9 27 -27 162 83 128 -14 146 -146 219 -97 24 62 28 -28 148 hstemhm
          34 145 -17 98 -98 173 -91 219 -21 21 hintmask 0110011010010000
          455 363 rmoveto
          1 -5 -6 0 -5 hhcurveto
          -47 -19 -1 -3 -25 hvcurveto
          3 -7 -7 -1 -8 hhcurveto
          -39 -28 -1 -2 -17 hvcurveto
          1 -19 1 -13 -13 vvcurveto
          -23 -2 -18 -3 -31 vhcurveto
          5 -6 rlineto
          63 hlineto
          12 -3 1 -4 -16 vvcurveto
          -27 1 -33 -68 -59 -15 54 38 vhcurveto
          hintmask 1001000110010000
          33 8 37 35 vvcurveto
          11 -1 7 -1 11 vhcurveto
          3 1 1 2 vhcurveto
          31 -9 30 31 vvcurveto
          9 5 14 9 18 vhcurveto
          36 19 20 6 27 hhcurveto
          25 25 -21 -24 4 hvcurveto
          5 -11 -2 -15 8 -11 rrcurveto
          hintmask 1010010110001000
          -3 19 18 -1 19 9 4 1 16 hhcurveto
          21 hlineto
          11 8 2 4 4 hvcurveto
          49 vlineto
          62 -6 62 -63 29 vhcurveto
          17 -64 -67 8 -68 hhcurveto
          -34 -57 -27 -35 -27 hvcurveto
          -25 -32 0 -8 -3 -9 rrcurveto
          -3 -30 callsubr
          -7 -9 5 -9 -4 -9 rrcurveto
          -80 -4 -81 -81 vvcurveto
          -25 0 -48 7 -73 vhcurveto
          3 -33 7 -49 13 -23 21 -36 55 -40 45 -3 68 3 69 -6 60 24 rrcurveto
          74 29 11 102 86 vvcurveto
          45 -4 46 -1 40 vhcurveto
          -16 -206 rmoveto
          -3 -9 1 -57 -22 -22 -14 -18 rcurveline
          -1 1 rlineto
          -9 -19 -15 -13 -23 hhcurveto
          -7 -28 -37 -2 -36 -15 -16 3 -13 hhcurveto
          56 callgsubr
          3 -3 rlineto
          -4 -9 -9 0 -15 hhcurveto
          -9 -51 15 47 -29 hvcurveto
          -1 26 callsubr
          -3 1 -2 3 -3 vhcurveto
          -11 9 -4 12 -4 15 6 -10 rcurveline
          -12 56 rlineto
          95 callgsubr
          vvcurveto
          -3 vlineto
          -7 11 -1 15 15 vvcurveto
          9 1 9 2 8 vhcurveto
          -1 vlineto
          -3 2 -3 1 -3 vhcurveto
          1 -51 callgsubr
          6 vvcurveto
          10 -2 12 -3 15 vhcurveto
          2 -1 -4 54 -52 callsubr
          13 -1 13 13 vvcurveto
          27 1 27 3 27 vhcurveto
          3 hlineto
          36 -5 40 39 vvcurveto
          40 5 38 20 32 vhcurveto
          43 39 46 12 57 hhcurveto
          60 75 -6 -34 47 hvcurveto
          51 -37 -7 -83 3 -38 rrcurveto
          -2 -12 -8 -1 -4 -3 0 1 -1 hhcurveto
          -3 4 rlineto
          -3 -31 -19 -1 -11 hhcurveto
          hintmask 1010011000101000
          -12 5 8 -8 hhcurveto
          48 -47 34 -45 -19 -16 -4 -15 -13 vhcurveto
          15 4 14 9 17 1 19 -3 17 0 15 -11 rrcurveto
          hintmask 1000100001001000
          -11 -11 2 -12 hhcurveto
          -11 -8 -1 -5 -9 hvcurveto
          -5 hlineto
          -16 -54 -26 -8 hvcurveto
          4 3 12 4 4 3 rrcurveto
          -12 -17 -6 -4 -11 vhcurveto
          7 -31 1 -28 -28 -47 -5 -45 -44 vvcurveto
          -59 7 -79 69 -16 vhcurveto
          -1 -6 25 8 48 0 21 24 rlinecurve
          8 9 0 32 23 vvcurveto
          22 vlineto
          3 2 2 2 2 vvcurveto
          3 -5 1 -10 vhcurveto
          -11 -16 -1 -16 hhcurveto
          -24 hlineto
          3 24 0 8 15 vvcurveto
          49 vlineto
          43 -1 27 -1 11 -3 -1 -3 rcurveline
          220 callsubr
          hhcurveto
          59 4 23 1 rlineto
          1 2 0 5 1 vhcurveto
          9 3 -60 -21 -20 -1 -20 -1 -19 hvcurveto
          202 callgsubr
          -21 0 -21 -11 -15 vhcurveto
          endchar
        </CharString>
        <CharString name="H">
          79 19 -21 282 148 270 -20 35 -20 hstemhm
          39 28 -28 154 -37 25 -25 166 -143 156 -30 30 100 22 -10 28 hintmask 1110101001010000
          325 3 rmoveto
          1 40 25 1 9 19 17 -1 20 hhcurveto
          4 2 rlineto
          11 -1 11 4 1 hvcurveto
          5 2 -3 40 -2 51 -3 39 rlinecurve
          -4 17 rlineto
          3 1 3 3 2 vhcurveto
          -5 2 rlineto
          hintmask 1101101001100000
          -1 39 -4 37 39 31 5 33 4 vvcurveto
          5 -1 3 -3 3 vhcurveto
          -75 callsubr
          -9 73 7 69 -7 76 rrcurveto
          86 2 vlineto
          3 1 1 3 1 hvcurveto
          -2 1 -1 2 -6 6 -12 10 rlinecurve
          3 0 3 1 1 vhcurveto
          -1 -1 -71 callsubr
          -5 5 rlineto
          hintmask 1110101001100000
          -13 -13 -54 -2 -24 hhcurveto
          -10 -9 1 2 -9 hvcurveto
          -1 -4 0 -8 -5 hhcurveto
          hintmask 1101101001100000
          -46 callgsubr
          1 -17 1 -17 -16 vvcurveto
          -46 vlineto
          -56 -2 -46 -3 -60 vhcurveto
          -3 -4 rlineto
          -23 -27 -3 -25 hhcurveto
          -12 -11 1 2 -10 hvcurveto
          23 -11 40 14 vvcurveto
          hintmask 1110100010100000
          -27 callgsubr
          hintmask 1110101001100000
          2 hlineto
          -4 108 -2 43 9 vvcurveto
          23 -14 1 -15 -31 -29 -2 -3 -31 vhcurveto
          -14 5 rlineto
          -1 -51 -1 -52 -53 vvcurveto
          -169 4 -168 7 -173 vhcurveto
          -1 -13 37 callgsubr
          2 1 -1 -3 hvcurveto
          -3 -1 -5 -4 vvcurveto
          3 3 3 2 5 1 31 -4 30 5 29 -11 3 6 rcurveline
          9 8 4 9 hhcurveto
          4 -2 callgsubr
          4 17 -4 22 5 17 1 -1 rcurveline
          hintmask 1110010001100000
          -3 39 -1 37 39 31 1 30 33 vvcurveto
          5 6 2 4 3 vhcurveto
          102 -1 rlineto
          4 2 -5 -4 hvcurveto
          -2 2 vlineto
          4 -88 -4 -90 11 -88 rrcurveto
          130 16 rmoveto
          -3 -13 -16 -1 -19 -23 -19 2 -17 hhcurveto
          -4 29 0 41 -5 28 rrcurveto
          157 callsubr
          -2 1 3 vvcurveto
          hintmask 1110100010100000
          -3 31 -1 32 32 vvcurveto
          17 1 16 1 17 vhcurveto
          -5 7 -2 -3 rlineto
          -1 1 0 1 1 4 6 4 3 vvcurveto
          3 -8 1 -11 7 vhcurveto
          -5 -27 -23 -1 -57 hhcurveto
          -8 -5 3 5 -1 hvcurveto
          -6 -9 rlineto
          1 -3 0 2 -3 hhcurveto
          hintmask 1110101001100000
          -1 0 0 -1 -1 236 callgsubr
          hintmask 1110100010100000
          -12 1 -12 -12 -43 -3 -40 -41 vvcurveto
          -22 1 -21 2 -21 vhcurveto
          -1 -7 -3 -6 -7 218 callgsubr
          2 3 147 callsubr
          -3 -2 -1 -3 vhcurveto
          -8 hlineto
          -4 -25 -14 -2 -19 hhcurveto
          -19 -14 2 5 -10 hvcurveto
          1 21 1 21 21 108 -14 105 104 vvcurveto
          27 callgsubr
          8 1 5 4 43 -3 24 8 vvcurveto
          5 223 callsubr
          1 39 rlineto
          7 -1 8 7 vvcurveto
          -59 callsubr
          97 vlineto
          8 8 -1 8 45 23 5 1 hhcurveto
          11 0 -18 -16 hvcurveto
          hintmask 1110100100100000
          -53 -2 -50 -52 vvcurveto
          -25 1 -24 2 -25 vhcurveto
          9 -3 -51 callgsubr
          -9 6 6 rcurveline
          1 13 13 1 12 19 14 -1 36 hhcurveto
          7 9 2 3 10 hvcurveto
          219 callsubr
          3 13 3 hvcurveto
          3 -1 3 3 vvcurveto
          4 8 rlineto
          9 1 7 7 36 -5 34 36 vvcurveto
          35 1 34 7 33 vhcurveto
          -3 16 16 -1 17 hhcurveto
          52 hlineto
          3 -25 1 -24 -27 vvcurveto
          -31 -1 -31 -2 -31 vhcurveto
          hintmask 1110101001010000
          7 -153 1 -160 7 -157 rrcurveto
          1 -4 7 -7 -7 vvcurveto
          endchar
        </CharString>
        <CharString name="H18533">
          159 -1 20 -3 -21 511 -20 hstemhm
          24 25 hintmask 01110000
          516 412 rmoveto
          -27 47 -63 33 -63 11 rrcurveto
          -7 -64 callsubr
          1 1 1 1 hvcurveto
          -93 hlineto
          -66 -87 -17 -52 -37 hvcurveto
          -36 -33 -5 -40 -4 -37 rrcurveto
          -41 vlineto
          1 -1 -3 -1 -7 vhcurveto
          -47 vlineto
          8 -58 -11 -23 22 -51 21 -45 58 -45 72 -13 rrcurveto
          hintmask 10110000
          17 27 0 4 15 hvcurveto
          53 hlineto
          72 3 107 9 43 123 9 37 1 35 3 35 rrcurveto
          -1 -51 callgsubr
          3 vvcurveto
          22 vlineto
          1 4 2 12 231 callsubr
          32 2 42 -35 44 vhcurveto
          -16 -13 rmoveto
          29 -37 -1 -40 -27 vvcurveto
          -10 vlineto
          0 -1 -3 -1 -5 vhcurveto
          -45 vlineto
          -3 -35 -2 -32 -8 -37 2 1 rcurveline
          -12 -27 -21 -28 -29 -29 4 2 rcurveline
          -55 -36 -38 7 -53 -8 rrcurveto
          -55 hlineto
          -4 -15 -21 0 -15 hhcurveto
          -64 17 -54 36 -20 39 rrcurveto
          -2 vlineto
          -9 29 -3 26 29 vvcurveto
          12 vlineto
          12 -4 10 7 vvcurveto
          43 vlineto
          1 5 1 4 1 vvcurveto
          40 vlineto
          4 36 6 37 29 29 rrcurveto
          43 36 70 19 69 hhcurveto
          82 hlineto
          -3 3 13 -1 4 hhcurveto
          52 -16 63 -29 24 -45 rrcurveto
          endchar
        </CharString>
        <CharString name="I">
          -157 84 callsubr
          721 -20 hstemhm
          39 198 callgsubr
          hintmask 10001010
          212 721 -95 callgsubr
          -1 -6 4 -1 -9 -27 2 -28 -1 -28 rlinecurve
          3 -43 1 -38 -40 vvcurveto
          hintmask 00011100
          38 callsubr
          hintmask 10001100
          3 -1 -8 7 hhcurveto
          -1 vlineto
          hintmask 01001100
          132 callsubr
          hintmask 00011010
          -28 callgsubr
          hintmask 00101100
          41 13 -7 15 hhcurveto
          hintmask 00011001
          -104 callgsubr
          hintmask 10001100
          -11 -23 3 -60 -1 vhcurveto
          -3 5 -1 7 9 12 3 12 12 vvcurveto
          21 -2 43 -3 27 vhcurveto
          8 vlineto
          232 callgsubr
          vlineto
          11 -10 79 68 vvcurveto
          62 2 138 5 46 vhcurveto
          hintmask 10001010
          4 2 9 18 hvcurveto
          -3 3 -2 3 -11 callgsubr
          4 3 vvcurveto
          1 156 callgsubr
          5 5 -1 5 4 vvcurveto
          5 -3 2 -2 0 vvcurveto
          -3 9 rlineto
          -1 7 -1 5 3 vvcurveto
          6 3 3 6 vhcurveto
          18 hlineto
          27 24 -4 -5 27 hvcurveto
          1 -7 1 -5 -4 vvcurveto
          -52 vlineto
          -1 1 -2 -2 rlineto
          -3 4 -1 -3 vvcurveto
          endchar
        </CharString>
        <CharString name="Iacute">
          -161 84 callsubr
          681 81 232 callsubr
          35 198 callgsubr
          hintmask 1000111000000000
          276 875 rmoveto
          -3 1 -1 1 0 vvcurveto
          -1 0 0 1 hvcurveto
          212 callsubr
          1 6 -74 callsubr
          1 -2 -6 -5 -7 -7 -8 -10 -3 -1 rlinecurve
          -4 -2 rlineto
          -3 -1 -1 -1 -2 vvcurveto
          -4 -2 -19 callsubr
          -2 1 -1 -25 -23 -34 -39 0 0 -32 -30 rlinecurve
          -25 -24 rlineto
          hintmask 1000110010000000
          11 -1 9 -11 24 -5 rlineto
          -1 1 2 213 callsubr
          1 hvcurveto
          6 hlineto
          -1 1 2 2 rlineto
          40 hlineto
          -13 callsubr
          5 hlineto
          63 callsubr
          -1 hlineto
          118 callgsubr
          11 -103 callsubr
          -6 188 callsubr
          -4 1 rlineto
          1 hlineto
          -189 -114 -107 callgsubr
          99 -40 -95 callgsubr
          -1 -6 4 -1 -9 -27 2 -28 -1 -28 rlinecurve
          3 -43 1 -38 -40 vvcurveto
          hintmask 0001111000000000
          38 callsubr
          hintmask 1000111000000000
          3 -1 -8 7 hhcurveto
          -1 vlineto
          hintmask 0100111000000000
          132 callsubr
          hintmask 0001110100000000
          -28 callgsubr
          hintmask 0010111000000000
          41 13 -7 15 hhcurveto
          hintmask 0001110010000000
          -104 callgsubr
          hintmask 1000111000000000
          -11 -23 3 -60 -1 vhcurveto
          -3 5 -1 7 9 12 3 12 12 vvcurveto
          21 -2 43 -3 27 vhcurveto
          8 vlineto
          232 callgsubr
          vlineto
          11 -10 79 68 vvcurveto
          62 2 138 5 46 vhcurveto
          hintmask 1000110100000000
          4 2 9 18 hvcurveto
          -3 3 -2 3 -11 callgsubr
          4 3 vvcurveto
          1 156 callgsubr
          5 5 -1 5 4 vvcurveto
          5 -3 2 -2 0 vvcurveto
          -3 9 rlineto
          -1 7 -1 5 3 vvcurveto
          6 3 3 6 vhcurveto
          18 hlineto
          27 24 -4 -5 27 hvcurveto
          1 -7 1 -5 -4 vvcurveto
          -52 vlineto
          -1 1 -2 -2 rlineto
          -3 4 -1 -3 vvcurveto
          endchar
        </CharString>
        <CharString name="Icircumflex">
          -160 84 callsubr
          681 79 106 callsubr
          34 198 callgsubr
          hintmask 1000110010000000
          307 -53 callsubr
          -88 callgsubr
          hintmask 1000111000000000
          -9 4 1 -11 -4 -5 -32 -40 -2 1 -32 -29 rlinecurve
          -25 -24 11 -2 2 -2 rlineto
          -3 6 -5 3 vhcurveto
          2 1 11 -3 rlineto
          11 -3 6 -2 0 vvcurveto
          14 3 rlineto
          35 0 -2 8 16 callgsubr
          -1 4 11 -1 5 hhcurveto
          3 hlineto
          9 13 -54 callsubr
          -7 13 -10 5 -4 vhcurveto
          6 156 callgsubr
          3 -39 callgsubr
          3 -1 1 3 231 callgsubr
          13 3 2 30 hhcurveto
          13 -3 rlineto
          3 18 8 8 hhcurveto
          4 -1 6 5 -1 -76 callgsubr
          13 3 rlineto
          -199 9 rmoveto
          -11 -11 -52 callsubr
          -7 -64 callsubr
          -2 hlineto
          hintmask 1000110100000000
          -1 -7 -4 0 -3 hhcurveto
          -8 hlineto
          1 -1 -11 0 -22 hhcurveto
          -17 -2 hlineto
          -8 3 -5 1 -4 2 -3 1 rlinecurve
          8 8 32 27 0 6 35 37 rlinecurve
          13 14 7 5 rlineto
          172 callsubr
          5 7 7 4 -4 1 15 12 rlinecurve
          12 13 22 -21 rlineto
          -8 6 4 -4 2 hhcurveto
          3 -3 -1 -1 14 -10 12 callsubr
          21 -20 17 -20 9 -9 8 -9 rlinecurve
          41 -40 -20 -7 rlineto
          2 -40 vlineto
          -7 -4 0 -71 callsubr
          -9 hlineto
          -3 -2 0 1 -7 hvcurveto
          -2 hlineto
          -23 callgsubr
          0 -7 hhcurveto
          -2 hlineto
          -8 8 -47 callsubr
          -1 -1 -2 2 2 2 -8 9 rlineto
          3 -4 -3 3 -4 hhcurveto
          -8 8 -9 -8 -4 168 callgsubr
          -12 rlinecurve
          8 vlineto
          79 -59 -95 callgsubr
          -1 -6 4 -1 -9 -27 2 -28 -1 -28 rlinecurve
          3 -43 1 -38 -40 vvcurveto
          hintmask 0001111000000000
          38 callsubr
          hintmask 1000111000000000
          3 -1 -8 7 hhcurveto
          -1 vlineto
          hintmask 0100111000000000
          132 callsubr
          hintmask 0001110100000000
          -28 callgsubr
          hintmask 0010111000000000
          41 13 -7 15 hhcurveto
          hintmask 0001110010000000
          -104 callgsubr
          hintmask 1000111000000000
          -11 -23 3 -60 -1 vhcurveto
          -3 5 -1 7 9 12 3 12 12 vvcurveto
          21 -2 43 -3 27 vhcurveto
          8 vlineto
          232 callgsubr
          vlineto
          11 -10 79 68 vvcurveto
          62 2 138 5 46 vhcurveto
          hintmask 1000110100000000
          4 2 9 18 hvcurveto
          -3 3 -2 3 -11 callgsubr
          4 3 vvcurveto
          1 156 callgsubr
          5 5 -1 5 4 vvcurveto
          5 -3 2 -2 0 vvcurveto
          -3 9 rlineto
          -1 7 -1 5 3 vvcurveto
          6 3 3 6 vhcurveto
          18 hlineto
          27 24 -4 -5 27 hvcurveto
          1 -7 1 -5 -4 vvcurveto
          -52 vlineto
          -1 1 -2 -2 rlineto
          -3 4 -1 -3 vvcurveto
          endchar
        </CharString>
        <CharString name="Idieresis">
          -160 84 callsubr
          681 91 222 callsubr
          35 198 callgsubr
          -108 180 -111 111 hintmask 1000010010100000
          110 856 rmoveto
          15 callsubr
          hintmask 1000101100100000
          102 callgsubr
          hintmask 1000010010100000
          -7 -8 119 callgsubr
          -1 vlineto
          -6 -2 -32 callsubr
          hlineto
          -1 1 -1 2 -2 vhcurveto
          1 hlineto
          -3 -15 1 -5 -3 -7 -1 -7 rcurveline
          -11 vlineto
          -13 callgsubr
          1 -8 rlineto
          -8 vlineto
          -9 0 -5 1 -1 vhcurveto
          -13 vlineto
          -2 1 -1 2 -1 102 callsubr
          166 callgsubr
          16 -1 rlineto
          -1 8 9 -1 9 hhcurveto
          3 74 callsubr
          8 hlineto
          -11 callgsubr
          4 hhcurveto
          1 3 37 callsubr
          -47 callgsubr
          2 -10 callsubr
          2 9 vlineto
          5 0 -48 callgsubr
          vhcurveto
          -1 6 rlineto
          -17 callsubr
          -1 2 rlineto
          1 16 callsubr
          -59 callsubr
          2 34 rlineto
          6 0 3 124 callsubr
          168 -5 rmoveto
          4 0 3 1 1 vhcurveto
          15 callsubr
          hintmask 1000101100100000
          102 callgsubr
          hintmask 1000010100010000
          -7 -8 119 callgsubr
          -1 vlineto
          -6 -2 -32 callsubr
          hlineto
          -1 1 -1 2 -2 vhcurveto
          1 hlineto
          -3 -15 1 -5 -3 -7 -1 -7 rcurveline
          -11 vlineto
          -13 callgsubr
          1 -8 rlineto
          -8 vlineto
          -9 0 -5 1 -1 vhcurveto
          -13 vlineto
          -2 1 -1 2 -1 102 callsubr
          166 callgsubr
          16 -1 rlineto
          -1 8 9 -1 9 hhcurveto
          3 74 callsubr
          8 hlineto
          -11 callgsubr
          4 hhcurveto
          1 3 37 callsubr
          -47 callgsubr
          2 -10 callsubr
          2 9 vlineto
          5 0 -48 callgsubr
          vhcurveto
          -1 6 rlineto
          -17 callsubr
          -1 2 rlineto
          1 16 callsubr
          -59 callsubr
          28 vlineto
          -7 -31 rmoveto
          -1 -21 rlineto
          hintmask 1000101010100000
          -11 -1 -6 36 callsubr
          -7 hlineto
          -4 -1 hlineto
          -26 callgsubr
          hhcurveto
          -18 -2 rlineto
          -3 -3 -1 -3 hhcurveto
          1 vlineto
          -18 -2 rlineto
          -13 6 5 5 -3 hvcurveto
          -30 callgsubr
          3 vlineto
          16 vlineto
          -2 13 1 5 -69 callsubr
          1 19 rlineto
          6 0 -48 callgsubr
          vhcurveto
          5 1 rlineto
          -13 callsubr
          38 hlineto
          12 -2 rlineto
          1 -39 callgsubr
          4 5 1 7 hhcurveto
          -45 callsubr
          1 -1 vhcurveto
          -13 vlineto
          -5 1 -5 -4 vvcurveto
          -170 -10 rmoveto
          -1 -21 rlineto
          -11 -1 -6 36 callsubr
          -7 hlineto
          -4 -1 hlineto
          -26 callgsubr
          hhcurveto
          -18 -2 rlineto
          -3 -3 -1 -3 hhcurveto
          1 vlineto
          -18 -2 rlineto
          -13 6 5 5 -3 hvcurveto
          -30 callgsubr
          3 vlineto
          16 vlineto
          -2 13 1 5 -69 callsubr
          1 19 rlineto
          6 0 -48 callgsubr
          vhcurveto
          5 1 rlineto
          -13 callsubr
          38 hlineto
          12 -2 rlineto
          1 -39 callgsubr
          4 5 1 7 hhcurveto
          -45 callsubr
          1 -1 vhcurveto
          -13 vlineto
          -5 1 -5 -4 vvcurveto
          108 -94 -95 callgsubr
          -1 -6 4 -1 -9 -27 2 -28 -1 -28 rlinecurve
          3 -43 1 -38 -40 vvcurveto
          hintmask 0001101100100000
          38 callsubr
          hintmask 1000101100100000
          3 -1 -8 7 hhcurveto
          -1 vlineto
          hintmask 0100101100100000
          132 callsubr
          hintmask 0001101010100000
          -28 callgsubr
          hintmask 0010101100100000
          41 13 -7 15 hhcurveto
          hintmask 0001101001000000
          -104 callgsubr
          hintmask 1000101100100000
          -11 -23 3 -60 -1 vhcurveto
          -3 5 -1 7 9 12 3 12 12 vvcurveto
          21 -2 43 -3 27 vhcurveto
          8 vlineto
          232 callgsubr
          vlineto
          11 -10 79 68 vvcurveto
          62 2 138 5 46 vhcurveto
          hintmask 1000101010100000
          4 2 9 18 hvcurveto
          -3 3 -2 3 -11 callgsubr
          4 3 vvcurveto
          1 156 callgsubr
          5 5 -1 5 4 vvcurveto
          5 -3 2 -2 0 vvcurveto
          -3 9 rlineto
          -1 7 -1 5 3 vvcurveto
          6 3 3 6 vhcurveto
          18 hlineto
          27 24 -4 -5 27 hvcurveto
          1 -7 1 -5 -4 vvcurveto
          -52 vlineto
          -1 1 -2 -2 rlineto
          -3 4 -1 -3 vvcurveto
          endchar
        </CharString>
        <CharString name="Igrave">
          -160 84 callsubr
          681 78 106 callsubr
          32 34 -21 21 -14 27 -27 152 hintmask 1000110010000000
          31 894 rmoveto
          -7 -7 -6 -6 -7 -5 rrcurveto
          -3 hlineto
          -4 -2 -1 -2 -1 hvcurveto
          -3 -2 -39 callsubr
          -3 -1 -2 -23 callgsubr
          -10 3 rcurveline
          1 -11 rlineto
          -3 21 callsubr
          vhcurveto
          -6 -5 4 -5 51 -40 11 -12 10 -11 13 -11 rlinecurve
          8 -8 rlineto
          -8 7 3 -7 3 hhcurveto
          13 hlineto
          1 -48 callgsubr
          5 hvcurveto
          5 20 callgsubr
          0 vvcurveto
          6 hlineto
          8 1 2 33 hhcurveto
          7 -1 2 -3 4 1 rlineto
          7 6 3 5 15 hvcurveto
          4 -2 7 6 rlineto
          -1 1 0 0 -52 callgsubr
          11 1 -25 24 -32 29 -2 205 callsubr
          -25 23 1 2 -8 4 -1 3 -23 callgsubr
          3 rlinecurve
          -2 hlineto
          -9 9 -3 4 -4 4 -4 3 rlinecurve
          -7 6 2 2 -6 5 rlineto
          3 -26 callgsubr
          hhcurveto
          -8 10 -20 -25 rlineto
          -5 -1 135 callsubr
          63 -135 rmoveto
          -8 9 -5 6 -1 1 -28 23 -21 22 -27 23 rlinecurve
          3 3 45 39 8 13 2 3 rcurveline
          7 -11 13 -8 1 -1 27 -26 rcurveline
          2 vlineto
          22 -20 35 -40 -1 0 32 -30 rlinecurve
          8 -8 -3 -1 -4 0 -4 -3 rlinecurve
          -6 -2 -4 1 rlineto
          -27 hlineto
          -12 -6 -1 -5 hhcurveto
          -9 hlineto
          -3 -2 0 1 -7 hvcurveto
          -3 hlineto
          -23 callgsubr
          0 -7 hhcurveto
          -2 hlineto
          107 -37 -95 callgsubr
          hintmask 1000110100000000
          -1 -6 4 -1 -9 -27 2 -28 -1 -28 rlinecurve
          3 -43 1 -38 -40 vvcurveto
          hintmask 0001111000000000
          38 callsubr
          hintmask 1000110100000000
          3 -1 -8 7 hhcurveto
          -1 vlineto
          hintmask 0100111000000000
          132 callsubr
          hintmask 0001110010000000
          -28 callgsubr
          hintmask 0010111000000000
          41 13 -7 15 hhcurveto
          hintmask 0001110001000000
          -104 callgsubr
          hintmask 1000111000000000
          -11 -23 3 -60 -1 vhcurveto
          -3 5 -1 7 9 12 3 12 12 vvcurveto
          21 -2 43 -3 27 vhcurveto
          8 vlineto
          232 callgsubr
          vlineto
          11 -10 79 68 vvcurveto
          62 2 138 5 46 vhcurveto
          hintmask 1000110010000000
          4 2 9 18 hvcurveto
          -3 3 -2 3 -11 callgsubr
          4 3 vvcurveto
          1 156 callgsubr
          5 5 -1 5 4 vvcurveto
          5 -3 2 -2 0 vvcurveto
          -3 9 rlineto
          -1 7 -1 5 3 vvcurveto
          6 3 3 6 vhcurveto
          18 hlineto
          27 24 -4 -5 27 hvcurveto
          1 -7 1 -5 -4 vvcurveto
          -52 vlineto
          -1 1 -2 -2 rlineto
          -3 4 -1 -3 vvcurveto
          endchar
        </CharString>
        <CharString name="J">
          43 -10 20 133 21 -21 150 427 -20 hstemhm
          -2 23 108 170 -30 30 -30 151 hintmask 11011010
          398 716 rmoveto
          1 -19 -20 0 -21 hhcurveto
          -63 hlineto
          -4 -3 rlineto
          -1 -16 -1 -15 -15 -32 2 -31 -35 -7 -3 -5 -7 -25 4 -25 -27 vvcurveto
          -23 -1 -23 -1 -21 vhcurveto
          1 -1 0 -1 -2 -3 -3 -2 -3 63 callgsubr
          -21 vlineto
          -11 2 -11 -7 vvcurveto
          -3 -1 -2 -1 vhcurveto
          -3 4 1 -16 vvcurveto
          -5 vlineto
          -13 1 -14 -15 vvcurveto
          -20 vlineto
          -38 -19 -51 -28 -3 -2 1 2 -3 vhcurveto
          -16 hlineto
          -31 -13 64 27 hvcurveto
          13 vlineto
          4 223 callsubr
          -1 11 -11 -6 -5 5 rrcurveto
          hintmask 10111001
          -1 -11 -11 0 -11 hhcurveto
          -64 hlineto
          -12 -14 5 -11 -3 1 -1 -3 hhcurveto
          -1 -1 1 1 -1 hvcurveto
          -10 -8 6 -4 rlineto
          -40 8 -31 -39 vvcurveto
          7 -9 -1 -12 -9 vvcurveto
          5 -5 1 -8 6 -20 11 -32 rlinecurve
          -67 19 65 -25 64 hhcurveto
          45 46 12 15 39 hvcurveto
          43 17 24 41 17 43 rrcurveto
          3 13 9 12 13 vvcurveto
          5 vlineto
          4 7 0 10 3 5 1 23 rcurveline
          1 -1 rlineto
          56 2 58 57 vvcurveto
          31 -1 31 -3 32 vhcurveto
          15 vlineto
          35 -2 37 33 23 1 17 23 vvcurveto
          24 0 24 -7 19 vhcurveto
          -3 -1 -4 0 -3 -3 rrcurveto
          6 -273 rmoveto
          -1 -19 -1 -19 -19 -36 2 -37 -36 vvcurveto
          -68 -5 -65 -28 -57 vhcurveto
          -26 -21 -9 -30 -33 -3 rrcurveto
          -15 -33 -34 -8 -35 hhcurveto
          -139 -41 127 100 hvcurveto
          13 vlineto
          7 0 5 1 2 vhcurveto
          -4 1 -2 2 5 vvcurveto
          9 3 1 7 vhcurveto
          15 11 -7 16 7 4 2 7 hhcurveto
          15 10 -5 -3 15 hvcurveto
          -1 -1 0 -2 -3 vvcurveto
          hintmask 11011100
          -5 1 -3 3 -3 vhcurveto
          -44 37 -65 48 9 24 18 9 15 vhcurveto
          32 32 -1 41 1 43 rrcurveto
          4 3 1 18 20 vvcurveto
          116 -6 103 -8 117 vhcurveto
          2 38 rlineto
          2 7 7 1 8 19 19 -5 19 8 4 4 4 4 5 -2 3 hhcurveto
          11 -88 -12 -85 11 -85 rrcurveto
          endchar
        </CharString>
        <CharString name="K">
          39 20 3 callgsubr
          699 -20 hstemhm
          43 146 hintmask 01110000
          47 hmoveto
          1 8 1 4 hhcurveto
          hintmask 10110000
          5 5 -2 4 8 9 2 9 17 17 -2 16 hhcurveto
          12 13 0 7 11 hvcurveto
          3 -5 5 5 rlineto
          197 callgsubr
          3 -2 2 -4 1 vhcurveto
          -1 36 -3 45 40 vvcurveto
          24 vlineto
          7 1 8 1 7 vhcurveto
          -3 2 rlineto
          1 1 0 2 5 8 -3 8 7 vvcurveto
          3 1 4 2 4 vhcurveto
          61 -106 -11 -1 37 -48 15 -20 14 -33 19 -17 rrcurveto
          28 30 -3 31 hhcurveto
          11 hlineto
          17 23 3 3 hvcurveto
          3 -3 2 3 vvcurveto
          -50 callsubr
          -28 72 -38 76 -36 76 1 -3 21 callsubr
          -1 9 -5 6 -3 7 rrcurveto
          -5 vlineto
          -9 19 -8 15 -7 19 rrcurveto
          -7 19 -21 16 23 vvcurveto
          5 3 28 62 16 30 -13 -33 rcurveline
          13 33 27 51 31 52 29 47 rlinecurve
          4 31 21 22 5 31 -6 7 rcurveline
          -136 hlineto
          -9 -6 -24 -35 -8 -31 -34 -48 rlinecurve
          -45 -63 9 -14 -29 -23 -3 2 rcurveline
          37 -1 69 -1 101 vhcurveto
          7 -6 -6 3 -6 hhcurveto
          -18 hlineto
          -33 -33 2 1 -33 hvcurveto
          -138 vlineto
          -61 -3 -53 -56 vvcurveto
          -67 vlineto
          -39 -1 -36 -4 -37 vhcurveto
          3 -29 1 -29 -29 -32 -1 -31 -33 vvcurveto
          -21 vlineto
          -4 -3 10 -4 rlineto
          hintmask 01110000
          333 8 rmoveto
          33 callsubr
          -9 -9 4 7 -7 hvcurveto
          -3 -2 -2 -1 -2 hhcurveto
          -5 -3 6 5 -3 hvcurveto
          -41 85 -55 90 -49 81 rrcurveto
          -3 -2 -2 -3 -4 vvcurveto
          -8 vlineto
          -3 -68 callgsubr
          -24 2 -12 -20 -48 -3 -48 -47 vvcurveto
          -20 vlineto
          hintmask 10110000
          196 callgsubr
          -2 -4 -4 -1 -3 -5 -5 1 -5 hhcurveto
          -4 -2 0 -71 callsubr
          -85 -5 rlineto
          -2 4 -1 15 26 vvcurveto
          14 2 119 3 317 vhcurveto
          64 -1 59 -1 61 vhcurveto
          4 5 1 4 19 14 -4 19 hhcurveto
          -3 -3 rlineto
          -1 1 2 -1 2 183 callgsubr
          2 2 -2 -3 2 hvcurveto
          5 1 3 1 0 vvcurveto
          19 5 -25 -23 hvcurveto
          2 -2 rlineto
          -1 -7 0 -8 -7 vvcurveto
          -79 vlineto
          -35 -1 -35 -5 -33 vhcurveto
          4 -2 rlineto
          9 3 17 9 hhcurveto
          2 hlineto
          27 44 21 40 24 45 24 32 9 44 30 35 rrcurveto
          1 17 19 5 19 hhcurveto
          12 9 -2 -5 7 hvcurveto
          15 10 6 13 hhcurveto
          -6 vlineto
          -19 -41 -28 -38 -11 -43 -5 -11 -7 -11 -3 -12 6 9 rcurveline
          -28 -49 -2 2 -13 -40 -40 -37 -14 -41 rlinecurve
          -19 vlineto
          19 -31 30 -34 7 -35 24 -64 39 -62 19 -65 8 -12 13 -18 3 -15 -24 -3 -24 5 -23 -7 rrcurveto
          -71 28 rmoveto
          5 -7 12 -15 1 -9 -9 5 -8 17 -1 9 rrcurveto
          endchar
        </CharString>
        <CharString name="L">
          41 4 23 -7 -21 134 33 518 26 hstemhm
          54 150 -23 23 hintmask 10111000
          396 4 rmoveto
          1 15 8 0 1 9 9 -4 7 hhcurveto
          6 5 3 6 3 hvcurveto
          -2 14 -1 15 17 vvcurveto
          19 vlineto
          7 0 6 1 7 vhcurveto
          3 -1 1 3 15 5 11 13 vvcurveto
          23 -24 2 -17 -3 -4 -1 -1 -5 vhcurveto
          26 -9 rlineto
          -1 -1 1 -2 -3 hhcurveto
          -19 hlineto
          -12 -13 1 7 -8 hvcurveto
          -5 -4 -1 -3 -3 hvcurveto
          4 -27 -25 2 -31 hhcurveto
          -20 hlineto
          -55 28 4 -17 hhcurveto
          -4 -3 -3 -5 -2 hvcurveto
          -4 1 -2 -2 -3 3 1 3 -2 2 4 3 rrcurveto
          -1 1 0 1 2 3 2 3 3 vvcurveto
          3 -2 2 -4 1 vhcurveto
          52 4 55 53 45 -4 47 45 vvcurveto
          146 vlineto
          24 1 24 1 24 vhcurveto
          7 -21 -19 1 -20 hhcurveto
          -21 -22 -3 -1 -24 hvcurveto
          1 -4 -3 1 -2 hhcurveto
          -12 -21 -3 -5 -3 8 1 3 -5 hvcurveto
          5 -140 0 214 5 -552 -8 -105 5 29 -5 -56 3 3 rcurveline
          -3 -9 rlineto
          6 vlineto
          -1 -4 -1 -2 0 vvcurveto
          0 1 -3 1 -5 vhcurveto
          -77 callsubr
          1 hlineto
          -1 hlineto
          hintmask 01111000
          -17 -2 -15 -4 -15 vhcurveto
          -1 28 callsubr
          vlineto
          -8 4 18 -7 4 hhcurveto
          2 7 1 14 vhcurveto
          16 25 -1 15 hhcurveto
          11 5 0 23 callgsubr
          -13 callgsubr
          hintmask 10111000
          -1 190 callsubr
          -29 callgsubr
          3 vhcurveto
          7 -3 1 2 8 -3 rrcurveto
          -1 vlineto
          2 1 rlineto
          40 hlineto
          2 2 157 callgsubr
          -3 hlineto
          3 9 17 0 13 hhcurveto
          20 -1 7 hlineto
          7 5 1 7 hhcurveto
          7 5 -1 -3 5 hvcurveto
          4 vlineto
          11 -1 7 -2 5 -1 rrcurveto
          2 171 callgsubr
          hhcurveto
          hintmask 01111000
          7 6 -8 7 7 0 9 7 hhcurveto
          0 3 -1 5 -1 vhcurveto
          2 -1 rlineto
          hintmask 10111000
          -5 -2 0 -71 callsubr
          40 11 rmoveto
          241 callgsubr
          -6 hhcurveto
          -13 hlineto
          -12 -8 7 -12 hhcurveto
          hintmask 01111000
          -7 -6 -1 -2 -5 hvcurveto
          hintmask 10111000
          3 -135 -4 -117 8 vhcurveto
          hintmask 01110100
          -12 -7 -13 4 -15 -4 rrcurveto
          -12 6 10 8 -3 hvcurveto
          3 vlineto
          5 -2 5 3 vvcurveto
          3 2 2 3 2 vhcurveto
          -3 45 -2 45 44 96 6 92 96 31 -2 31 31 vvcurveto
          36 2 37 1 35 vhcurveto
          3 23 23 1 24 hhcurveto
          14 35 -1 -7 hvcurveto
          -1 -2 -2 2 rlineto
          -1 -23 callgsubr
          -5 vvcurveto
          -9 vlineto
          -101 vlineto
          -35 -3 -3 -5 -7 4 -2 -4 vvcurveto
          -2 -1 -2 -3 -2 vhcurveto
          1 -3 1 -5 -7 vvcurveto
          -12 vlineto
          -18 vlineto
          -12 vlineto
          -7 169 callgsubr
          vhcurveto
          -27 -3 -30 -3 -25 vhcurveto
          -2 -7 rlineto
          4 -1 -1 2 -1 hhcurveto
          -2 -48 rlineto
          -1 -27 0 -32 -21 vvcurveto
          -15 1 -14 5 -15 vhcurveto
          3 -3 2 -4 -5 -5 -2 -6 -5 vvcurveto
          -7 3 -4 7 -1 vhcurveto
          -11 callgsubr
          4 6 vvcurveto
          -3 1 1 3 -1 3 84 -16 79 4 88 -3 rrcurveto
          1 -1 0 -5 -8 -12 -3 -12 -12 vvcurveto
          -11 2 -8 5 -7 vhcurveto
          -1 -15 -2 -15 -5 -12 rrcurveto
          endchar
        </CharString>
        <CharString name="M">
          81 14 -21 23 -21 23 101 callsubr
          699 -20 hstemhm
          39 140 -140 227 -92 142 -6 145 hintmask 0010011001000000
          455 113 rmoveto
          121 0 67 -1 15 vhcurveto
          3 32 1 32 32 68 -4 62 68 vvcurveto
          38 vlineto
          13 1 12 1 13 vhcurveto
          -2 2 -91 callsubr
          3 4 0 3 vvcurveto
          -28 2 rlineto
          -5 -14 -18 -2 -23 -25 -23 2 -21 hhcurveto
          -33 -22 -23 -102 -19 hhcurveto
          -17 -3 67 29 -24 hvcurveto
          2 3 -24 33 rlineto
          -116 hlineto
          -7 -4 1 -5 hhcurveto
          -5 0 -2 -16 -3 hvcurveto
          -2 -6 rlineto
          1 -27 1 -25 -27 -88 -6 -78 -88 vvcurveto
          4 vlineto
          1 0 1 1 hhcurveto
          2 -2 -18 -240 8 hvcurveto
          -19 -5 -4 -11 vvcurveto
          2 hlineto
          1 -2 0 -3 -4 228 callsubr
          vvcurveto
          hintmask 0100011001000000
          -20 9 -3 12 vhcurveto
          hintmask 0010011001000000
          24 23 2 24 hhcurveto
          hintmask 0100010010000000
          15 12 -1 -1 15 hvcurveto
          4 hlineto
          hintmask 0000111001000000
          6 4 rlineto
          hintmask 1000011001000000
          -1 2 0 5 8 vvcurveto
          16 vlineto
          49 4 48 45 vvcurveto
          -1 hlineto
          1 7 1 4 0 vvcurveto
          -3 45 0 41 36 vvcurveto
          31 0 22 3 11 vhcurveto
          6 -3 8 -42 3 -3 rrcurveto
          1 0 1 1 3 15 -25 -23 12 vhcurveto
          -7 8 -5 8 -7 8 rrcurveto
          -2 hlineto
          3 -7 4 -6 -7 -3 206 callsubr
          13 -9 -11 vvcurveto
          -1 -3 rlineto
          -5 3 4 -2 5 hhcurveto
          28 -2 95 19 32 hvcurveto
          3 hlineto
          9 -76 -5 -73 4 -80 rrcurveto
          1 -12 1 -12 -12 -11 -1 -7 -11 vvcurveto
          -23 1 -20 7 -19 vhcurveto
          hintmask 0010011001000000
          1 1 1 0 1 hhcurveto
          hintmask 1000011001000000
          3 2 -4 3 hhcurveto
          hintmask 0000111001000000
          1 2 2 4 1 hvcurveto
          hintmask 0001011001000000
          -1 2 4 0 6 hhcurveto
          13 hlineto
          hintmask 0000111001000000
          16 16 1 16 hhcurveto
          hintmask 0100011001000000
          17 14 -1 -3 10 hvcurveto
          18 3 -6 23 3 11 -3 17 -2 27 -3 37 rrcurveto
          -8 -8 rmoveto
          -29 vlineto
          -2 -39 -3 -23 -4 -5 rrcurveto
          -3 -21 -21 -1 -21 hhcurveto
          -19 -15 1 3 -10 hvcurveto
          hintmask 0100010010000000
          7 -15 214 55 vvcurveto
          16 vlineto
          25 -4 26 24 vvcurveto
          8 1 7 1 8 vhcurveto
          -9 hlineto
          -17 -37 rlineto
          -34 -16 -16 -69 -7 hhcurveto
          1 vlineto
          -4 -4 -7 16 -13 26 -12 24 rlinecurve
          8 -3 -28 57 -4 hhcurveto
          -3 -2 -7 -14 hvcurveto
          -4 1 -5 -5 vvcurveto
          1 -120 rlineto
          -31 2 -31 -23 vvcurveto
          -11 -88 -5 -49 -3 -4 rrcurveto
          -4 -19 -16 -1 -16 hhcurveto
          -50 -10 0 61 hvcurveto
          39 1 31 35 vvcurveto
          28 -1 28 -3 28 vhcurveto
          26 vlineto
          40 -3 43 43 vvcurveto
          25 1 25 4 24 vhcurveto
          -3 17 -2 14 13 9 1 21 8 vvcurveto
          12 vlineto
          33 4 38 7 32 vhcurveto
          13 hlineto
          6 hlineto
          11 17 -1 25 hhcurveto
          27 17 1 1 5 hvcurveto
          5 -12 10 -19 9 -20 rrcurveto
          -7 2 25 -91 17 3 2 2 3 hhcurveto
          2 -1 rlineto
          hintmask 0100010101000000
          3 13 6 9 5 11 rrcurveto
          48 3 27 78 69 hhcurveto
          45 hlineto
          7 4 0 1 2 hvcurveto
          9 -6 4 -4 -1 vvcurveto
          13 -68 1 -9 -13 -20 -1 -15 -19 vvcurveto
          -11 1 -9 1 -9 vhcurveto
          -4 -15 0 -11 -12 vvcurveto
          -16 -2 19 5 -49 vhcurveto
          -3 -15 rlineto
          3 -5 1 -6 -6 vvcurveto
          -11 -58 rlineto
          -125 -135 rmoveto
          3 -3 -2 -3 1 -3 -3 3 2 3 -1 3 rrcurveto
          11 vmoveto
          hintmask 0100010010000000
          1 2 -1 -11 rlineto
          endchar
        </CharString>
        <CharString name="N">
          78 14 -21 25 -21 23 3 callgsubr
          714 -24 callsubr
          31 154 hintmask 00100110
          231 217 69 callsubr
          hintmask 10000110
          1 -3 3 0 -3 vvcurveto
          5 5 rlineto
          hintmask 00010110
          1 11 12 1 12 hhcurveto
          hintmask 00100110
          17 16 -1 17 hhcurveto
          13 hlineto
          11 32 -3 1 1 hhcurveto
          -3 8 1 40 -3 39 rrcurveto
          3 39 0 35 39 76 -2 71 76 60 5 56 60 vvcurveto
          27 -1 26 -3 27 vhcurveto
          1 1 0 0 1 3 -5 2 4 vvcurveto
          1 4 5 1 vhcurveto
          229 callsubr
          -10 -7 2 -4 hhcurveto
          hintmask 10001010
          -1 -1 rlineto
          hintmask 00100110
          -1 -3 1 -3 -54 -19 -5 -32 hhcurveto
          -7 -5 169 callsubr
          -8 -9 6 -18 -5 -7 rrcurveto
          169 callgsubr
          -1 4 3 -141 2 vvcurveto
          -2 3 rlineto
          8 -64 1 5 -24 vvcurveto
          -2 2 rlineto
          -1 -1 0 -1 -2 -3 2 -3 -3 vvcurveto
          -2 -1 -1 -2 -1 vhcurveto
          -9 11 -2 9 -11 11 rrcurveto
          9 callgsubr
          -4 4 rlineto
          16 -17 10 -4 15 vhcurveto
          -7 7 -11 55 -8 11 -12 19 -17 19 -5 15 rrcurveto
          10 -2 -30 63 -24 -21 -20 -9 -19 -11 -11 3 -8 hhcurveto
          -13 -10 -3 -19 hvcurveto
          -26 vlineto
          -32 -4 -33 -32 vvcurveto
          -10 vlineto
          -5 0 -4 1 -1 vhcurveto
          -9 -5 -403 8 vvcurveto
          3 -6 1 -10 -13 -11 -2 -8 -11 -16 3 -20 -19 vvcurveto
          -11 -1 -8 -2 -6 vhcurveto
          19 callgsubr
          hintmask 00010110
          137 callsubr
          hintmask 01000110
          15 -5 18 5 39 -5 rrcurveto
          3 9 6 1 5 3 1 -4 4 hhcurveto
          3 4 2 4 4 hvcurveto
          3 -6 rlineto
          239 callsubr
          0 vvcurveto
          8 vlineto
          8 -3 1 8 vvcurveto
          3 1 5 2 8 vhcurveto
          -2 20 -1 14 9 11 6 22 12 91 callgsubr
          118 callsubr
          6 vvcurveto
          57 vlineto
          8 -4 49 12 vvcurveto
          11 vlineto
          7 1 5 2 4 vhcurveto
          254 -288 rmoveto
          -5 hlineto
          -7 -6 -2 -7 hhcurveto
          -5 -3 1 2 -2 hvcurveto
          -2 -8 -9 -1 -9 -19 -16 3 -19 hhcurveto
          -30 78 -14 27 -27 77 -7 3 7 7 -7 4 -5 13 rcurveline
          197 callgsubr
          4 -5 2 -3 7 vhcurveto
          -11 40 -33 23 -5 42 rrcurveto
          -8 callgsubr
          -18 3 -27 -15 -2 hvcurveto
          2 -3 rlineto
          -64 2 -45 -47 vvcurveto
          -31 1 -30 -5 -31 vhcurveto
          -5 -29 rlineto
          95 callgsubr
          hvcurveto
          -3 3 -2 -4 vvcurveto
          -4 -18 -19 -2 -20 hhcurveto
          hintmask 10000110
          -20 -18 1 3 -15 hvcurveto
          -7 73 4 93 -3 80 rrcurveto
          -3 5 0 32 43 40 3 38 39 11 -1 9 11 vvcurveto
          3 4 6 192 rlineto
          3 28 26 9 29 5 5 -1 5 hhcurveto
          75 -99 7 -44 29 -69 11 -19 rcurveline
          3 29 -38 6 hhcurveto
          6 8 rlineto
          -1 39 -1 37 39 vvcurveto
          48 1 48 4 47 vhcurveto
          19 18 1 19 hhcurveto
          22 hlineto
          8 8 -1 -1 8 hvcurveto
          1 7 3 1 3 hhcurveto
          3 -5 1 -6 -6 vvcurveto
          -4 vlineto
          -5 -2 5 -9 rlineto
          1 -28 1 -29 -28 -57 2 -323 -35 -31 -2 -30 -31 vvcurveto
          -15 vlineto
          -8 0 -5 1 -2 vhcurveto
          -2 hlineto
          -187 115 rmoveto
          -3 7 rlineto
          endchar
        </CharString>
        <CharString name="Ntilde">
          96 14 -21 25 -21 23 3 callgsubr
          696 61 -15 115 -16 76 -76 87 2 -20 hstemhm
          44 154 256 25 hintmask 1000010011100000
          193 747 rmoveto
          -9 17 rlineto
          3 -4 3 1 vvcurveto
          1 7 rlineto
          25 26 11 19 3 4 37 callsubr
          vhcurveto
          3 -1 21 -3 4 -53 46 -8 rlinecurve
          -4 20 7 -1 11 hhcurveto
          5 5 1 1 11 hvcurveto
          17 2 47 16 19 52 16 45 rlinecurve
          229 callsubr
          11 5 22 15 vvcurveto
          11 -3 7 -5 1 vhcurveto
          -15 28 callsubr
          -1 -1 -2 hvcurveto
          -3 22 callgsubr
          -83 -3 rlineto
          -13 -16 1 -46 -24 hhcurveto
          -1 hlineto
          -3 -23 callgsubr
          hhcurveto
          -19 1 -10 11 -11 16 rrcurveto
          hintmask 0010100101100000
          -99 callgsubr
          73 166 callsubr
          -2 -3 -1 -5 -7 vvcurveto
          -5 1 -5 1 -7 vhcurveto
          2 -8 -12 -32 -12 -31 -19 -30 -28 -8 rlinecurve
          2 hlineto
          -36 -4 rlineto
          -78 16 58 11 -43 hvcurveto
          1 hlineto
          2 -4 -6 1 -9 hhcurveto
          -24 -37 -7 -53 116 callgsubr
          hvcurveto
          -54 callgsubr
          111 -671 69 callsubr
          hintmask 1000101001100000
          1 -3 3 0 -3 vvcurveto
          5 5 rlineto
          hintmask 0001101001100000
          1 11 12 1 12 hhcurveto
          hintmask 0010101001100000
          17 16 -1 17 hhcurveto
          13 hlineto
          11 32 -3 1 1 hhcurveto
          -3 8 1 40 -3 39 rrcurveto
          3 39 0 35 39 76 -2 71 76 60 5 56 60 vvcurveto
          27 -1 26 -3 27 vhcurveto
          1 1 0 0 1 3 -5 2 4 vvcurveto
          1 4 5 1 vhcurveto
          229 callsubr
          -10 -7 2 -4 hhcurveto
          -1 -1 rlineto
          -1 -3 1 -3 -54 -19 -5 -32 hhcurveto
          -7 -5 169 callsubr
          -8 -9 6 -18 -5 -7 rrcurveto
          169 callgsubr
          -1 4 3 -141 2 vvcurveto
          -2 3 rlineto
          8 -64 1 5 -24 vvcurveto
          -2 2 rlineto
          -1 -1 0 -1 -2 -3 2 -3 -3 vvcurveto
          -2 -1 -1 -2 -1 vhcurveto
          -9 11 -2 9 -11 11 rrcurveto
          9 callgsubr
          -4 4 rlineto
          16 -17 10 -4 15 vhcurveto
          -7 7 -11 55 -8 11 -12 19 -17 19 -5 15 rrcurveto
          10 -2 -30 63 -24 -21 -20 -9 -19 -11 -11 3 -8 hhcurveto
          -13 -10 -3 -19 hvcurveto
          -26 vlineto
          -32 -4 -33 -32 vvcurveto
          -10 vlineto
          -5 0 -4 1 -1 vhcurveto
          -9 -5 -403 8 vvcurveto
          3 -6 1 -10 -13 -11 -2 -8 -11 -16 3 -20 -19 vvcurveto
          -11 -1 -8 -2 -6 vhcurveto
          19 callgsubr
          hintmask 0001101001100000
          137 callsubr
          hintmask 0100101001100000
          15 -5 18 5 39 -5 rrcurveto
          3 9 6 1 5 3 1 -4 4 hhcurveto
          3 4 2 4 4 hvcurveto
          3 -6 rlineto
          239 callsubr
          0 vvcurveto
          8 vlineto
          8 -3 1 8 vvcurveto
          3 1 5 2 8 vhcurveto
          -2 20 -1 14 9 11 6 22 12 91 callgsubr
          118 callsubr
          6 vvcurveto
          57 vlineto
          8 -4 49 12 vvcurveto
          11 vlineto
          7 1 5 2 4 vhcurveto
          254 -288 rmoveto
          -5 hlineto
          -7 -6 -2 -7 hhcurveto
          -5 -3 1 2 -2 hvcurveto
          -2 -8 -9 -1 -9 -19 -16 3 -19 hhcurveto
          -30 78 -14 27 -27 77 -7 3 7 7 -7 4 -5 13 rcurveline
          197 callgsubr
          4 -5 2 -3 7 vhcurveto
          -11 40 -33 23 -5 42 rrcurveto
          -8 callgsubr
          -18 3 -27 -15 -2 hvcurveto
          2 -3 rlineto
          -64 2 -45 -47 vvcurveto
          -31 1 -30 -5 -31 vhcurveto
          -5 -29 rlineto
          95 callgsubr
          hvcurveto
          -3 3 -2 -4 vvcurveto
          -4 -18 -19 -2 -20 hhcurveto
          hintmask 1000101001100000
          -20 -18 1 3 -15 hvcurveto
          -7 73 4 93 -3 80 rrcurveto
          -3 5 0 32 43 40 3 38 39 11 -1 9 11 vvcurveto
          3 4 6 192 rlineto
          3 28 26 9 29 5 5 -1 5 hhcurveto
          75 -99 7 -44 29 -69 11 -19 rcurveline
          3 29 -38 6 hhcurveto
          6 8 rlineto
          -1 39 -1 37 39 vvcurveto
          48 1 48 4 47 vhcurveto
          19 18 1 19 hhcurveto
          22 hlineto
          8 8 -1 -1 8 hvcurveto
          1 7 3 1 3 hhcurveto
          3 -5 1 -6 -6 vvcurveto
          -4 vlineto
          -5 -2 5 -9 rlineto
          1 -28 1 -29 -28 -57 2 -323 -35 -31 -2 -30 -31 vvcurveto
          -15 vlineto
          -8 0 -5 1 -2 vhcurveto
          -2 hlineto
          -187 115 rmoveto
          -3 7 rlineto
          endchar
        </CharString>
        <CharString name="O">
          63 30 callgsubr
          hstemhm
          30 146 -39 39 -24 24 113 37 94 29 hintmask 1001100110000000
          432 591 rmoveto
          78 -27 -88 28 -83 -87 callsubr
          hintmask 0110001110000000
          28 22 4 29 hhcurveto
          19 hlineto
          43 11 53 -2 32 35 59 92 -5 96 5 100 rrcurveto
          -1 2 0 5 7 vvcurveto
          14 vlineto
          39 4 41 39 vvcurveto
          41 -4 40 -16 37 vhcurveto
          -9 -207 rmoveto
          -2 -16 -1 -32 -47 vvcurveto
          2 3 -2 -8 rlineto
          -71 vlineto
          -69 -5 -5 -64 -91 vhcurveto
          -121 -29 9 8 -33 -8 -43 3 -51 8 -21 45 -45 51 8 80 -11 67 -1 44 rcurveline
          58 callgsubr
          -3 11 -1 17 23 45 6 30 83 vvcurveto
          57 34 53 47 27 59 callsubr
          1 -3 rlineto
          19 19 24 4 27 hhcurveto
          68 66 -10 -27 52 hvcurveto
          35 -51 4 -65 -41 -40 -1 -12 -19 -11 1 -8 -11 vvcurveto
          -119 151 rmoveto
          24 -32 -7 4 -11 -11 11 -8 -11 hhcurveto
          -40 -18 -14 -17 -17 hvcurveto
          -5 -4 2 -7 -7 -3 -9 -41 rcurveline
          2 -11 1 -11 -9 vvcurveto
          hintmask 1010010110000000
          -45 -15 -43 -47 vvcurveto
          -10 vlineto
          3 -56 4 -33 3 -15 rrcurveto
          -35 24 20 -32 50 hhcurveto
          7 5 1 11 3 hvcurveto
          21 40 28 8 hvcurveto
          4 vlineto
          7 21 2 24 23 vvcurveto
          -3 131 -1 68 -1 11 -3 23 -2 21 -12 39 rrcurveto
          -93 -383 rmoveto
          -33 43 9 63 -8 56 rrcurveto
          -4 27 1 24 27 vvcurveto
          30 vlineto
          11 0 10 1 11 vhcurveto
          1 7 -2 26 5 15 16 11 rcurveline
          -3 -10 4 -1 rlineto
          16 16 -7 17 38 hhcurveto
          47 -15 -93 -38 8 hvcurveto
          3 -25 1 -26 -27 vvcurveto
          -22 -10 -49 -19 -76 vhcurveto
          -7 -5 -15 -9 -23 -13 rrcurveto
          47 407 rmoveto
          3 -1 rlineto
          endchar
        </CharString>
</ttFont>
